<svg id="Слой_1" data-name="Слой 1" xmlns="http://www.w3.org/2000/svg" xmlns:xlink="http://www.w3.org/1999/xlink"
     viewBox="0 0 1000 631">
  <defs>
    <style>
      .cls-1{fill:url(#linear-gradient);}.cls-2{fill:#91b3fa;}.cls-3{fill:#bdd0fb;}.cls-4{fill:#7d97f4;}.cls-5{fill:url(#linear-gradient-2);}.cls-6{fill:url(#linear-gradient-3);}.cls-7{fill:url(#linear-gradient-4);}.cls-8{fill:url(#linear-gradient-5);}.cls-9{fill:url(#linear-gradient-6);}.cls-10{fill:url(#linear-gradient-7);}.cls-11{fill:url(#linear-gradient-8);}.cls-12{fill:url(#linear-gradient-9);}.cls-13{fill:url(#linear-gradient-10);}.cls-14{fill:url(#linear-gradient-11);}.cls-15{fill:url(#linear-gradient-12);}.cls-16{fill:url(#linear-gradient-13);}.cls-17{fill:url(#linear-gradient-14);}.cls-18{fill:url(#linear-gradient-15);}.cls-19{fill:url(#linear-gradient-16);}.cls-20{fill:url(#linear-gradient-17);}.cls-21{fill:url(#linear-gradient-18);}.cls-22{fill:url(#linear-gradient-19);}.cls-23{fill:url(#linear-gradient-20);}.cls-24{opacity:0.64;}.cls-25{fill:url(#linear-gradient-21);}.cls-26{fill:url(#linear-gradient-22);}.cls-27{fill:url(#linear-gradient-23);}.cls-28{fill:url(#linear-gradient-24);}.cls-29{fill:url(#linear-gradient-25);}.cls-30{fill:url(#linear-gradient-26);}.cls-31{fill:url(#linear-gradient-27);}.cls-32{fill:url(#linear-gradient-28);}.cls-33{fill:url(#linear-gradient-29);}.cls-34{fill:url(#linear-gradient-30);}.cls-35{fill:url(#linear-gradient-31);}.cls-36{fill:url(#linear-gradient-32);}.cls-37{fill:url(#linear-gradient-33);}.cls-38{fill:url(#linear-gradient-34);}.cls-39{fill:url(#linear-gradient-35);}.cls-40{fill:url(#linear-gradient-36);}.cls-41{fill:url(#linear-gradient-37);}.cls-42{fill:url(#linear-gradient-38);}.cls-43{fill:url(#linear-gradient-39);}.cls-44{fill:url(#linear-gradient-40);}.cls-45{fill:url(#linear-gradient-41);}.cls-46{fill:url(#linear-gradient-42);}.cls-47{fill:url(#linear-gradient-43);}.cls-48{fill:url(#linear-gradient-44);}.cls-49{fill:url(#linear-gradient-45);}.cls-50{fill:url(#linear-gradient-46);}.cls-51{fill:url(#linear-gradient-47);}.cls-52{fill:url(#linear-gradient-48);}.cls-53{fill:url(#linear-gradient-49);}.cls-54{fill:url(#linear-gradient-50);}.cls-55{fill:url(#linear-gradient-51);}.cls-56{fill:url(#linear-gradient-52);}.cls-57{fill:url(#linear-gradient-53);}.cls-58{fill:url(#linear-gradient-54);}.cls-59{fill:url(#linear-gradient-55);}.cls-60{fill:url(#linear-gradient-56);}.cls-61{fill:url(#linear-gradient-57);}.cls-62{fill:url(#linear-gradient-58);}.cls-63{fill:url(#linear-gradient-59);}.cls-64{fill:url(#linear-gradient-60);}.cls-65{fill:url(#linear-gradient-61);}.cls-66{fill:url(#linear-gradient-62);}.cls-67{fill:url(#linear-gradient-63);}.cls-68{fill:url(#linear-gradient-64);}.cls-69{fill:url(#linear-gradient-65);}
    </style>
    <linearGradient id="linear-gradient" x1="-1595.49" y1="407.48" x2="-668.66" y2="407.48"
                    gradientTransform="matrix(-1, 0.09, 0.09, 0.95, -675.7, 15.83)" gradientUnits="userSpaceOnUse">
      <stop offset="0" stop-color="#dae3fe"/>
      <stop offset="1" stop-color="#e9effd"/>
    </linearGradient>
    <linearGradient id="linear-gradient-2" x1="146.91" y1="94.36" x2="296.99" y2="94.36"
                    gradientTransform="matrix(1, 0, 0, 1, 0, 0)" xlink:href="#linear-gradient"/>
    <linearGradient id="linear-gradient-3" x1="148.9" y1="109.95" x2="281.06" y2="109.95"
                    gradientTransform="matrix(1, 0, 0, 1, 0, 0)" xlink:href="#linear-gradient"/>
    <linearGradient id="linear-gradient-4" x1="114.43" y1="190.04" x2="308.3" y2="190.04"
                    gradientTransform="matrix(1, 0, 0, 1, 0, 0)" xlink:href="#linear-gradient"/>
    <linearGradient id="linear-gradient-5" x1="118.5" y1="146.12" x2="306.11" y2="146.12"
                    gradientTransform="matrix(1, 0, 0, 1, 0, 0)" xlink:href="#linear-gradient"/>
    <linearGradient id="linear-gradient-6" x1="478.49" y1="372.46" x2="483.8" y2="686.12"
                    gradientUnits="userSpaceOnUse">
      <stop offset="0" stop-color="#09005d"/>
      <stop offset="1" stop-color="#1a0f91"/>
    </linearGradient>
    <linearGradient id="linear-gradient-7" x1="637.69" y1="431.52" x2="580.42" y2="503.56"
                    xlink:href="#linear-gradient-6"/>
    <linearGradient id="linear-gradient-8" x1="633.83" y1="-95.73" x2="473.64" y2="357.85"
                    xlink:href="#linear-gradient-6"/>
    <linearGradient id="linear-gradient-9" x1="805.46" y1="-165.36" x2="694.62" y2="-0.01"
                    gradientUnits="userSpaceOnUse">
      <stop offset="0" stop-color="#4042e2"/>
      <stop offset="1" stop-color="#4f52ff"/>
    </linearGradient>
    <linearGradient id="linear-gradient-10" x1="372.84" y1="-378.2" x2="340.99" y2="-61.42"
                    gradientUnits="userSpaceOnUse">
      <stop offset="0" stop-color="#fe7062"/>
      <stop offset="1" stop-color="#ff928e"/>
    </linearGradient>
    <linearGradient id="linear-gradient-11" x1="496.31" y1="-369.17" x2="464.31" y2="-50.98"
                    xlink:href="#linear-gradient-10"/>
    <linearGradient id="linear-gradient-12" x1="644.37" y1="-351.47" x2="612.56" y2="-35.22"
                    xlink:href="#linear-gradient-10"/>
    <linearGradient id="linear-gradient-13" x1="736.36" y1="-343.62" x2="704.5" y2="-26.77"
                    xlink:href="#linear-gradient-10"/>
    <linearGradient id="linear-gradient-14" x1="604.2" y1="-359.92" x2="572.19" y2="-41.64"
                    xlink:href="#linear-gradient-10"/>
    <linearGradient id="linear-gradient-15" x1="451.64" y1="-369.22" x2="419.84" y2="-52.94"
                    xlink:href="#linear-gradient-10"/>
    <linearGradient id="linear-gradient-16" x1="436.69" y1="278.14" x2="609.58" y2="499.65"
                    xlink:href="#linear-gradient-10"/>
    <linearGradient id="linear-gradient-17" x1="643.51" y1="-93.57" x2="581.15" y2="72.12"
                    gradientUnits="userSpaceOnUse">
      <stop offset="0" stop-color="#ff928e"/>
      <stop offset="1" stop-color="#feb3b1"/>
    </linearGradient>
    <linearGradient id="linear-gradient-18" x1="643.76" y1="-93.31" x2="581.43" y2="72.31"
                    xlink:href="#linear-gradient-17"/>
    <linearGradient id="linear-gradient-19" x1="692.17" y1="179.6" x2="697.09" y2="355.9"
                    xlink:href="#linear-gradient-10"/>
    <linearGradient id="linear-gradient-20" x1="838.31" y1="-358.95" x2="777.93" y2="-119.22"
                    xlink:href="#linear-gradient-17"/>
    <linearGradient id="linear-gradient-21" x1="606.98" y1="191.19" x2="691.24" y2="339.99"
                    xlink:href="#linear-gradient-10"/>
    <linearGradient id="linear-gradient-22" x1="649.36" y1="168.67" x2="731.68" y2="314.04"
                    xlink:href="#linear-gradient-10"/>
    <linearGradient id="linear-gradient-23" x1="700.24" y1="140.78" x2="785.1" y2="290.65"
                    xlink:href="#linear-gradient-10"/>
    <linearGradient id="linear-gradient-24" x1="716.67" y1="132.1" x2="800.86" y2="280.78"
                    xlink:href="#linear-gradient-10"/>
    <linearGradient id="linear-gradient-25" x1="674.21" y1="158.3" x2="756.32" y2="303.31"
                    xlink:href="#linear-gradient-10"/>
    <linearGradient id="linear-gradient-26" x1="621.13" y1="182.72" x2="705.96" y2="332.52"
                    xlink:href="#linear-gradient-10"/>
    <linearGradient id="linear-gradient-27" x1="838.3" y1="-358.9" x2="777.93" y2="-119.2"
                    xlink:href="#linear-gradient-17"/>
    <linearGradient id="linear-gradient-28" x1="185.9" y1="459.94" x2="188.32" y2="459.94"
                    xlink:href="#linear-gradient-10"/>
    <linearGradient id="linear-gradient-29" x1="183.47" y1="411.64" x2="298.56" y2="411.64"
                    xlink:href="#linear-gradient-10"/>
    <linearGradient id="linear-gradient-30" x1="300.58" y1="380.77" x2="304.28" y2="380.77"
                    xlink:href="#linear-gradient-10"/>
    <linearGradient id="linear-gradient-31" x1="333.52" y1="427.32" x2="335.75" y2="427.32"
                    xlink:href="#linear-gradient-10"/>
    <linearGradient id="linear-gradient-32" x1="218.86" y1="472.76" x2="336.84" y2="472.76"
                    xlink:href="#linear-gradient-10"/>
    <linearGradient id="linear-gradient-33" x1="213.19" y1="498.62" x2="216.82" y2="498.62"
                    xlink:href="#linear-gradient-10"/>
    <linearGradient id="linear-gradient-34" x1="324.25" y1="333.15" x2="228.41" y2="493.16"
                    xlink:href="#linear-gradient-10"/>
    <linearGradient id="linear-gradient-35" x1="317.05" y1="131.49" x2="279.81" y2="333.65"
                    xlink:href="#linear-gradient-17"/>
    <linearGradient id="linear-gradient-36" x1="317.21" y1="131.52" x2="279.97" y2="333.68"
                    xlink:href="#linear-gradient-17"/>
    <linearGradient id="linear-gradient-37" x1="-438.65" y1="248.65" x2="-413.76" y2="314.62"
                    gradientTransform="matrix(-1, 0, 0, 1, -172.76, 0)" xlink:href="#linear-gradient-17"/>
    <linearGradient id="linear-gradient-38" x1="-436.29" y1="270.27" x2="-424.16" y2="248.33"
                    gradientTransform="matrix(-1, 0, 0, 1, -172.76, 0)" gradientUnits="userSpaceOnUse">
      <stop offset="0" stop-color="#53d8ff"/>
      <stop offset="1" stop-color="#3840f7"/>
    </linearGradient>
    <linearGradient id="linear-gradient-39" x1="6710.76" y1="379.52" x2="6736.7" y2="379.52"
                    gradientTransform="translate(-6496.2)" xlink:href="#linear-gradient-6"/>
    <linearGradient id="linear-gradient-40" x1="6717.97" y1="506.47" x2="6721.26" y2="436.58"
                    gradientTransform="translate(-6496.2)" xlink:href="#linear-gradient-6"/>
    <linearGradient id="linear-gradient-41" x1="6665.21" y1="379.58" x2="6677.35" y2="379.58"
                    gradientTransform="translate(-6496.2)" xlink:href="#linear-gradient-6"/>
    <linearGradient id="linear-gradient-42" x1="6665.31" y1="507.49" x2="6668.69" y2="435.63"
                    gradientTransform="translate(-6496.2)" xlink:href="#linear-gradient-6"/>
    <linearGradient id="linear-gradient-43" x1="6670.34" y1="371.61" x2="6678.22" y2="371.61"
                    gradientTransform="translate(-6496.2)" xlink:href="#linear-gradient-17"/>
    <linearGradient id="linear-gradient-44" x1="6712.08" y1="371.12" x2="6718.65" y2="371.12"
                    gradientTransform="translate(-6496.2)" xlink:href="#linear-gradient-17"/>
    <linearGradient id="linear-gradient-45" x1="278.64" y1="287.78" x2="257.95" y2="299.15"
                    xlink:href="#linear-gradient-6"/>
    <linearGradient id="linear-gradient-46" x1="6728" y1="274.59" x2="6701.87" y2="308.39"
                    gradientTransform="translate(-6496.2)" xlink:href="#linear-gradient-6"/>
    <linearGradient id="linear-gradient-47" x1="-1524.45" y1="1011.7" x2="-1626.73" y2="1081.68"
                    gradientTransform="matrix(-1, 0, 0, 1, -172.76, 0)" xlink:href="#linear-gradient-10"/>
    <linearGradient id="linear-gradient-48" x1="238.04" y1="185.85" x2="236.5" y2="223.01"
                    xlink:href="#linear-gradient-17"/>
    <linearGradient id="linear-gradient-49" x1="6396.02" y1="-757.02" x2="6406.97" y2="-726.63"
                    gradientTransform="translate(-6496.2)" xlink:href="#linear-gradient-17"/>
    <linearGradient id="linear-gradient-50" x1="6727.61" y1="172.61" x2="6745.77" y2="195.99"
                    gradientTransform="translate(-6496.2)" xlink:href="#linear-gradient-6"/>
    <linearGradient id="linear-gradient-51" x1="6390.28" y1="-751.99" x2="6401.2" y2="-721.69"
                    gradientTransform="translate(-6496.2)" xlink:href="#linear-gradient-17"/>
    <linearGradient id="linear-gradient-52" x1="-954.99" y1="1091.23" x2="-937.53" y2="1066.61"
                    gradientTransform="matrix(-1, 0, 0, 1, -172.76, 0)" xlink:href="#linear-gradient-17"/>
    <linearGradient id="linear-gradient-53" x1="-1561.71" y1="1039.05" x2="-1667.43" y2="1111.38"
                    gradientTransform="matrix(-1, 0, 0, 1, -172.76, 0)" xlink:href="#linear-gradient-10"/>
    <linearGradient id="linear-gradient-54" x1="-457.08" y1="255" x2="-431.78" y2="322.05"
                    gradientTransform="matrix(-1, 0, 0, 1, -172.76, 0)" xlink:href="#linear-gradient-17"/>
    <linearGradient id="linear-gradient-55" x1="-950.95" y1="1095.35" x2="-933.47" y2="1070.7"
                    gradientTransform="matrix(-1, 0, 0, 1, -172.76, 0)" xlink:href="#linear-gradient-17"/>
    <linearGradient id="linear-gradient-56" x1="853.28" y1="429.62" x2="819" y2="483.67"
                    xlink:href="#linear-gradient-17"/>
    <linearGradient id="linear-gradient-57" x1="-701.56" y1="506.77" x2="-704.81" y2="601.87"
                    gradientTransform="translate(1470.1)" xlink:href="#linear-gradient-6"/>
    <linearGradient id="linear-gradient-58" x1="-746.31" y1="505.01" x2="-749.56" y2="600.33"
                    gradientTransform="translate(1470.1)" xlink:href="#linear-gradient-6"/>
    <linearGradient id="linear-gradient-59" x1="791.81" y1="417.04" x2="758.52" y2="492.94"
                    xlink:href="#linear-gradient-17"/>
    <linearGradient id="linear-gradient-60" x1="711.47" y1="463.01" x2="741.16" y2="526.84"
                    xlink:href="#linear-gradient-10"/>
    <linearGradient id="linear-gradient-61" x1="670.3" y1="591.3" x2="613.11" y2="664.57"
                    xlink:href="#linear-gradient-10"/>
    <linearGradient id="linear-gradient-62" x1="-759.06" y1="446.32" x2="-744.64" y2="446.32"
                    gradientTransform="translate(1470.1)" xlink:href="#linear-gradient-17"/>
    <linearGradient id="linear-gradient-63" x1="741.58" y1="377.94" x2="733.83" y2="397.62"
                    xlink:href="#linear-gradient-17"/>
    <linearGradient id="linear-gradient-64" x1="680.47" y1="371.73" x2="678.12" y2="393.22"
                    xlink:href="#linear-gradient-17"/>
    <linearGradient id="linear-gradient-65" x1="-825.89" y1="418.67" x2="-873.84" y2="511.74"
                    gradientTransform="matrix(-1, 0, 0, 1, -107.83, 0)" xlink:href="#linear-gradient-6"/>
  </defs>
  <path class="cls-1"
        d="M480.33,597.93s344.78-27.32,432.39-119.68,43.21-172.56-32.59-189.59-90.78-40.48-54.56-77.2,79.67-109.34-10.48-170.24S639.6,87.15,563.8,80.82,513.15,27.88,418.2,67.06,336.06,15.92,256.51,15s-67.34,87.14-154.16,111.74c-148.48,42.06-23.41,222.13-47.27,272s-34,207.5,98.18,218S480.33,597.93,480.33,597.93Z"
        transform="translate(0 -15)"/>
  <path class="cls-2"
        d="M32.45,125.47c1,100.95,30.33,368.32,307,426.16,15.46,3.24,30.49-6.94,32.39-21.9C381.5,454.29,379.2,237,70.49,101.91,52.59,94.08,32.26,106.71,32.45,125.47Z"
        transform="translate(0 -15)"/>
  <path class="cls-3"
        d="M.31,336.45C14.3,414.76,72,619,294.6,631.16c12.43.67,22.78-9,22.3-20.86C314.51,550.54,284.3,382,26.78,313.64,11.85,309.67-2.29,321.9.31,336.45Z"
        transform="translate(0 -15)"/>
  <path class="cls-3"
        d="M766.86,615.29c39.47,7.51,89.88-33.46,106.12-78.22,16.71-46.07-13.93-65.37-13.7-129.29.27-72.61,39.94-83.56,66.18-181.43,5.92-22.08,40.18-149.88-2.28-173.83C883.92,30.37,773.64,93.93,754.31,175.29c-13.78,58,28.82,82.36,12.55,149.92-14.28,59.29-51.8,60.14-66.18,117.34C683.18,512.18,715,605.42,766.86,615.29Z"
        transform="translate(0 -15)"/>
  <path class="cls-4"
        d="M769.73,632.88c-10.64-78.23,10.12-198.93,29.4-286.41,20.88-94.71,44.58-172,44.82-172.73l3.28.92c-.23.77-23.9,77.92-44.75,172.5-19.23,87.23-39.93,207.53-29.36,285.3Z"
        transform="translate(0 -15)"/>
  <path class="cls-2"
        d="M789.94,614c-48.66-24.14-65.31-107-37.65-134,18.68-18.2,45.48.95,71.34-17.92,33-24.09,8.72-69.47,34.68-128.31,22.08-50.08,75.06-97.46,106-87.74,32.4,10.18,49.47,85.69,21.79,131.14-18,29.55-45.54,31-51.52,58.49-6.93,31.9,26.57,46.44,26.75,77.36C961.68,568.61,854.31,646,789.94,614Z"
        transform="translate(0 -15)"/>
  <path class="cls-4"
        d="M816.19,635.24a2,2,0,0,1-.86-.19,1.85,1.85,0,0,1-.92-2.52C878.92,506,897.83,359.15,898,357.68a2,2,0,0,1,2.21-1.65,1.91,1.91,0,0,1,1.73,2.1c-.18,1.47-19.18,148.92-84,276A2,2,0,0,1,816.19,635.24Z"
        transform="translate(0 -15)"/>
  <path class="cls-3"
        d="M948.53,395.67a1,1,0,0,1-.56-.18.85.85,0,0,1-.15-1.22c36.89-45.09,39.29-78.77,34.81-99.09-4.84-21.92-18.47-33.36-18.61-33.47a.83.83,0,0,1-.09-1.22.94.94,0,0,1,1.28-.09c.58.48,14.23,11.94,19.19,34.43,4.57,20.67,2.17,54.89-35.15,100.5A.93.93,0,0,1,948.53,395.67Z"
        transform="translate(0 -15)"/>
  <path class="cls-3"
        d="M785.55,602.92a.93.93,0,0,1-.75-.37c-31.28-43.47-41.95-77.06-31.71-99.82,9.1-20.24,32.08-24,32.32-24a.9.9,0,0,1,1,.71.88.88,0,0,1-.75,1c-.22,0-22.25,3.67-31,23-10,22.18.65,55.2,31.55,98.14a.84.84,0,0,1-.24,1.2A.92.92,0,0,1,785.55,602.92Z"
        transform="translate(0 -15)"/>
  <path class="cls-4"
        d="M314.68,278.2H107.39a11.69,11.69,0,0,1-12-11.4V76.23a11.68,11.68,0,0,1,11.93-11.4l209-.53c6.65,0,12,5.12,12,11.45l-1.66,191.11C326.62,273.13,321.27,278.2,314.68,278.2Z"
        transform="translate(0 -15)"/>
  <path class="cls-3"
        d="M304.53,78.88,119.18,80c-6.7,0-12.1,5.24-12.07,11.62l1.29,160.28a11.86,11.86,0,0,0,11.92,11.51l180.09,3.13c6.73.11,12.27-5,12.37-11.4l4-164.5C316.84,84.13,311.33,78.84,304.53,78.88Z"
        transform="translate(0 -15)"/>
  <path class="cls-5"
        d="M297,93.75V95a3.55,3.55,0,0,1-3.63,3.46H150.55A3.55,3.55,0,0,1,146.91,95V93.75a3.55,3.55,0,0,1,3.64-3.46H293.36A3.55,3.55,0,0,1,297,93.75Z"
        transform="translate(0 -15)"/>
  <path class="cls-6"
        d="M281.06,109.05h0a3.56,3.56,0,0,1-3.57,3.27L152.6,114.49a3.55,3.55,0,0,1-3.7-3.46v-.28a3.54,3.54,0,0,1,3.57-3.46l124.9-1.88A3.54,3.54,0,0,1,281.06,109.05Z"
        transform="translate(0 -15)"/>
  <path class="cls-7"
        d="M293.8,257.53h-.12L124.75,255.6a10.64,10.64,0,0,1-7.37-3,9.63,9.63,0,0,1-2.95-7.11l4.35-113.19a9.64,9.64,0,0,1,3.2-7,10.58,10.58,0,0,1,7.45-2.77l168.63,3.12A10.2,10.2,0,0,1,308.3,135.8v0l-4.06,112A10.23,10.23,0,0,1,293.8,257.53ZM129.22,126a7,7,0,0,0-4.72,1.81,6.32,6.32,0,0,0-2.09,4.56l-4.35,113.18a6.29,6.29,0,0,0,1.92,4.61,6.94,6.94,0,0,0,4.81,2l168.93,1.93a6.66,6.66,0,0,0,6.9-6.37l4.05-112a6.65,6.65,0,0,0-6.68-6.59L129.35,126Z"
        transform="translate(0 -15)"/>
  <path class="cls-8" d="M304.29,147.84h-184a1.73,1.73,0,1,1,0-3.45h184a1.73,1.73,0,1,1,0,3.45Z"
        transform="translate(0 -15)"/>
  <polygon class="cls-9" points="410.5 473.72 395.53 601.56 569.22 601.56 546.59 473.72 410.5 473.72"/>
  <path class="cls-10"
        d="M606.63,642.72H352.42c-6.9,0-12.09-4.68-10.76-9.71l3.27-12.28c1-3.7,5.25-6.41,10.32-6.56l245.06-7.28c5.3-.16,10,2.52,11.14,6.36l5.88,19.56C618.86,637.9,613.65,642.72,606.63,642.72Z"
        transform="translate(0 -15)"/>
  <path class="cls-11"
        d="M151.77,162V490c0,27,22.58,49.05,50.91,49.75,125.83,3.09,449.91,10.58,569.68,8.9,20.59-.29,37.27-16,37.86-35.57,2.31-76.21,6.06-259.45-7.82-344.52-2.92-17.91-18.81-31.31-37.84-31.89-105.42-3.21-455.93-13.41-575.66-10.85C168.26,126.22,151.77,142.28,151.77,162Z"
        transform="translate(0 -15)"/>
  <path class="cls-12"
        d="M173.38,160.35V472c0,15.75,13.29,28.59,29.83,28.83l551.92,7.85c16.4.24,29.85-12.33,29.91-27.95l1.12-308.85c0-11.17-9.3-20.32-21-20.59L197.3,138.12C184.19,137.82,173.38,147.86,173.38,160.35Z"
        transform="translate(0 -15)"/>
  <path class="cls-2"
        d="M790.07,521.43h0L173.37,509.54a.87.87,0,1,1,0-1.73L790.09,519.7a.87.87,0,0,1,.88.88A.88.88,0,0,1,790.07,521.43Z"
        transform="translate(0 -15)"/>
  <path class="cls-2" d="M489.27,617.57a.86.86,0,1,1,0-1.72l10.5-.15h0a.87.87,0,1,1,0,1.73l-10.5.14Z"
        transform="translate(0 -15)"/>
  <path class="cls-2"
        d="M351.08,636h-.15a.87.87,0,0,1-.75-1l1.5-8.93A10.38,10.38,0,0,1,362,617.62l111.39-1.55a.88.88,0,0,1,.92.85.9.9,0,0,1-.9.88L362,619.35a8.61,8.61,0,0,0-8.51,7L352,635.3A.89.89,0,0,1,351.08,636Z"
        transform="translate(0 -15)"/>
  <path class="cls-4"
        d="M240.89,642.79a2.18,2.18,0,0,1-2.23-2.13V386a2.24,2.24,0,0,1,4.47,0V640.66A2.18,2.18,0,0,1,240.89,642.79Z"
        transform="translate(0 -15)"/>
  <path class="cls-4"
        d="M153.51,642.79a2.18,2.18,0,0,1-2.23-2.13V386a2.24,2.24,0,0,1,4.47,0V640.66A2.18,2.18,0,0,1,153.51,642.79Z"
        transform="translate(0 -15)"/>
  <path class="cls-4"
        d="M4.55,644.41a2.4,2.4,0,0,1-.87-.17,2.1,2.1,0,0,1-1.19-2.8L116.9,385.19a2.29,2.29,0,0,1,2.94-1.13,2.09,2.09,0,0,1,1.18,2.8L6.61,643.11A2.25,2.25,0,0,1,4.55,644.41Z"
        transform="translate(0 -15)"/>
  <path class="cls-4"
        d="M75.22,644.41a2.4,2.4,0,0,1-.87-.17,2.1,2.1,0,0,1-1.19-2.8L187.58,385.19a2.28,2.28,0,0,1,2.93-1.13,2.09,2.09,0,0,1,1.18,2.8L77.28,643.11A2.25,2.25,0,0,1,75.22,644.41Z"
        transform="translate(0 -15)"/>
  <path class="cls-4"
        d="M246.43,388.37H110.75a1.07,1.07,0,0,1-1.09-1V383.4a1.07,1.07,0,0,1,1.09-1H246.43a1.07,1.07,0,0,1,1.09,1v3.93A1.07,1.07,0,0,1,246.43,388.37Z"
        transform="translate(0 -15)"/>
  <path class="cls-4" d="M172.35,427.34H101.47a2.13,2.13,0,1,1,0-4.26h70.88a2.13,2.13,0,1,1,0,4.26Z"
        transform="translate(0 -15)"/>
  <rect class="cls-4" x="79.72" y="456.54" width="70.88" height="4.26"/>
  <rect class="cls-4" x="58.67" y="505" width="70.88" height="4.26"/>
  <path class="cls-4" d="M107.47,572.73H36.59a2.13,2.13,0,1,1,0-4.26h70.88a2.13,2.13,0,1,1,0,4.26Z"
        transform="translate(0 -15)"/>
  <path class="cls-4" d="M86.12,621.19H15.24a2.13,2.13,0,1,1,0-4.26H86.12a2.13,2.13,0,1,1,0,4.26Z"
        transform="translate(0 -15)"/>
  <path class="cls-13"
        d="M296.33,391.41a2.26,2.26,0,0,1-2.18-1.55c-.34-1.12-.68-2.24-1-3.37a2.14,2.14,0,0,1,1.59-2.65,2.28,2.28,0,0,1,2.79,1.51c.32,1.1.64,2.2,1,3.29a2.15,2.15,0,0,1-1.54,2.68A2.35,2.35,0,0,1,296.33,391.41Z"
        transform="translate(0 -15)"/>
  <path class="cls-14"
        d="M292.59,377.18a2.24,2.24,0,0,1-2.22-1.72c-.5-2.28-1-4.59-1.36-6.87a2.17,2.17,0,0,1,1.86-2.49,2.26,2.26,0,0,1,2.61,1.77c.4,2.23.84,4.49,1.33,6.71a2.16,2.16,0,0,1-1.76,2.55A2.49,2.49,0,0,1,292.59,377.18Zm-2.95-17.9a2.22,2.22,0,0,1-2.25-1.93c-.26-2.3-.48-4.64-.64-7a2.19,2.19,0,0,1,2.11-2.3,2.25,2.25,0,0,1,2.42,2c.16,2.26.37,4.55.62,6.79a2.19,2.19,0,0,1-2,2.38Zm-1.08-18.08a2.22,2.22,0,0,1-2.27-2.14v-1.42c0-1.85,0-3.72.09-5.57a2.24,2.24,0,0,1,2.33-2.09,2.2,2.2,0,0,1,2.2,2.22c-.05,1.81-.08,3.63-.08,5.44V339a2.21,2.21,0,0,1-2.25,2.18Zm.79-18.1h-.21a2.2,2.2,0,0,1-2.06-2.35c.22-2.31.49-4.64.79-6.94a2.26,2.26,0,0,1,2.54-1.87,2.18,2.18,0,0,1,2,2.42c-.3,2.24-.56,4.52-.77,6.78A2.23,2.23,0,0,1,289.35,323.1ZM292,305.17a2.09,2.09,0,0,1-.43,0,2.17,2.17,0,0,1-1.81-2.52c.46-2.28,1-4.58,1.5-6.84a2.27,2.27,0,0,1,2.72-1.62,2.16,2.16,0,0,1,1.71,2.59c-.53,2.2-1,4.45-1.47,6.67A2.23,2.23,0,0,1,292,305.17Zm4.45-17.6a2.35,2.35,0,0,1-.64-.09,2.15,2.15,0,0,1-1.54-2.68c.69-2.23,1.43-4.47,2.2-6.66a2.3,2.3,0,0,1,2.87-1.36,2.13,2.13,0,0,1,1.43,2.73c-.75,2.15-1.47,4.34-2.14,6.51A2.26,2.26,0,0,1,296.42,287.57Zm6.26-17.1a2.33,2.33,0,0,1-.85-.16,2.13,2.13,0,0,1-1.25-2.81c.91-2.16,1.89-4.32,2.89-6.44a2.31,2.31,0,0,1,3-1.08,2.12,2.12,0,0,1,1.14,2.85c-1,2.07-1.93,4.19-2.83,6.29A2.26,2.26,0,0,1,302.68,270.47Zm8-16.45a2.35,2.35,0,0,1-1.05-.25,2.11,2.11,0,0,1-.95-2.92c1.13-2.06,2.33-4.12,3.54-6.13a2.33,2.33,0,0,1,3.1-.79,2.11,2.11,0,0,1,.84,2.95c-1.19,2-2.36,4-3.47,6A2.27,2.27,0,0,1,310.7,254Zm9.7-15.61a2.35,2.35,0,0,1-1.25-.36,2.09,2.09,0,0,1-.64-3c1.34-1.94,2.74-3.88,4.16-5.76a2.32,2.32,0,0,1,3.16-.5,2.09,2.09,0,0,1,.53,3c-1.39,1.85-2.76,3.74-4.07,5.63A2.29,2.29,0,0,1,320.4,238.41Zm11.26-14.62a2.35,2.35,0,0,1-1.43-.48,2.09,2.09,0,0,1-.34-3c1.54-1.8,3.13-3.6,4.74-5.34a2.34,2.34,0,0,1,3.2-.2,2.09,2.09,0,0,1,.21,3.05c-1.57,1.7-3.12,3.46-4.62,5.21A2.29,2.29,0,0,1,331.66,223.79Zm12.7-13.49a2.32,2.32,0,0,1-1.6-.62,2.1,2.1,0,0,1,0-3.06c1.71-1.65,3.48-3.29,5.25-4.87a2.36,2.36,0,0,1,3.21.1,2.1,2.1,0,0,1-.1,3.06c-1.73,1.54-3.46,3.14-5.14,4.75A2.28,2.28,0,0,1,344.36,210.3Zm14-12.23a2.32,2.32,0,0,1-1.75-.78,2.08,2.08,0,0,1,.3-3c1.87-1.49,3.8-2.95,5.72-4.36a2.35,2.35,0,0,1,3.19.4,2.1,2.1,0,0,1-.42,3c-1.88,1.37-3.76,2.8-5.59,4.25A2.32,2.32,0,0,1,358.39,198.07ZM373.6,187.2a2.31,2.31,0,0,1-1.89-.95,2.1,2.1,0,0,1,.61-3c2-1.3,4.09-2.58,6.15-3.8a2.33,2.33,0,0,1,3.12.69,2.1,2.1,0,0,1-.72,3c-2,1.19-4,2.44-6,3.71A2.37,2.37,0,0,1,373.6,187.2Zm205.21-6.63a2.36,2.36,0,0,1-1.14-.29c-2-1.14-4.16-2.26-6.26-3.32a2.12,2.12,0,0,1-.93-2.93,2.33,2.33,0,0,1,3.07-.89c2.15,1.09,4.3,2.24,6.41,3.4a2.11,2.11,0,0,1,.82,3A2.31,2.31,0,0,1,578.81,180.57Zm-189-2.76a2.3,2.3,0,0,1-2-1.13,2.12,2.12,0,0,1,.92-2.93c2.14-1.11,4.33-2.19,6.5-3.21a2.32,2.32,0,0,1,3,1,2.12,2.12,0,0,1-1,2.9c-2.12,1-4.26,2.05-6.35,3.13A2.29,2.29,0,0,1,389.84,177.81Zm172.08-5.57a2.43,2.43,0,0,1-.94-.19c-2.16-.94-4.37-1.85-6.57-2.72a2.12,2.12,0,0,1-1.24-2.82,2.32,2.32,0,0,1,3-1.18c2.26.89,4.53,1.83,6.73,2.79A2.12,2.12,0,0,1,564,171,2.29,2.29,0,0,1,561.92,172.24ZM407,170a2.28,2.28,0,0,1-2.1-1.32,2.13,2.13,0,0,1,1.22-2.83c2.23-.89,4.52-1.76,6.79-2.58a2.32,2.32,0,0,1,2.93,1.26,2.14,2.14,0,0,1-1.33,2.79c-2.22.79-4.45,1.64-6.63,2.52A2.48,2.48,0,0,1,407,170Zm137.28-4.43a2.39,2.39,0,0,1-.74-.12c-2.25-.73-4.55-1.43-6.82-2.08a2.14,2.14,0,0,1-1.52-2.69,2.29,2.29,0,0,1,2.82-1.45c2.33.67,4.68,1.38,7,2.13a2.13,2.13,0,0,1,1.41,2.74A2.26,2.26,0,0,1,544.25,165.55Zm-119.44-1.74a2.27,2.27,0,0,1-2.17-1.53,2.14,2.14,0,0,1,1.5-2.7c2.33-.68,4.7-1.33,7.05-1.93a2.29,2.29,0,0,1,2.78,1.53,2.16,2.16,0,0,1-1.61,2.65c-2.29.58-4.6,1.21-6.88,1.88A2.27,2.27,0,0,1,424.81,163.81ZM526,160.55a2.35,2.35,0,0,1-.52-.05c-2.31-.52-4.67-1-7-1.43a2.17,2.17,0,0,1-1.79-2.54,2.26,2.26,0,0,1,2.66-1.7c2.39.44,4.81.93,7.18,1.46a2.16,2.16,0,0,1,1.69,2.6A2.26,2.26,0,0,1,526,160.55Zm-82.73-1.22A2.24,2.24,0,0,1,441,157.6a2.16,2.16,0,0,1,1.78-2.54c2.38-.46,4.81-.89,7.21-1.26a2.26,2.26,0,0,1,2.61,1.78,2.18,2.18,0,0,1-1.88,2.48c-2.34.37-4.71.78-7,1.23A2.38,2.38,0,0,1,443.23,159.33Zm64-2-.31,0c-2.35-.3-4.74-.55-7.12-.77a2.19,2.19,0,0,1-2-2.35,2.23,2.23,0,0,1,2.47-1.95c2.43.22,4.88.48,7.29.79a2.17,2.17,0,0,1,1.95,2.42A2.23,2.23,0,0,1,507.25,157.3ZM462,156.62a2.23,2.23,0,0,1-2.26-1.94,2.19,2.19,0,0,1,2-2.37c2.41-.23,4.87-.42,7.31-.57a2.23,2.23,0,0,1,2.41,2,2.2,2.2,0,0,1-2.13,2.29c-2.37.15-4.78.33-7.13.56Zm26.24-.82h-.08c-2.22-.08-4.47-.11-6.67-.11H481a2.17,2.17,0,1,1,0-4.33h.5c2.26,0,4.55,0,6.83.12a2.16,2.16,0,1,1-.08,4.32Z"
        transform="translate(0 -15)"/>
  <path class="cls-15"
        d="M591.88,188.5a2.25,2.25,0,0,1-1.29-.39c-1-.65-2-1.29-3-1.92a2.1,2.1,0,0,1-.62-3,2.32,2.32,0,0,1,3.14-.59c1,.64,2,1.3,3,2a2.08,2.08,0,0,1,.56,3A2.27,2.27,0,0,1,591.88,188.5Z"
        transform="translate(0 -15)"/>
  <path class="cls-16"
        d="M671.73,306.31a2.25,2.25,0,0,1-2.23-1.77c-.21-1.12-.44-2.24-.68-3.35a2.17,2.17,0,0,1,1.77-2.55,2.27,2.27,0,0,1,2.68,1.69c.24,1.14.48,2.28.7,3.43a2.17,2.17,0,0,1-1.83,2.51A1.84,1.84,0,0,1,671.73,306.31Z"
        transform="translate(0 -15)"/>
  <path class="cls-17"
        d="M483.26,523.53a2.16,2.16,0,1,1,0-4.32c2.34,0,4.71-.07,7.05-.17a2.23,2.23,0,0,1,2.36,2.07,2.2,2.2,0,0,1-2.17,2.25c-2.39.1-4.82.16-7.21.17Zm-11.59-.25h-.12l-3.31-.19-3.9-.3a2.19,2.19,0,0,1-2.06-2.34,2.23,2.23,0,0,1,2.46-2c1.27.11,2.54.2,3.81.29l3.24.18a2.16,2.16,0,1,1-.12,4.32Zm30.27-.73a2.24,2.24,0,0,1-2.26-1.94,2.19,2.19,0,0,1,2-2.37c2.33-.23,4.69-.51,7-.82a2.26,2.26,0,0,1,2.57,1.84,2.19,2.19,0,0,1-1.93,2.44c-2.36.32-4.77.6-7.16.84Zm-48.91-1-.34,0c-2.38-.34-4.77-.72-7.12-1.14a2.17,2.17,0,0,1-1.81-2.52,2.26,2.26,0,0,1,2.65-1.73c2.29.41,4.63.78,6.95,1.11a2.18,2.18,0,0,1,1.91,2.46A2.23,2.23,0,0,1,453,521.5Zm67.41-1.65a2.25,2.25,0,0,1-2.22-1.73,2.17,2.17,0,0,1,1.77-2.55c2.29-.45,4.61-.94,6.88-1.47a2.28,2.28,0,0,1,2.74,1.59,2.16,2.16,0,0,1-1.67,2.61c-2.32.54-4.69,1.05-7,1.5A2.49,2.49,0,0,1,520.44,519.85ZM434.66,518a2.64,2.64,0,0,1-.55-.06c-2.33-.56-4.68-1.16-7-1.79a2.16,2.16,0,0,1-1.55-2.68A2.29,2.29,0,0,1,428.4,512c2.25.62,4.54,1.21,6.81,1.75a2.15,2.15,0,0,1,1.65,2.62A2.24,2.24,0,0,1,434.66,518Zm103.92-2.58a2.27,2.27,0,0,1-2.17-1.53,2.14,2.14,0,0,1,1.5-2.7c2.23-.66,4.48-1.36,6.68-2.09a2.3,2.3,0,0,1,2.89,1.33,2.14,2.14,0,0,1-1.4,2.75c-2.25.75-4.55,1.47-6.83,2.14A2.27,2.27,0,0,1,538.58,515.44Zm-121.84-2.58a2.21,2.21,0,0,1-.76-.13c-2.26-.76-4.53-1.58-6.76-2.43a2.13,2.13,0,0,1-1.27-2.8,2.32,2.32,0,0,1,2.95-1.21c2.18.83,4.4,1.63,6.6,2.37a2.14,2.14,0,0,1,1.38,2.76A2.28,2.28,0,0,1,416.74,512.86Zm139.4-3.48a2.27,2.27,0,0,1-2.09-1.33,2.13,2.13,0,0,1,1.22-2.83c2.15-.86,4.32-1.76,6.44-2.7a2.31,2.31,0,0,1,3,1.06,2.11,2.11,0,0,1-1.11,2.86c-2.17,1-4.39,1.89-6.59,2.77A2.46,2.46,0,0,1,556.14,509.38Zm-156.71-3.32a2.35,2.35,0,0,1-1-.21c-2.17-1-4.35-2-6.47-3a2.12,2.12,0,0,1-1-2.92,2.33,2.33,0,0,1,3.06-.92c2.08,1,4.2,2,6.33,3a2.12,2.12,0,0,1,1.08,2.88A2.28,2.28,0,0,1,399.43,506.06ZM573,501.72a2.28,2.28,0,0,1-2-1.14,2.11,2.11,0,0,1,.93-2.93c2-1,4.12-2.15,6.14-3.28a2.33,2.33,0,0,1,3.1.77,2.11,2.11,0,0,1-.81,3c-2.06,1.15-4.18,2.28-6.29,3.36A2.38,2.38,0,0,1,573,501.72Zm-190.12-4a2.39,2.39,0,0,1-1.16-.3c-2.06-1.17-4.12-2.39-6.13-3.63a2.1,2.1,0,0,1-.68-3,2.34,2.34,0,0,1,3.14-.64c2,1.21,4,2.41,6,3.55a2.1,2.1,0,0,1,.79,3A2.29,2.29,0,0,1,382.9,497.68Zm206.15-5.14a2.32,2.32,0,0,1-1.89-1,2.11,2.11,0,0,1,.63-3c1.94-1.23,3.88-2.52,5.78-3.83a2.34,2.34,0,0,1,3.17.48,2.1,2.1,0,0,1-.51,3c-1.94,1.34-3.93,2.66-5.92,3.92A2.31,2.31,0,0,1,589.05,492.54Zm15-10.62a2.33,2.33,0,0,1-1.76-.79,2.09,2.09,0,0,1,.32-3c1.81-1.4,3.62-2.87,5.37-4.34a2.35,2.35,0,0,1,3.21.19A2.09,2.09,0,0,1,611,477c-1.8,1.51-3.65,3-5.5,4.45A2.31,2.31,0,0,1,604.08,481.92ZM618,470a2.28,2.28,0,0,1-1.61-.64,2.08,2.08,0,0,1,0-3c1.66-1.58,3.31-3.2,4.9-4.82a2.35,2.35,0,0,1,3.21-.11,2.09,2.09,0,0,1,.11,3.06c-1.63,1.66-3.32,3.32-5,4.93A2.35,2.35,0,0,1,618,470Zm12.62-13.17a2.37,2.37,0,0,1-1.45-.49,2.1,2.1,0,0,1-.3-3.05c1.5-1.72,3-3.48,4.4-5.25a2.36,2.36,0,0,1,3.19-.4,2.09,2.09,0,0,1,.41,3c-1.45,1.81-3,3.62-4.5,5.38A2.3,2.3,0,0,1,630.6,456.81Zm11.24-14.27a2.34,2.34,0,0,1-1.27-.37,2.1,2.1,0,0,1-.61-3c1.31-1.85,2.61-3.75,3.85-5.64a2.33,2.33,0,0,1,3.12-.69,2.1,2.1,0,0,1,.73,3c-1.27,1.93-2.59,3.87-3.94,5.77A2.3,2.3,0,0,1,641.84,442.54Zm9.73-15.25a2.32,2.32,0,0,1-1.08-.26,2.11,2.11,0,0,1-.91-2.93c1.12-2,2.21-4,3.25-6a2.32,2.32,0,0,1,3-1,2.11,2.11,0,0,1,1,2.9c-1.07,2.05-2.19,4.11-3.33,6.11A2.29,2.29,0,0,1,651.57,427.29Zm8.13-16.09a2.29,2.29,0,0,1-.88-.17,2.13,2.13,0,0,1-1.21-2.83c.92-2.06,1.8-4.16,2.63-6.25a2.32,2.32,0,0,1,2.93-1.25,2.13,2.13,0,0,1,1.32,2.78c-.86,2.14-1.76,4.3-2.69,6.4A2.28,2.28,0,0,1,659.7,411.2Zm6.44-16.75a2.22,2.22,0,0,1-.67-.1,2.14,2.14,0,0,1-1.49-2.71c.69-2.13,1.35-4.29,2-6.44a2.28,2.28,0,0,1,2.78-1.52,2.16,2.16,0,0,1,1.6,2.65c-.63,2.2-1.31,4.42-2,6.6A2.27,2.27,0,0,1,666.14,394.45Zm4.69-17.26a2.38,2.38,0,0,1-.46,0,2.16,2.16,0,0,1-1.76-2.56c.47-2.18.91-4.4,1.3-6.59a2.26,2.26,0,0,1,2.62-1.77,2.18,2.18,0,0,1,1.86,2.49c-.4,2.24-.85,4.52-1.34,6.75A2.24,2.24,0,0,1,670.83,377.19Zm2.91-17.6h-.24a2.2,2.2,0,0,1-2-2.39c.26-2.2.47-4.45.64-6.68a2.23,2.23,0,0,1,2.43-2,2.19,2.19,0,0,1,2.1,2.31c-.18,2.28-.4,4.58-.65,6.84A2.24,2.24,0,0,1,673.74,359.59Zm1.13-17.79h0a2.23,2.23,0,0,1-2.24-2.19c0-.79,0-1.57,0-2.35,0-1.46,0-2.91-.06-4.37a2.27,2.27,0,0,1,4.54-.1q.06,2.23.06,4.47c0,.8,0,1.6,0,2.4A2.22,2.22,0,0,1,674.87,341.8ZM674.21,324a2.23,2.23,0,0,1-2.26-2c-.2-2.22-.44-4.47-.72-6.68a2.18,2.18,0,0,1,2-2.4,2.24,2.24,0,0,1,2.52,1.88c.29,2.26.54,4.56.74,6.84A2.19,2.19,0,0,1,674.4,324Z"
        transform="translate(0 -15)"/>
  <path class="cls-18"
        d="M367.24,487.77a2.32,2.32,0,0,1-1.35-.42c-1-.69-2-1.39-2.93-2.1a2.08,2.08,0,0,1-.42-3,2.34,2.34,0,0,1,3.18-.4c.95.69,1.9,1.38,2.86,2.05a2.09,2.09,0,0,1,.48,3A2.28,2.28,0,0,1,367.24,487.77Z"
        transform="translate(0 -15)"/>
  <path class="cls-19"
        d="M377.42,438a2.37,2.37,0,0,0,2.59.67l26.49-9.27a125.15,125.15,0,0,0,35.06,18L448,473.46a2.27,2.27,0,0,0,2,1.69l33.67,3.25a2.32,2.32,0,0,0,2.34-1.27l11.83-24.37A127.35,127.35,0,0,0,536,441.84L560,456a2.42,2.42,0,0,0,2.69-.16l26.22-20.38a2.15,2.15,0,0,0,.71-2.47l-9.74-25.22a115.42,115.42,0,0,0,18.88-33.38l27.45-6.15a2.26,2.26,0,0,0,1.78-1.93l3.41-32.06a2.2,2.2,0,0,0-1.34-2.23l-25.59-11.26A113,113,0,0,0,593,284.43l14.85-22.85a2.12,2.12,0,0,0-.17-2.55l-21.4-25a2.41,2.41,0,0,0-2.6-.68l-26.48,9.27a125,125,0,0,0-35.06-18l-6.46-26.14a2.28,2.28,0,0,0-2-1.69L480,193.6a2.34,2.34,0,0,0-2.33,1.27l-11.84,24.37a127.67,127.67,0,0,0-38.13,10.92L403.7,216a2.4,2.4,0,0,0-2.69.17l-26.22,20.37a2.14,2.14,0,0,0-.71,2.47l9.74,25.22a115.18,115.18,0,0,0-18.88,33.38l-27.45,6.15a2.25,2.25,0,0,0-1.78,1.93l-3.41,32.06a2.21,2.21,0,0,0,1.33,2.23l25.6,11.26a112.92,112.92,0,0,0,11.47,36.32l-14.86,22.84A2.12,2.12,0,0,0,356,413Z"
        transform="translate(0 -15)"/>
  <path class="cls-20"
        d="M481.79,366.35a32.67,32.67,0,0,1-18.94-6,29.93,29.93,0,0,1-12.52-19.93,29.07,29.07,0,0,1,5.94-22.53A32,32,0,0,1,477.21,306a32.84,32.84,0,0,1,23.65,5.67,29.92,29.92,0,0,1,12.52,19.93c2.56,16.55-9.5,32-26.88,34.44h0A34.12,34.12,0,0,1,481.79,366.35Zm.12-57.24a30.88,30.88,0,0,0-4.17.29A28.34,28.34,0,0,0,459.19,320a25.77,25.77,0,0,0-5.27,20A26.51,26.51,0,0,0,465,357.58a29.08,29.08,0,0,0,21,5c15.4-2.16,26.09-15.85,23.82-30.52a26.53,26.53,0,0,0-11.09-17.66A29,29,0,0,0,481.91,309.11Z"
        transform="translate(0 -15)"/>
  <path class="cls-21"
        d="M482.43,414.16q-4.15,0-8.38-.41h0a86.74,86.74,0,0,1-17.21-3.43.88.88,0,0,1-.63-.82.86.86,0,0,1,.05-.27.91.91,0,0,1,1.14-.56A84.36,84.36,0,0,0,474.23,412c44.32,4.27,84-26.57,88.49-68.75a73.87,73.87,0,0,0,.42-7.82c0-38.95-31.08-72.43-72.63-76.44-44.31-4.27-84,26.57-88.49,68.76a75.47,75.47,0,0,0-.41,7.8,73.61,73.61,0,0,0,7.62,32.58.81.81,0,0,1,.09.37.88.88,0,0,1-.52.78.93.93,0,0,1-1.21-.42,75.25,75.25,0,0,1-7.8-33.31,73.57,73.57,0,0,1,.43-8c4.59-43.13,45.18-74.66,90.47-70.3,42.48,4.1,74.25,38.34,74.26,78.15a77.13,77.13,0,0,1-.42,8C560.22,383.9,524.25,414.16,482.43,414.16Z"
        transform="translate(0 -15)"/>
  <path class="cls-22"
        d="M660.89,255.39l8.91-3.91a43.67,43.67,0,0,0,12.67,5.31l3,8.89a.78.78,0,0,0,.75.53l11.76.25a.81.81,0,0,0,.77-.5l3.4-8.76a44,44,0,0,0,12.9-4.79l8.72,4.28a.85.85,0,0,0,.93-.13l8.5-7.75a.74.74,0,0,0,.17-.88l-4.1-8.48a39.69,39.69,0,0,0,5.57-12.06l9.34-2.86a.77.77,0,0,0,.56-.71l.25-11.2a.77.77,0,0,0-.52-.74l-9.2-3.23a39.39,39.39,0,0,0-5-12.28l4.49-8.31a.74.74,0,0,0-.13-.88l-8.14-8.09a.85.85,0,0,0-.92-.17l-8.91,3.91A43.94,43.94,0,0,0,704,177.52l-3-8.89a.79.79,0,0,0-.75-.53l-11.76-.24a.8.8,0,0,0-.77.5l-3.4,8.76a43.83,43.83,0,0,0-12.9,4.78l-8.72-4.27a.84.84,0,0,0-.93.13l-8.49,7.75a.74.74,0,0,0-.18.87l4.11,8.48a39.66,39.66,0,0,0-5.58,12.07l-9.34,2.85a.79.79,0,0,0-.56.71l-.25,11.2a.76.76,0,0,0,.53.74l9.19,3.23a39.68,39.68,0,0,0,5,12.29l-4.49,8.3a.73.73,0,0,0,.14.88l8.13,8.1A.84.84,0,0,0,660.89,255.39Z"
        transform="translate(0 -15)"/>
  <path class="cls-23"
        d="M693.19,228a11.71,11.71,0,0,1-6-1.65,10.78,10.78,0,0,1-5-6.74,10.29,10.29,0,0,1,1.44-8.16,11.57,11.57,0,0,1,20.69,3.32,10.31,10.31,0,0,1-1.44,8.16,11.25,11.25,0,0,1-7.08,4.79h0A11.76,11.76,0,0,1,693.19,228Zm0-19.9a10.46,10.46,0,0,0-2.14.23,9.56,9.56,0,0,0-6,4,8.68,8.68,0,0,0-1.21,6.86,9,9,0,0,0,4.23,5.66,9.89,9.89,0,0,0,7.2,1.16h0a9.45,9.45,0,0,0,5.95-4,8.68,8.68,0,0,0,1.21-6.86A9.46,9.46,0,0,0,693.22,208.07Z"
        transform="translate(0 -15)"/>
  <g class="cls-24">
    <path class="cls-25"
          d="M640.45,252.25a2.3,2.3,0,0,1-1.9-1c-.68-1-1.35-2-2-3.05a2.1,2.1,0,0,1,.83-2.95,2.33,2.33,0,0,1,3.1.79c.58,1,1.2,1.92,1.83,2.84a2.09,2.09,0,0,1-.65,3A2.32,2.32,0,0,1,640.45,252.25Z"
          transform="translate(0 -15)"/>
    <path class="cls-26"
          d="M633.58,238.89a2.27,2.27,0,0,1-2.15-1.46,61,61,0,0,1-1.9-6.35l-.16-.68a2.16,2.16,0,0,1,1.73-2.57,2.27,2.27,0,0,1,2.7,1.65l.15.63a56.65,56.65,0,0,0,1.77,5.91,2.14,2.14,0,0,1-1.41,2.75A2.33,2.33,0,0,1,633.58,238.89Zm-3.43-18.15a2.22,2.22,0,0,1-2.27-2.11c0-.51,0-1,0-1.53,0-1.91.09-3.86.28-5.76a2.24,2.24,0,0,1,2.47-2,2.19,2.19,0,0,1,2,2.35c-.17,1.77-.26,3.58-.26,5.36,0,.48,0,1,0,1.43a2.21,2.21,0,0,1-2.22,2.21Zm2.52-18.28a2.29,2.29,0,0,1-.64-.08,2.14,2.14,0,0,1-1.54-2.68,59.43,59.43,0,0,1,2.58-6.88,2.32,2.32,0,0,1,3-1.14,2.13,2.13,0,0,1,1.2,2.84,56.58,56.58,0,0,0-2.41,6.39A2.25,2.25,0,0,1,632.67,202.46Zm8.22-16.68a2.29,2.29,0,0,1-1.26-.37,2.1,2.1,0,0,1-.62-3,62.69,62.69,0,0,1,4.64-5.8,2.35,2.35,0,0,1,3.2-.24,2.1,2.1,0,0,1,.25,3,57.08,57.08,0,0,0-4.32,5.4A2.32,2.32,0,0,1,640.89,185.78ZM654,172.24a2.32,2.32,0,0,1-1.78-.81,2.1,2.1,0,0,1,.36-3,65.77,65.77,0,0,1,6.27-4.19,2.35,2.35,0,0,1,3.13.7,2.12,2.12,0,0,1-.74,3,60.44,60.44,0,0,0-5.84,3.89A2.27,2.27,0,0,1,654,172.24Zm16.82-9.09a2.27,2.27,0,0,1-2.12-1.39,2.14,2.14,0,0,1,1.32-2.79,67.69,67.69,0,0,1,7.32-2.17,2.28,2.28,0,0,1,2.75,1.57,2.16,2.16,0,0,1-1.65,2.62,65.1,65.1,0,0,0-6.81,2A2.3,2.3,0,0,1,670.85,163.15Zm26.35-3.79h-.15c-1.25-.08-2.52-.11-3.78-.11s-2.24,0-3.35.09a2.25,2.25,0,0,1-2.39-2,2.21,2.21,0,0,1,2.14-2.28c1.2-.06,2.41-.11,3.6-.09,1.35,0,2.72,0,4.07.12a2.19,2.19,0,0,1,2.12,2.29A2.22,2.22,0,0,1,697.2,159.36Z"
          transform="translate(0 -15)"/>
    <path class="cls-27"
          d="M712.58,162.15a2.47,2.47,0,0,1-.7-.1c-1.1-.34-2.23-.66-3.35-.94a2.15,2.15,0,0,1-1.63-2.63,2.29,2.29,0,0,1,2.77-1.55c1.21.3,2.43.64,3.61,1a2.15,2.15,0,0,1,1.46,2.73A2.26,2.26,0,0,1,712.58,162.15Z"
          transform="translate(0 -15)"/>
  </g>
  <g class="cls-24">
    <path class="cls-28"
          d="M750.35,193.84a2.29,2.29,0,0,1-2.06-1.25c-.49-1-1-2-1.57-3a2.12,2.12,0,0,1,.92-2.93,2.32,2.32,0,0,1,3.07.88c.6,1,1.17,2.12,1.7,3.2a2.12,2.12,0,0,1-1.1,2.87A2.33,2.33,0,0,1,750.35,193.84Z"
          transform="translate(0 -15)"/>
    <path class="cls-29"
          d="M693.16,279.39a68.19,68.19,0,0,1-7.29-.39,2.19,2.19,0,0,1-2-2.39,2.25,2.25,0,0,1,2.51-1.91,63.89,63.89,0,0,0,6.78.37h.23a2.16,2.16,0,1,1,0,4.32Zm12-1.1a2.25,2.25,0,0,1-2.22-1.75,2.16,2.16,0,0,1,1.8-2.53l2.09-.42c1.59-.35,3.17-.76,4.71-1.22a2.29,2.29,0,0,1,2.85,1.41,2.15,2.15,0,0,1-1.49,2.71c-1.65.5-3.35.94-5,1.31-.75.16-1.5.31-2.26.45A2.09,2.09,0,0,1,705.15,278.29Zm18-6.07a2.29,2.29,0,0,1-2-1.13,2.11,2.11,0,0,1,.93-2.93,61.31,61.31,0,0,0,6-3.5,2.34,2.34,0,0,1,3.16.54,2.09,2.09,0,0,1-.56,3,68.59,68.59,0,0,1-6.42,3.76A2.44,2.44,0,0,1,723.1,272.22Zm15.21-10.9a2.27,2.27,0,0,1-1.58-.62,2.08,2.08,0,0,1,0-3.05,60.93,60.93,0,0,0,4.6-5,2.35,2.35,0,0,1,3.19-.39,2.09,2.09,0,0,1,.4,3,63.33,63.33,0,0,1-5,5.42A2.32,2.32,0,0,1,738.31,261.32Zm11.1-14.73a2.39,2.39,0,0,1-1-.24,2.11,2.11,0,0,1-1-2.9,58.38,58.38,0,0,0,2.83-6.12,2.3,2.3,0,0,1,2.92-1.27,2.13,2.13,0,0,1,1.33,2.78,62.82,62.82,0,0,1-3,6.57A2.3,2.3,0,0,1,749.41,246.59Zm6-17.21a2.34,2.34,0,0,1-.38,0,2.18,2.18,0,0,1-1.86-2.5,54.88,54.88,0,0,0,.77-6.64,2.28,2.28,0,0,1,4.54.23,61.49,61.49,0,0,1-.84,7.14A2.24,2.24,0,0,1,755.42,229.38Zm.3-18.14a2.24,2.24,0,0,1-2.25-1.87c-.24-1.72-.58-3.46-1-5.17-.11-.46-.23-.93-.35-1.39a2.15,2.15,0,0,1,1.64-2.63,2.27,2.27,0,0,1,2.75,1.57c.14.49.26,1,.38,1.48.45,1.84.8,3.71,1.07,5.56a2.18,2.18,0,0,1-1.94,2.43A1.62,1.62,0,0,1,755.72,211.24Z"
          transform="translate(0 -15)"/>
    <path class="cls-30"
          d="M674.52,276.69a2.22,2.22,0,0,1-.67-.1c-1.19-.35-2.38-.74-3.56-1.16a2.14,2.14,0,0,1-1.33-2.78,2.31,2.31,0,0,1,2.93-1.27c1.09.39,2.2.76,3.31,1.08a2.16,2.16,0,0,1,1.49,2.71A2.27,2.27,0,0,1,674.52,276.69Z"
          transform="translate(0 -15)"/>
  </g>
  <path class="cls-31"
        d="M693.23,245.05h-.65a31.23,31.23,0,0,1-5.72-.65l-.46-.11a.87.87,0,0,1-.7-.84,1.5,1.5,0,0,1,0-.2.92.92,0,0,1,1.1-.64,28.84,28.84,0,0,0,5.8.71h.61c14.44,0,26.42-10.72,27.4-24.36,0-.42,0-.83.06-1.25,0-.19,0-.38,0-.57,0-14.17-11.94-25.85-26.89-26.16-15.15-.31-27.74,11.17-28.07,25.6,0,.19,0,.38,0,.57a25.17,25.17,0,0,0,3.6,13,.81.81,0,0,1,.12.42.85.85,0,0,1-.46.75.92.92,0,0,1-1.24-.32,26.83,26.83,0,0,1-3.83-13.8v-.61c.35-15.38,13.77-27.62,29.93-27.28,15.94.32,28.67,12.78,28.67,27.88,0,.2,0,.41,0,.61a27.12,27.12,0,0,1-9,19.54A29.83,29.83,0,0,1,693.23,245.05Z"
        transform="translate(0 -15)"/>
  <g class="cls-24">
    <path class="cls-32"
          d="M187.41,461.84a.9.9,0,0,1-.87-.62c-.21-.69-.42-1.4-.61-2.1a.86.86,0,0,1,.65-1.06.92.92,0,0,1,1.11.62c.19.69.39,1.37.6,2.06a.87.87,0,0,1-.62,1.07A1.09,1.09,0,0,1,187.41,461.84Z"
          transform="translate(0 -15)"/>
    <path class="cls-33"
          d="M185.81,455.64a.9.9,0,0,1-.89-.69c-.29-1.39-.54-2.81-.74-4.22a.88.88,0,0,1,.77-1,.92.92,0,0,1,1,.74c.2,1.38.44,2.76.73,4.12a.88.88,0,0,1-.72,1Zm-1.21-8.37a.9.9,0,0,1-.91-.8c-.11-1.41-.19-2.85-.22-4.27a.88.88,0,0,1,.89-.88.89.89,0,0,1,.93.84c0,1.39.1,2.8.21,4.18a.88.88,0,0,1-.83.93Zm-.18-8.45h0a.9.9,0,0,1-.88-.9c0-.76.08-1.53.13-2.3s.11-1.31.17-2a.91.91,0,0,1,1-.78.88.88,0,0,1,.82.95c-.06.63-.12,1.28-.16,1.92s-.1,1.5-.13,2.25A.89.89,0,0,1,184.42,438.82Zm.85-8.42h-.14a.87.87,0,0,1-.76-1c.23-1.41.51-2.82.82-4.21a.9.9,0,0,1,1.08-.66.86.86,0,0,1,.69,1c-.3,1.35-.57,2.73-.79,4.1A.9.9,0,0,1,185.27,430.4Zm1.87-8.26-.25,0a.86.86,0,0,1-.63-1.06c.4-1.37.85-2.74,1.33-4.09a.93.93,0,0,1,1.16-.54.86.86,0,0,1,.56,1.1c-.47,1.31-.91,2.66-1.3,4A.89.89,0,0,1,187.14,422.14Zm2.87-8a.83.83,0,0,1-.34-.07.84.84,0,0,1-.5-1.12c.57-1.32,1.18-2.64,1.83-3.92a.92.92,0,0,1,1.21-.4.84.84,0,0,1,.43,1.15c-.63,1.25-1.23,2.53-1.79,3.82A.9.9,0,0,1,190,414.15Zm3.85-7.63a1,1,0,0,1-.44-.11.85.85,0,0,1-.35-1.18c.72-1.24,1.5-2.48,2.3-3.68a.93.93,0,0,1,1.25-.26.84.84,0,0,1,.28,1.19c-.78,1.17-1.54,2.38-2.24,3.59A.92.92,0,0,1,193.86,406.52Zm4.77-7.14a.93.93,0,0,1-.53-.17.83.83,0,0,1-.21-1.2c.87-1.16,1.79-2.3,2.74-3.4a.92.92,0,0,1,1.27-.12.83.83,0,0,1,.13,1.21c-.92,1.08-1.81,2.19-2.67,3.32A.91.91,0,0,1,198.63,399.38Zm5.6-6.56a.93.93,0,0,1-.61-.23.83.83,0,0,1-.06-1.22c1-1.05,2.06-2.08,3.13-3.07a1,1,0,0,1,1.29,0,.83.83,0,0,1,0,1.22c-1.05,1-2.07,2-3.06,3A1,1,0,0,1,204.23,392.82Zm6.37-5.89a.93.93,0,0,1-.69-.3.84.84,0,0,1,.1-1.22c1.13-.93,2.3-1.84,3.48-2.7a.93.93,0,0,1,1.27.16.83.83,0,0,1-.17,1.21c-1.15.84-2.29,1.73-3.4,2.64A.93.93,0,0,1,210.6,386.93Zm7-5.15a.93.93,0,0,1-.75-.37.85.85,0,0,1,.24-1.21c1.24-.79,2.51-1.57,3.79-2.29a.92.92,0,0,1,1.24.3.83.83,0,0,1-.31,1.18c-1.25.71-2.49,1.46-3.7,2.25A.94.94,0,0,1,217.64,381.78Zm80-3a1,1,0,0,1-.45-.11c-1.26-.69-2.56-1.35-3.87-2a.85.85,0,0,1-.42-1.16.93.93,0,0,1,1.22-.39c1.34.63,2.68,1.3,4,2a.84.84,0,0,1,.34,1.18A.94.94,0,0,1,297.65,378.8Zm-72.39-1.34a.92.92,0,0,1-.81-.47.85.85,0,0,1,.39-1.16c1.32-.66,2.68-1.28,4-1.86a.92.92,0,0,1,1.2.43.84.84,0,0,1-.45,1.14c-1.33.57-2.66,1.18-3.95,1.82A.92.92,0,0,1,225.26,377.46Zm64.43-2.41a1,1,0,0,1-.35-.06c-1.34-.54-2.72-1.05-4.09-1.52a.85.85,0,0,1-.55-1.1.92.92,0,0,1,1.16-.53c1.4.48,2.81,1,4.18,1.55a.86.86,0,0,1,.49,1.14A.92.92,0,0,1,289.69,375.05Zm-56.34-1a.91.91,0,0,1-.85-.56.85.85,0,0,1,.53-1.11c1.4-.51,2.82-1,4.24-1.4a.92.92,0,0,1,1.14.57.85.85,0,0,1-.6,1.08c-1.38.41-2.77.87-4.14,1.36A.87.87,0,0,1,233.35,374Zm48-1.78a1.17,1.17,0,0,1-.26,0c-1.39-.38-2.82-.74-4.25-1a.87.87,0,0,1-.68-1,.91.91,0,0,1,1.09-.65c1.46.32,2.92.68,4.35,1.07a.86.86,0,0,1,.62,1.07A.91.91,0,0,1,281.33,372.23Zm-39.51-.74a.89.89,0,0,1-.88-.66.85.85,0,0,1,.66-1c1.45-.35,2.93-.65,4.39-.91a.9.9,0,0,1,1.06.69.86.86,0,0,1-.73,1c-1.43.26-2.87.56-4.28.89Zm30.85-1.14h-.15c-1.44-.23-2.9-.42-4.35-.56a.87.87,0,1,1,.19-1.72c1.49.15,3,.34,4.46.58a.86.86,0,0,1,.74,1A.89.89,0,0,1,272.67,370.35Zm-22.13-.42a.86.86,0,0,1-.11-1.72c1.48-.18,3-.31,4.47-.41a.87.87,0,1,1,.12,1.73c-1.45.09-2.92.22-4.36.4Zm13.3-.48h0c-1.23-.06-2.48-.09-3.72-.09h-.67a.87.87,0,1,1,0-1.73h.68c1.27,0,2.55,0,3.81.09a.87.87,0,1,1,0,1.73Z"
          transform="translate(0 -15)"/>
    <path class="cls-34"
          d="M303.37,382.24a.91.91,0,0,1-.52-.16c-.61-.4-1.23-.8-1.86-1.19a.83.83,0,0,1-.26-1.19.93.93,0,0,1,1.25-.26l1.91,1.22a.84.84,0,0,1,.22,1.21A.91.91,0,0,1,303.37,382.24Z"
          transform="translate(0 -15)"/>
  </g>
  <g class="cls-24">
    <path class="cls-35"
          d="M334.84,429.25a.9.9,0,0,1-.89-.72c-.13-.7-.26-1.4-.41-2.1a.87.87,0,0,1,.71-1,.91.91,0,0,1,1.07.68c.15.71.29,1.43.42,2.15a.88.88,0,0,1-.74,1Z"
          transform="translate(0 -15)"/>
    <path class="cls-36"
          d="M258.92,513.67h0c-1.35,0-2.71-.08-4.05-.17l-.6,0a.87.87,0,0,1-.83-.92.89.89,0,0,1,1-.8l.58,0c1.31.09,2.64.14,4,.16a.87.87,0,1,1,0,1.73Zm4.59-.06a.86.86,0,1,1,0-1.72c1.5-.07,3-.17,4.52-.32a.87.87,0,1,1,.19,1.72c-1.54.15-3.1.26-4.64.32ZM249.76,513h-.12c-1.54-.2-3.08-.44-4.59-.73a.87.87,0,0,1-.71-1,.91.91,0,0,1,1.07-.68c1.47.28,3,.52,4.47.72a.87.87,0,0,1,.78,1A.89.89,0,0,1,249.76,513Zm22.89-.29a.9.9,0,0,1-.9-.72.87.87,0,0,1,.75-1c1.49-.23,3-.52,4.45-.84a.92.92,0,0,1,1.09.65.87.87,0,0,1-.68,1c-1.5.33-3,.61-4.56.86Zm-31.9-1.42-.23,0c-1.5-.38-3-.8-4.46-1.26a.85.85,0,0,1-.57-1.09.91.91,0,0,1,1.14-.55c1.43.45,2.89.86,4.35,1.23a.86.86,0,0,1,.65,1.06A.91.91,0,0,1,240.75,511.29Zm40.85-.54a.89.89,0,0,1-.87-.62.84.84,0,0,1,.61-1.07c1.44-.41,2.89-.86,4.3-1.35a.93.93,0,0,1,1.17.52.85.85,0,0,1-.55,1.1c-1.45.51-2.93,1-4.41,1.38A.73.73,0,0,1,281.6,510.75ZM232,508.55a1,1,0,0,1-.34-.06c-1.43-.55-2.86-1.14-4.26-1.77a.84.84,0,0,1-.43-1.15.91.91,0,0,1,1.2-.41c1.37.61,2.77,1.19,4.17,1.72a.86.86,0,0,1,.5,1.13A.91.91,0,0,1,232,508.55Zm58.19-.78a.92.92,0,0,1-.84-.52.84.84,0,0,1,.48-1.13c1.38-.57,2.76-1.19,4.1-1.84a.93.93,0,0,1,1.22.38.84.84,0,0,1-.4,1.16c-1.37.67-2.79,1.3-4.2,1.88A.92.92,0,0,1,290.22,507.77Zm-66.5-2.95a.92.92,0,0,1-.43-.11c-1.36-.71-2.71-1.46-4-2.25a.84.84,0,0,1-.28-1.19.94.94,0,0,1,1.25-.27c1.27.76,2.59,1.5,3.91,2.19a.85.85,0,0,1,.36,1.18A.94.94,0,0,1,223.72,504.82Zm74.68-1a.89.89,0,0,1-.78-.43.83.83,0,0,1,.32-1.18c1.3-.72,2.59-1.5,3.84-2.29a.94.94,0,0,1,1.26.23.84.84,0,0,1-.25,1.2c-1.28.82-2.6,1.61-3.93,2.35A1,1,0,0,1,298.4,503.82ZM306,499a.94.94,0,0,1-.73-.34.85.85,0,0,1,.18-1.22c1.19-.86,2.38-1.78,3.52-2.72a.93.93,0,0,1,1.28.1.82.82,0,0,1-.09,1.21c-1.17,1-2.39,1.9-3.62,2.79A.9.9,0,0,1,306,499Zm7-5.71a1,1,0,0,1-.65-.26.83.83,0,0,1,0-1.22c1.08-1,2.14-2,3.16-3.11a.93.93,0,0,1,1.28-.05.83.83,0,0,1,.06,1.22c-1,1.08-2.13,2.15-3.23,3.18A1,1,0,0,1,313,493.25Zm6.19-6.46a.93.93,0,0,1-.57-.19.84.84,0,0,1-.13-1.22c.94-1.11,1.86-2.27,2.74-3.44a1,1,0,0,1,1.27-.21.85.85,0,0,1,.21,1.21q-1.35,1.8-2.81,3.53A.93.93,0,0,1,319.17,486.79Zm5.33-7.13a.91.91,0,0,1-.48-.13.83.83,0,0,1-.29-1.19c.8-1.22,1.57-2.48,2.28-3.74a.94.94,0,0,1,1.24-.35.84.84,0,0,1,.36,1.17c-.73,1.29-1.52,2.58-2.34,3.83A.93.93,0,0,1,324.5,479.66Zm4.38-7.7a.88.88,0,0,1-.82-1.23c.63-1.3,1.24-2.64,1.79-4a.91.91,0,0,1,1.17-.49.85.85,0,0,1,.52,1.12c-.57,1.37-1.19,2.74-1.84,4.07A.9.9,0,0,1,328.88,472Zm3.36-8.14a.9.9,0,0,1-.28,0,.85.85,0,0,1-.58-1.09c.46-1.36.89-2.76,1.26-4.15a.92.92,0,0,1,1.11-.62.86.86,0,0,1,.65,1.05c-.38,1.43-.82,2.86-1.3,4.25A.9.9,0,0,1,332.24,463.82Zm2.29-8.47h-.17a.88.88,0,0,1-.72-1c.29-1.4.53-2.83.73-4.26a.9.9,0,0,1,1-.74.86.86,0,0,1,.78,1c-.2,1.46-.45,2.93-.74,4.36A.9.9,0,0,1,334.53,455.35Zm1.21-8.66h-.07a.87.87,0,0,1-.84-.92v-.18c.1-1.37.16-2.76.18-4.14a.89.89,0,0,1,.91-.85h0a.88.88,0,0,1,.9.87c0,1.41-.08,2.84-.18,4.24l0,.19A.89.89,0,0,1,335.74,446.69Zm.1-8.75a.88.88,0,0,1-.9-.82c-.07-1.43-.19-2.88-.36-4.31a.88.88,0,0,1,.8-.95.92.92,0,0,1,1,.76c.16,1.46.29,2.95.36,4.42a.87.87,0,0,1-.86.9Z"
          transform="translate(0 -15)"/>
    <path class="cls-37"
          d="M215.92,500.12a.92.92,0,0,1-.53-.16c-.63-.43-1.24-.86-1.85-1.3a.84.84,0,0,1-.16-1.21.93.93,0,0,1,1.27-.16c.59.43,1.19.85,1.8,1.27a.83.83,0,0,1,.2,1.2A.89.89,0,0,1,215.92,500.12Z"
          transform="translate(0 -15)"/>
  </g>
  <path class="cls-38"
        d="M219.23,480.09a.94.94,0,0,0,1,.26l10.39-3.64a48.88,48.88,0,0,0,13.75,7.06L246.93,494a.87.87,0,0,0,.79.66L260.93,496a1,1,0,0,0,.92-.5l4.64-9.56a50.19,50.19,0,0,0,15-4.29l9.41,5.55a1,1,0,0,0,1.06-.06l10.29-8a.83.83,0,0,0,.27-1l-3.82-9.89a45.18,45.18,0,0,0,7.41-13.1l10.77-2.41a.89.89,0,0,0,.7-.76l1.33-12.58a.86.86,0,0,0-.52-.87l-10-4.42a44.37,44.37,0,0,0-4.5-14.24l5.83-9a.84.84,0,0,0-.07-1l-8.4-9.8a.94.94,0,0,0-1-.26l-10.39,3.64A48.88,48.88,0,0,0,276,396.41l-2.53-10.25a.89.89,0,0,0-.8-.66l-13.21-1.28a.93.93,0,0,0-.92.5l-4.64,9.56a50.06,50.06,0,0,0-15,4.29L229.54,393a1,1,0,0,0-1.06.06l-10.28,8a.83.83,0,0,0-.28,1l3.82,9.89a45.18,45.18,0,0,0-7.41,13.1l-10.77,2.41a.86.86,0,0,0-.69.76l-1.34,12.57a.87.87,0,0,0,.52.88l10,4.42a44.37,44.37,0,0,0,4.5,14.24l-5.83,9a.84.84,0,0,0,.07,1Z"
        transform="translate(0 -15)"/>
  <path class="cls-39"
        d="M260.17,452.18a13,13,0,0,1-7.54-2.39,11.86,11.86,0,0,1-5-7.94,11.56,11.56,0,0,1,2.37-9,12.73,12.73,0,0,1,8.34-4.75,13.12,13.12,0,0,1,9.42,2.25,11.9,11.9,0,0,1,5,7.95,11.53,11.53,0,0,1-2.37,9,12.73,12.73,0,0,1-8.34,4.75h0A13.2,13.2,0,0,1,260.17,452.18Zm.05-22.45a11.15,11.15,0,0,0-8.75,4.18,9.92,9.92,0,0,0-2,7.69,10.26,10.26,0,0,0,4.28,6.81,11.19,11.19,0,0,0,8.08,1.93h0a10.94,10.94,0,0,0,7.15-4.07,10,10,0,0,0,2-7.69,10.26,10.26,0,0,0-4.28-6.81A11.19,11.19,0,0,0,260.22,429.73Z"
        transform="translate(0 -15)"/>
  <path class="cls-40"
        d="M260.43,471.28c-1.11,0-2.22-.06-3.35-.16-.71-.07-1.42-.16-2.12-.28a32.3,32.3,0,0,1-4-.89l-.09,0-.61-.18a.87.87,0,0,1-.63-.83.82.82,0,0,1,0-.26.92.92,0,0,1,1.15-.56,32.89,32.89,0,0,0,6.49,1.3l.52,0h0A32.22,32.22,0,0,0,273,467h0l.07,0a31.07,31.07,0,0,0,6.56-3.77l.2-.15.09-.06.19-.15a29.1,29.1,0,0,0,11.29-20,28.46,28.46,0,0,0-6.86-21.73,31.41,31.41,0,0,0-21-10.75c-17.08-1.65-32.38,10.24-34.11,26.51a27.41,27.41,0,0,0-.16,3,28.35,28.35,0,0,0,2.94,12.56.83.83,0,0,1,.08.37.85.85,0,0,1-.52.78.93.93,0,0,1-1.21-.41,30.19,30.19,0,0,1-3.11-13.3,30.54,30.54,0,0,1,12.12-24.32,33.89,33.89,0,0,1,24.15-6.91,33.21,33.21,0,0,1,22.21,11.38,30.24,30.24,0,0,1,7.43,19.77,29,29,0,0,1-.18,3.22C291.47,459.2,277.12,471.28,260.43,471.28Z"
        transform="translate(0 -15)"/>
  <path class="cls-41"
        d="M272.92,260l-5.13,4.82a38.1,38.1,0,0,1-17.22-5.57c2.6-6.14,5.23-9.79,7.31-11.92A41.86,41.86,0,0,0,272.92,260Z"
        transform="translate(0 -15)"/>
  <path class="cls-42"
        d="M237.19,242l12.12-18a44.07,44.07,0,0,0,8.57,23.4c-2.08,2.13-4.71,5.78-7.31,11.92A31.7,31.7,0,0,1,237.19,242Z"
        transform="translate(0 -15)"/>
  <path class="cls-43"
        d="M224.31,384.5c6,.26,11.89.09,15.79-.1-3.55-2.41-11.74-7.65-18.59-9.73l-4.7-.27s-1.6,2.31-2.17,7.59C215.42,382.91,217.7,384.21,224.31,384.5Z"
        transform="translate(0 -15)"/>
  <path class="cls-44"
        d="M240.15,384.44l-.05,0c-3.9.19-9.75.36-15.79.1-6.61-.29-8.89-1.59-9.67-2.51,0,.24,0,.48-.07.74a2.12,2.12,0,0,0,2,2.26c4.95.36,17.21,1.17,23.12.87A.78.78,0,0,0,240.15,384.44Z"
        transform="translate(0 -15)"/>
  <path class="cls-45"
        d="M181.12,383c-.44-2.7-1.15-6.61-1.7-7.6-.86-1.57-3.8,0-3.8,0a7.7,7.7,0,0,0-3,2.44l-3.42,5.63a1.2,1.2,0,0,0-.17.67l11.78.4A2.17,2.17,0,0,0,181.12,383Z"
        transform="translate(0 -15)"/>
  <path class="cls-46" d="M169,384.1a1.3,1.3,0,0,0,1.3,1.24l8.4.22a2.39,2.39,0,0,0,2.08-1.06Z"
        transform="translate(0 -15)"/>
  <path class="cls-47"
        d="M182,366.38c-.1.33-1.62,7.36-2.29,10.44a1.85,1.85,0,0,1-1.9,1.41c-.5,0-1.08-.07-1.69-.14a2.17,2.17,0,0,1-1.94-2c-.11-2.7-.17-7.89.88-9.9C176.51,363.39,182,366.38,182,366.38Z"
        transform="translate(0 -15)"/>
  <path class="cls-48"
        d="M215.88,368.4c.65,0-.26,3.21.73,6.38a1.68,1.68,0,0,0,1.57,1.29c.51,0,1.11,0,1.72-.05a1.84,1.84,0,0,0,1.74-1.62l.81-8.24Z"
        transform="translate(0 -15)"/>
  <path class="cls-49"
        d="M234.15,280.86c-.29,1.35-10.58,58.49-11.21,88.05a1,1,0,0,1-.91,1,21.37,21.37,0,0,1-6.31,0,.71.71,0,0,1-.61-.65c-.36-5.51-3.26-52.09.29-74,0,0-29.26,58.62-33.69,74.78a.89.89,0,0,1-.91.64,23.16,23.16,0,0,1-5.93-1,1.48,1.48,0,0,1-1-1.74c2.48-9.67,19.84-76.31,31.63-91Z"
        transform="translate(0 -15)"/>
  <path class="cls-50"
        d="M215.4,295.55a.39.39,0,0,1-.27-.11.35.35,0,0,1,0-.51l3.92-3.82a.39.39,0,0,1,.54,0,.35.35,0,0,1,0,.51l-3.92,3.82A.43.43,0,0,1,215.4,295.55Z"
        transform="translate(0 -15)"/>
  <path class="cls-51"
        d="M250.87,209.33c-7.52-1.88-21.38-4.81-32.41-4.19a4.9,4.9,0,0,0-4.71,4.47c-1.66,28-3.94,52.81-8.23,67.25,9.64,3.63,19.2,5.32,28.63,4a292,292,0,0,0,18.51-49.93s3.1-15.06.09-20.08A3,3,0,0,0,250.87,209.33Z"
        transform="translate(0 -15)"/>
  <path class="cls-52"
        d="M232.79,189.73s-1.89,10.77-2.46,15.76a1.94,1.94,0,0,0,1.12,1.95,15.68,15.68,0,0,0,11.32,1.15,1.84,1.84,0,0,0,1.3-1.78l-.33-14.38Z"
        transform="translate(0 -15)"/>
  <path class="cls-53"
        d="M245.17,177.79s3.66,8,3.91,12.21,1.19,6.93-3.91,7.77A11,11,0,0,1,233.44,192s-3.65-6.45-2.83-9.09S245.17,177.79,245.17,177.79Z"
        transform="translate(0 -15)"/>
  <path class="cls-54"
        d="M235.18,189h.65s-2.66-5.19-.33-6.1,11.59-2.71,13.59-5.84a5.67,5.67,0,0,0-2.36-8,.35.35,0,0,0-.44.15l-.21.38a.35.35,0,0,1-.64-.06h0a.35.35,0,0,0-.62-.09c-.61.94-2.27,2.46-6.71,3.24-6.29,1.1-10.46,3.53-10.56,7.67a.34.34,0,0,1-.53.27,1.87,1.87,0,0,0-2.21.4c-1.73,1.39-1,5,2.77,7.93a.32.32,0,0,1,0,.53c-.68.43-1.71,1.44.95,2.79s4.32,1.23,4.93,1.08a.33.33,0,0,0,.26-.34l-.24-3.67a.34.34,0,0,1,.35-.35Z"
        transform="translate(0 -15)"/>
  <path class="cls-55" d="M235.34,189.77s-1.4-5.12-3.81-3.68,1.25,5.73,3.19,5.92Z" transform="translate(0 -15)"/>
  <path class="cls-4"
        d="M157.19,273l-4.94,1.19c-8.49,2-14.19,8.11-12.74,13.56l1.71,6.47c1.45,5.45,9.5,8.21,18,6.17l5-1.19,1-.26,145-41.3-3.75-14.11L158.18,272.77Zm2.13,6.46c6.39-1.54,12.34.15,13.3,3.76s-3.44,7.79-9.82,9.33-12.35-.15-13.31-3.76S152.93,281,159.32,279.45Z"
        transform="translate(0 -15)"/>
  <path class="cls-4"
        d="M354.55,224.35l-28.68,6.91A6.69,6.69,0,0,0,321.3,235L317,244.39a6.27,6.27,0,0,0,2,7.65l8.48,6.36a7.08,7.08,0,0,0,5.87,1.19l28.69-6.91c4.32-1,8,3.26,6,7a38.81,38.81,0,0,1-25.27,18.94c-20.63,5-38.89-6.94-43.91-25.83s5.11-37.63,25.74-42.6a40.73,40.73,0,0,1,31.69,5.23A4.89,4.89,0,0,1,354.55,224.35Z"
        transform="translate(0 -15)"/>
  <path class="cls-3"
        d="M355.24,226.93l-28.69,6.9a6.73,6.73,0,0,0-4.57,3.7L317.69,247a6.28,6.28,0,0,0,2,7.65l8.49,6.37a7.05,7.05,0,0,0,5.86,1.18l28.69-6.9c4.33-1,8,3.26,6,7a38.83,38.83,0,0,1-25.27,18.93c-20.63,5-38.89-6.93-43.9-25.83s5.11-37.63,25.74-42.59A40.63,40.63,0,0,1,357,218,4.89,4.89,0,0,1,355.24,226.93Z"
        transform="translate(0 -15)"/>
  <path class="cls-3"
        d="M157.74,275l-5,1.19c-8.48,2-14.19,8.11-12.74,13.56l1.72,6.47c1.45,5.45,9.49,8.21,18,6.17l4.94-1.19c.33-.08.66-.16,1-.26l145-41.3-3.74-14.11L158.72,274.82Zm2.13,6.46c6.38-1.53,12.34.15,13.3,3.76s-3.44,7.79-9.83,9.33-12.34-.15-13.3-3.76S153.48,283,159.87,281.5Z"
        transform="translate(0 -15)"/>
  <path class="cls-56"
        d="M194.31,246.59c-3.72,9.93-1.62,20.57-1.62,20.57l-4.9,1.24s-6.33-7.16-4.88-23.06A25,25,0,0,1,194.31,246.59Z"
        transform="translate(0 -15)"/>
  <path class="cls-57"
        d="M182.91,245.34c.16-1.79.42-3.69.8-5.7,3.31-17.53,26.92-31,32.48-34a.76.76,0,0,1,1.12.66l-.79,23.84c-13.15,1.68-19.37,8.85-22.21,16.43A25,25,0,0,0,182.91,245.34Z"
        transform="translate(0 -15)"/>
  <path class="cls-58"
        d="M283.25,268.75a3.12,3.12,0,0,0,2.05-1.69c.75-1.6,1.6-4.17-.21-4.95-2.69-1.17-7.59,3.61-7.59,3.61l-2.39,3.69-2.19,1C274.92,271,278.79,270.08,283.25,268.75Z"
        transform="translate(0 -15)"/>
  <path class="cls-59" d="M192.36,264.83h6.06s-4.92,2.8-5.08,5.75,1.95,9.06,2.94,10.73-13.71-2.71-8.49-16.48Z"
        transform="translate(0 -15)"/>
  <path class="cls-60"
        d="M728.59,554.49s21.78,45.19,33.2,63.91c0,0,2.27,11.78,0,15.48l-1.93.82,9-.26s.8-15.84.17-16.72a2.34,2.34,0,0,0-1.88-.83s-3.87-29.2-15.07-35.43l-10.87-35.62Z"
        transform="translate(0 -15)"/>
  <path class="cls-61"
        d="M756,636.92c0,.21,7,.11,10.88,0a3,3,0,0,0,2.93-2.29l2.89-14.49a2.6,2.6,0,0,0-2.08-3L769,616.8s-2.31,3-1.58,5.85,1.37,10.19-.47,11-7.11,1-7.11,1S756.13,635.05,756,636.92Z"
        transform="translate(0 -15)"/>
  <path class="cls-62"
        d="M708,637.18a.76.76,0,0,0,.4,1.42c6.42-.06,20.81-.26,22.09-.76,1.65-.65-.61-6.3-3-8.21l-13.08,4.06Z"
        transform="translate(0 -15)"/>
  <path class="cls-63"
        d="M703.89,551.61s14.07,64.82,18.05,77.46l-9.41,5.63s4.72-.76,8.22-1,6.71-4.06,6.71-4.06l-1.12-1.72s-3.53-64.46-2.67-71.79Z"
        transform="translate(0 -15)"/>
  <path class="cls-64"
        d="M698.14,448.83c5.39,1.43,23.66,6,35.07,5.82l-7,37.63.56,6.14-22.84-.1s-6.43-14.21-11.5-21.3c-1.47-2-.38-4.49.45-6.84l-1.14-.72a2.89,2.89,0,0,1-1.23-3.38l5.56-16.2A1.72,1.72,0,0,1,698.14,448.83Z"
        transform="translate(0 -15)"/>
  <path class="cls-65"
        d="M702.1,495.11l.45,3.72s-6.46,18.4,3.22,61.39c0,0,21,5.65,38.2-7.88,0,0-4.86-40.57-6.19-42.46-6.61-9.41-11-11.46-11-11.46l-.2-4.06S708.14,497.53,702.1,495.11Z"
        transform="translate(0 -15)"/>
  <path class="cls-66" d="M711,451.86c-.08-.1,4.77-13.93,4.77-13.93l6.94.6,2.71,15.69S714.58,456.32,711,451.86Z"
        transform="translate(0 -15)"/>
  <path class="cls-67"
        d="M721.09,416.11c-.47.27-14.84,5.93-11.75,20.14a2.69,2.69,0,0,0,1.59,1.9A25.43,25.43,0,0,0,723,440.06c7.54-.73,12.47-13.25,12.26-16.89S725.68,413.39,721.09,416.11Z"
        transform="translate(0 -15)"/>
  <path class="cls-68"
        d="M697,456.71a2.92,2.92,0,0,0-2.71-3.94,34.42,34.42,0,0,1-22.3-9.24c-5.06-4.82-6.4-22.34-6.4-22.34s-1.07-8.12-3.2-8.12,0,5.08,0,5.08a10,10,0,0,1-10.66-1c-5.33-4.06,1.06,6.09,6.39,8.12,0,0-2,40,33,40.62A3.07,3.07,0,0,0,694,464Z"
        transform="translate(0 -15)"/>
  <path class="cls-69"
        d="M716.21,444.8a17.93,17.93,0,0,1,1.65-7.52,7.18,7.18,0,0,0-1-7.8c-3.13-3.56-4.26-8.07-2.54-12,2.69-6.17,11.31-8.62,19.25-5.48,5.63,2.22,9.4,6.66,10.16,11.25a10.31,10.31,0,0,0,4.16,6.62,18.83,18.83,0,0,1,6.82,9.17,10.54,10.54,0,0,0,4.92,5.93,29.18,29.18,0,0,1,12.61,13.25c6.83,14.56-.07,31.64-15.4,38.17s-33.31,0-40.13-14.55a27.46,27.46,0,0,1,.43-24.35,7.14,7.14,0,0,0,.36-5.92A17.74,17.74,0,0,1,716.21,444.8Z"
        transform="translate(0 -15)"/>
  <path class="cls-3"
        d="M415,549.66c-5.13-18.34-16.07-33.28-29.44-42.39a53.67,53.67,0,0,1-22.88-34.1c-.28-1.44-.62-2.9-1-4.35-6.16-22.06-25.36-36.34-42.87-31.9s-26.7,25.92-20.53,48a52.11,52.11,0,0,0,5.29,12.46,51.89,51.89,0,0,1,5.93,39.53,75.76,75.76,0,0,0,.74,39.35C316,596.73,329,613,344.53,621.6a54.89,54.89,0,0,1,15.38,12.54c7.09,8.38,17.44,12.65,27.27,10.16,10.61-2.69,17.63-12.5,18.68-24.27a54.67,54.67,0,0,1,5.54-19.19C418.44,586.54,420.22,568.2,415,549.66Z"
        transform="translate(0 -15)"/>
  <path class="cls-2"
        d="M331.52,458.83c6.36,14,12.25,28.18,18,42.42,1.43,3.56,2.81,7.14,4.19,10.71l2.08,5.37,2,5.38c1.34,3.59,2.73,7.17,4,10.77l3.89,10.83c2.5,7.24,5.06,14.47,7.42,21.76,1.18,3.64,2.44,7.26,3.54,10.93l3.37,11c4.34,14.68,8.29,29.48,11.45,44.43l-.68.14L388,621.44l-.69-2.77-.77-2.76L385,610.39l-1.54-5.52c-.51-1.84-1.09-3.66-1.63-5.49-1.11-3.66-2.18-7.33-3.32-11-4.63-14.57-9.46-29.09-14.61-43.51-2.63-7.19-5.2-14.4-7.89-21.57l-2-5.39-2-5.37c-1.36-3.58-2.72-7.16-4.12-10.73q-4.11-10.74-8.37-21.41t-8.6-21.34Z"
        transform="translate(0 -15)"/>
  <path class="cls-2"
        d="M355.59,572.17c-9.95-10-22.36-15.94-34.2-17.34a41.75,41.75,0,0,1-27-14.22c-.71-.83-1.45-1.65-2.24-2.44-12-12-29.4-14.83-38.93-6.24s-7.56,25.32,4.41,37.36a40.69,40.69,0,0,0,7.92,6.2,39.64,39.64,0,0,1,18.18,23.26,57.24,57.24,0,0,0,14.82,24.85c11.13,11.19,25.33,17.28,38.37,17.65a42.2,42.2,0,0,1,14.37,2.94c7.57,3,15.72,2.32,21.07-2.5,5.77-5.2,6.67-13.77,3.05-21.62A39.34,39.34,0,0,1,371.94,606C371.2,594.57,365.65,582.29,355.59,572.17Z"
        transform="translate(0 -15)"/>
  <path class="cls-4"
        d="M269.29,541.73c9.15,6.83,18.07,13.94,26.91,21.13,2.21,1.8,4.4,3.63,6.58,5.46l3.28,2.73,3.26,2.77c2.16,1.85,4.35,3.67,6.49,5.54l6.42,5.62c4.24,3.8,8.5,7.57,12.66,11.44,2.08,1.94,4.2,3.83,6.24,5.8l6.15,5.9c8.12,7.94,16,16.07,23.49,24.57l-.38.31-5.83-6.16-1.46-1.54-1.5-1.51-3-3-3-3c-1-1-2-2-3.05-3-2-2-4.06-3.95-6.11-5.9Q334.07,597.25,321.29,586c-4.3-3.72-8.56-7.48-12.89-11.17L305.16,572l-3.26-2.76c-2.17-1.83-4.34-3.67-6.53-5.48q-6.53-5.5-13.14-10.9T269,542.1Z"
        transform="translate(0 -15)"/>
</svg>
