<svg id="Layer_1" data-name="Layer 1" xmlns="http://www.w3.org/2000/svg" viewBox="0 0 500 500"><rect x="6.6534" y="6.6534" width="486.6933" height="486.6933" rx="36.916" stroke="#fff" stroke-miterlimit="10" stroke-width="8"/><polygon points="90.637 91.188 206.178 91.188 206.178 68.236 90.637 68.236 68.445 68.236 68.445 91.188 68.445 158.388 90.637 158.388 90.637 91.188" fill="#fff"/><polygon points="409.363 408.812 293.823 408.812 293.823 431.764 409.363 431.764 431.555 431.764 431.555 408.812 431.555 341.612 409.363 341.612 409.363 408.812" fill="#fff"/><polygon points="409.363 68.236 293.823 68.236 293.823 91.188 409.363 91.188 409.363 158.388 431.555 158.388 431.555 91.188 431.555 68.236 409.363 68.236" fill="#fff"/><polygon points="90.637 341.612 68.445 341.612 68.445 408.812 68.445 431.764 90.637 431.764 206.178 431.764 206.178 408.812 90.637 408.812 90.637 341.612" fill="#fff"/><polygon points="295.076 296.675 227.876 296.675 227.876 181.134 204.924 181.134 204.924 296.675 204.924 318.866 227.876 318.866 295.076 318.866 295.076 296.675" fill="#fff"/></svg>