<?xml version="1.0" standalone="no"?>
<!DOCTYPE svg PUBLIC "-//W3C//DTD SVG 20010904//EN"
 "http://www.w3.org/TR/2001/REC-SVG-20010904/DTD/svg10.dtd">
<svg version="1.0" xmlns="http://www.w3.org/2000/svg"
 width="800.000000pt" height="800.000000pt" viewBox="0 0 800.000000 800.000000"
 preserveAspectRatio="xMidYMid meet">
<metadata>
Created by potrace 1.14, written by Peter Selinger 2001-2017
</metadata>
<g transform="translate(0.000000,800.000000) scale(0.100000,-0.100000)"
fill="#000000" stroke="none">
<path d="M4730 7129 c-340 -24 -587 -180 -678 -427 -33 -90 -41 -256 -18 -356
47 -197 195 -358 393 -427 32 -11 177 -49 323 -85 300 -74 347 -94 388 -163
22 -37 27 -58 26 -106 0 -34 -8 -73 -16 -90 -41 -77 -129 -124 -249 -132 -224
-16 -375 83 -404 265 -7 41 -8 42 -38 38 -18 -3 -135 -15 -262 -27 -126 -12
-232 -23 -234 -25 -7 -6 20 -145 39 -199 96 -275 271 -408 622 -471 112 -20
367 -19 481 1 411 72 624 323 604 709 -9 177 -52 281 -162 392 -114 114 -261
179 -545 239 -330 71 -376 88 -427 164 -46 68 -19 178 57 228 58 40 134 56
229 50 94 -5 141 -21 191 -64 33 -27 80 -113 80 -145 0 -12 8 -18 22 -18 30 0
500 50 515 55 16 5 -17 129 -57 210 -105 217 -348 362 -636 380 -49 3 -100 7
-114 9 -14 1 -72 -1 -130 -5z"/>
<path d="M3147 6983 c5 -54 8 -408 8 -788 0 -749 2 -722 -55 -782 -72 -77
-256 -91 -352 -28 -46 30 -90 97 -114 169 -9 28 -18 53 -20 55 -2 2 -114 -34
-249 -80 -283 -97 -263 -74 -195 -214 66 -138 182 -256 317 -324 73 -37 211
-71 321 -79 443 -34 751 135 848 464 15 53 18 140 24 839 4 429 11 799 15 823
l8 42 -282 0 -281 0 7 -97z"/>
<path d="M0 2000 l0 -2000 4000 0 4000 0 0 2000 0 2000 -4000 0 -4000 0 0
-2000z m5095 1099 c290 -36 504 -167 604 -371 34 -67 85 -217 78 -224 -2 -3
-468 -53 -515 -57 -31 -2 -34 1 -51 50 -38 111 -113 166 -246 178 -129 13
-255 -36 -296 -115 -22 -41 -25 -110 -5 -148 38 -74 98 -101 336 -151 306 -65
414 -101 537 -177 174 -108 272 -293 273 -515 1 -297 -148 -524 -408 -623
-137 -52 -242 -69 -432 -70 -99 0 -207 6 -250 13 -333 57 -513 183 -611 427
-31 77 -68 239 -57 249 5 6 473 55 521 55 11 0 17 -8 17 -24 0 -47 34 -128 72
-171 79 -90 236 -131 383 -102 89 19 136 45 175 99 72 99 36 239 -75 293 -28
13 -136 44 -240 70 -323 78 -341 83 -411 111 -191 76 -325 228 -370 420 -31
133 -9 316 51 435 132 257 506 399 920 348z m-1265 -271 l0 -240 -57 6 c-32 3
-268 9 -525 12 l-468 7 0 -188 0 -187 448 5 c246 3 456 7 467 9 20 3 20 -3 20
-237 0 -209 -2 -239 -15 -236 -8 3 -219 7 -467 9 l-453 4 0 -212 0 -212 503 5
c276 3 519 9 540 13 l37 6 0 -246 0 -246 -77 8 c-43 4 -407 7 -810 7 l-731 0
6 50 c8 57 10 1937 2 2033 l-5 63 710 0 c391 0 744 4 785 8 41 4 78 5 83 3 4
-2 7 -111 7 -244z"/>
</g>
</svg>
