<?xml version="1.0" standalone="no"?>
<!DOCTYPE svg PUBLIC "-//W3C//DTD SVG 20010904//EN"
 "http://www.w3.org/TR/2001/REC-SVG-20010904/DTD/svg10.dtd">
<svg version="1.0" xmlns="http://www.w3.org/2000/svg"
 width="890.000000pt" height="890.000000pt" viewBox="0 0 890.000000 890.000000"
 preserveAspectRatio="xMidYMid meet">
<metadata>
Created by potrace 1.14, written by Peter Selinger 2001-2017
</metadata>
<g transform="translate(0.000000,890.000000) scale(0.100000,-0.100000)"
fill="#000000" stroke="none">
<path d="M4579 8872 c-1 -4 -1 -10 0 -14 0 -5 -4 -8 -11 -8 -6 0 -3 -9 7 -20
12 -14 22 -17 30 -10 6 5 14 8 16 5 3 -2 5 7 5 20 0 14 -2 25 -5 26 -4 0 -14
2 -23 4 -10 2 -19 0 -19 -3z"/>
<path d="M5536 8843 c-3 -4 -6 -16 -6 -27 0 -28 45 -34 52 -8 7 25 -29 52 -46
35z"/>
<path d="M6442 8783 c-6 -2 -10 -9 -6 -14 3 -5 0 -9 -6 -9 -7 0 -5 -6 4 -15
23 -24 53 -19 58 10 3 14 2 25 -3 25 -4 0 -13 2 -21 4 -7 3 -19 2 -26 -1z"/>
<path d="M2750 8649 c0 -6 -4 -7 -10 -4 -6 4 -7 -2 -1 -17 5 -13 17 -23 29
-24 24 -1 34 16 22 36 -10 16 -40 22 -40 9z"/>
<path d="M4724 8629 c-16 -17 -16 -22 -4 -29 8 -6 20 -10 26 -10 17 0 23 34 9
47 -10 9 -17 7 -31 -8z"/>
<path d="M5646 8569 c-11 -11 -14 -19 -8 -19 7 0 12 -6 12 -14 0 -19 33 -10
47 13 10 15 8 20 -10 28 -17 8 -26 6 -41 -8z"/>
<path d="M4143 8520 c-18 -4 -33 -6 -33 -4 0 2 -8 -4 -18 -13 -11 -10 -17 -21
-15 -25 2 -5 0 -8 -5 -8 -5 0 -9 -6 -9 -12 0 -7 -2 -17 -3 -23 -5 -17 12 -65
23 -65 6 0 7 -3 4 -7 -4 -3 2 -13 14 -21 23 -16 89 -24 89 -10 0 5 4 7 9 3 13
-7 61 41 62 63 0 9 2 25 4 35 2 9 -1 17 -6 17 -5 0 -9 6 -9 13 0 8 -11 24 -25
37 -14 13 -25 20 -25 16 0 -5 -6 -4 -12 1 -7 5 -28 7 -45 3z"/>
<path d="M6046 8439 c-17 -17 -17 -19 -2 -34 19 -19 46 -13 46 10 0 10 5 13
12 9 7 -4 8 -3 4 4 -4 7 -13 12 -21 12 -7 0 -15 4 -17 9 -1 4 -11 0 -22 -10z"/>
<path d="M3425 8310 c-3 -5 -11 -7 -18 -5 -17 6 -41 -15 -59 -51 -13 -26 -13
-37 -3 -60 15 -35 65 -84 65 -64 0 10 3 11 11 3 15 -15 56 -4 81 22 36 38 36
92 -2 135 -11 13 -20 20 -20 17 0 -4 -11 -2 -25 3 -15 6 -27 6 -30 0z"/>
<path d="M5360 8301 c-25 -10 -24 -48 1 -62 18 -9 24 -8 33 7 5 11 11 24 12
30 2 15 -28 32 -46 25z"/>
<path d="M5619 8306 c-8 -6 -3 -40 8 -51 18 -19 53 -3 48 22 -2 10 -4 20 -4
24 -1 4 -46 8 -52 5z"/>
<path d="M2696 8234 c-3 -8 0 -22 8 -30 17 -16 30 -19 21 -4 -3 6 1 7 9 4 12
-5 16 0 16 20 0 21 -5 26 -24 26 -13 0 -27 -7 -30 -16z"/>
<path d="M4770 8211 c0 -6 -3 -10 -7 -8 -9 2 -13 -6 -13 -31 0 -25 37 -25 51
-1 6 12 9 22 7 23 -2 1 -11 8 -20 15 -12 9 -18 10 -18 2z"/>
<path d="M6362 8134 c-10 -11 -10 -18 0 -38 11 -22 15 -23 31 -11 22 16 19 57
-3 60 -8 2 -21 -4 -28 -11z"/>
<path d="M1487 8079 c-9 -6 -21 -7 -27 -4 -11 7 -32 -29 -23 -39 3 -3 2 -6 -4
-6 -14 0 -4 -51 15 -72 8 -10 19 -15 24 -12 5 3 15 0 23 -6 11 -10 15 -10 15
-1 0 7 4 10 8 7 8 -5 35 20 40 37 1 4 2 8 3 10 6 20 5 37 -2 37 -5 0 -8 3 -8
8 3 19 -2 30 -17 36 -10 4 -13 2 -9 -7 4 -6 0 -5 -7 5 -10 12 -19 14 -31 7z"/>
<path d="M4205 8036 c-13 -38 -13 -46 -4 -46 5 0 9 -6 9 -14 0 -17 27 -29 35
-16 3 5 12 7 20 3 8 -3 15 0 15 7 0 6 5 8 10 5 6 -3 10 5 10 19 0 33 -10 57
-21 50 -5 -3 -9 -1 -9 4 0 4 -13 8 -29 8 -21 0 -32 -6 -36 -20z"/>
<path d="M6868 8042 c-22 -4 -23 -38 -3 -59 14 -14 18 -14 35 2 22 19 27 45 9
45 -5 0 -8 4 -5 8 5 9 -7 10 -36 4z"/>
<path d="M5470 8030 c0 -6 -4 -8 -10 -5 -5 3 -10 -2 -10 -12 0 -11 -5 -24 -10
-31 -6 -6 -7 -10 -4 -7 4 3 13 0 21 -7 11 -9 13 -8 11 3 -2 8 7 15 20 17 21 3
32 22 12 22 -5 0 -9 5 -7 11 1 6 -4 14 -10 16 -7 3 -13 0 -13 -7z"/>
<path d="M4548 7922 c-10 -2 -18 -8 -18 -14 0 -6 -3 -8 -6 -5 -15 15 -54 -48
-54 -86 0 -41 27 -97 46 -97 6 0 17 -6 23 -14 21 -25 95 -13 128 21 15 17 29
35 30 40 10 48 10 63 2 63 -6 0 -8 4 -4 9 3 5 -2 17 -11 25 -8 9 -12 16 -7 16
4 0 -7 10 -25 21 -32 21 -70 29 -104 21z"/>
<path d="M5663 7922 c-15 -2 -20 -8 -16 -19 4 -11 2 -14 -5 -9 -7 4 -10 2 -7
-6 10 -24 39 -37 57 -24 24 17 1 63 -29 58z"/>
<path d="M6243 7873 c-18 -6 -16 -50 2 -57 26 -10 46 5 43 32 -3 24 -20 34
-45 25z"/>
<path d="M5115 7820 c-4 -6 -10 -8 -14 -6 -4 3 -8 -1 -8 -9 0 -8 4 -12 8 -10
4 3 10 -2 13 -11 7 -18 19 -12 22 11 1 8 -2 15 -7 15 -6 0 -7 5 -4 10 3 6 4
10 1 10 -3 0 -8 -5 -11 -10z"/>
<path d="M7134 7798 c-16 -25 -13 -44 7 -57 12 -7 18 -8 14 -2 -3 6 1 11 9 11
11 0 16 9 16 27 0 14 -3 23 -7 20 -3 -4 -12 -2 -19 4 -9 7 -15 6 -20 -3z"/>
<path d="M3345 7772 c-18 -13 -16 -38 4 -39 20 -2 35 22 25 38 -6 11 -16 11
-29 1z"/>
<path d="M5610 7772 c0 -6 -8 -9 -17 -8 -10 2 -28 -7 -39 -20 -12 -12 -25 -20
-29 -16 -4 4 -6 0 -5 -8 4 -27 0 -41 -9 -36 -13 9 -8 -27 7 -42 6 -7 12 -20
12 -27 0 -19 47 -49 79 -50 89 -4 135 109 73 175 -16 16 -32 27 -35 23 -4 -3
-13 0 -22 7 -9 7 -15 8 -15 2z"/>
<path d="M6033 7725 c-11 -8 -23 -11 -27 -8 -3 3 -7 -2 -8 -13 0 -10 -2 -24
-2 -31 -1 -6 -4 -15 -8 -19 -10 -10 30 -64 48 -64 8 0 14 -6 14 -12 0 -8 3 -9
8 -3 4 6 16 11 26 13 30 6 50 32 51 68 0 19 -3 34 -7 34 -4 0 -10 9 -13 21 -4
11 -9 18 -12 15 -3 -2 -15 -1 -28 4 -15 6 -29 4 -42 -5z"/>
<path d="M2556 7695 c-18 -18 -12 -41 12 -48 22 -5 48 19 29 26 -8 4 -8 6 2 6
11 1 11 4 1 16 -16 19 -25 19 -44 0z"/>
<path d="M2204 7656 c-3 -9 -11 -13 -17 -9 -7 4 -8 0 -4 -11 4 -10 7 -22 7
-27 0 -15 47 -10 53 5 3 8 -3 24 -13 37 -17 19 -20 20 -26 5z"/>
<path d="M3635 7621 c-13 -42 26 -65 49 -29 7 11 5 20 -5 29 -22 21 -37 21
-44 0z"/>
<path d="M6213 7614 c4 -7 0 -15 -9 -18 -20 -8 -9 -26 16 -26 21 0 21 23 0 43
-8 7 -10 8 -7 1z"/>
<path d="M1903 7553 c4 -3 2 -12 -4 -20 -9 -10 -8 -13 0 -13 7 0 10 -4 7 -9
-4 -5 2 -8 11 -6 10 2 20 4 23 4 3 1 7 12 8 26 1 21 -3 25 -25 25 -14 0 -23
-3 -20 -7z"/>
<path d="M5766 7495 c6 -14 4 -16 -7 -10 -11 6 -12 5 -1 -6 8 -9 15 -10 22 -3
8 8 6 15 -5 24 -13 11 -14 10 -9 -5z"/>
<path d="M4037 7483 c5 -12 3 -14 -8 -8 -12 8 -12 6 0 -8 18 -22 34 -11 21 14
-13 23 -22 25 -13 2z"/>
<path d="M3093 7472 c0 -10 7 -19 14 -19 6 0 10 4 7 9 -3 4 0 8 6 8 6 0 8 5 5
10 -11 17 -34 11 -32 -8z"/>
<path d="M5135 7482 c-5 -4 -11 -17 -11 -29 -1 -18 4 -23 21 -23 25 0 38 21
29 45 -7 16 -23 19 -39 7z"/>
<path d="M3505 7470 c-32 -12 -47 -37 -49 -77 -4 -76 89 -116 146 -63 25 23
32 87 13 107 -7 7 -15 17 -17 21 -5 13 -70 22 -93 12z"/>
<path d="M6839 7467 c-13 -42 10 -74 41 -57 26 14 15 55 -16 58 -13 1 -24 1
-25 -1z"/>
<path d="M2777 7398 c-3 -10 -1 -18 5 -18 5 0 7 -4 4 -8 -3 -5 8 -9 25 -10 16
0 27 3 24 8 -3 5 0 12 6 15 7 5 4 11 -8 20 -26 17 -51 15 -56 -7z"/>
<path d="M3095 7402 c-40 -21 -62 -43 -75 -76 -12 -31 -10 -96 2 -96 4 0 8 -4
8 -10 0 -16 42 -60 52 -54 4 3 8 0 8 -5 0 -6 9 -11 21 -11 11 0 17 4 14 10 -3
5 0 7 8 4 8 -3 17 2 21 11 3 9 10 13 16 10 5 -3 10 1 10 9 0 9 11 18 25 22 14
3 25 9 25 13 0 4 12 8 27 9 14 1 27 3 29 5 5 5 12 68 7 63 -4 -3 -15 13 -25
36 -10 22 -21 38 -25 35 -3 -4 -11 0 -17 8 -10 14 -33 22 -82 29 -12 2 -34 -4
-49 -12z"/>
<path d="M4300 7382 c0 -7 -7 -9 -17 -5 -10 4 -14 2 -10 -4 4 -6 1 -14 -5 -16
-10 -4 -10 -6 0 -6 7 -1 10 -6 7 -11 -4 -7 3 -10 21 -7 30 4 40 29 18 48 -10
8 -14 8 -14 1z"/>
<path d="M4100 7327 c-25 -5 -48 -14 -51 -19 -3 -5 -9 -9 -13 -9 -19 3 -28 -2
-56 -29 -16 -16 -30 -26 -30 -22 0 4 -6 -2 -12 -13 -7 -11 -11 -22 -11 -25 1
-3 -7 -14 -17 -25 -10 -11 -19 -23 -19 -27 -1 -5 -1 -9 -2 -10 0 -2 -2 -22 -5
-45 -2 -24 -5 -46 -6 -50 -4 -16 15 -79 38 -128 13 -27 23 -47 24 -43 0 3 14
-7 31 -23 16 -15 46 -34 65 -41 19 -6 34 -15 34 -19 0 -7 134 -4 160 3 44 13
60 20 60 29 0 5 6 9 13 9 11 0 62 51 68 68 2 4 11 15 20 25 9 10 16 26 14 35
-1 9 2 20 7 23 25 16 6 188 -22 197 -5 2 -10 10 -10 17 0 13 -34 50 -78 87
-11 9 -31 18 -44 20 -13 2 -25 6 -29 10 -8 12 -80 15 -129 5z"/>
<path d="M5515 7319 c-5 -14 -1 -25 11 -34 22 -16 40 -10 47 16 9 34 -48 52
-58 18z"/>
<path d="M5363 7254 c-15 -15 -18 -58 -4 -50 5 4 12 0 14 -6 4 -10 6 -10 6 0
1 8 6 10 14 6 6 -4 9 -4 5 1 -4 4 -4 13 1 19 5 7 2 18 -8 27 -13 14 -18 15
-28 3z"/>
<path d="M1242 7234 c-11 -12 -11 -17 2 -29 17 -17 46 -10 46 12 0 8 5 11 13
8 6 -4 3 1 -7 9 -24 20 -37 20 -54 0z"/>
<path d="M2740 7220 c-8 -6 -10 -10 -5 -10 6 0 3 -5 -5 -10 -11 -7 -11 -10 -2
-10 7 0 11 -4 8 -8 -2 -4 4 -8 14 -9 10 -1 20 7 23 17 6 25 -14 42 -33 30z"/>
<path d="M3311 7211 c-1 -8 -7 -11 -17 -7 -29 11 -92 -14 -133 -52 -23 -21
-41 -44 -41 -50 0 -7 -5 -12 -11 -12 -5 0 -7 -4 -4 -10 3 -5 1 -19 -5 -30 -8
-15 -8 -20 2 -20 9 0 9 -3 -2 -10 -8 -5 -10 -10 -5 -10 6 0 11 -15 12 -34 2
-43 40 -102 76 -118 15 -7 27 -17 27 -21 0 -5 5 -5 10 -2 6 3 10 2 10 -2 0 -8
101 -9 130 -1 29 8 80 43 80 54 0 7 7 15 16 18 8 3 12 10 9 16 -3 5 -1 10 5
10 7 0 10 6 7 13 -3 7 1 21 8 31 15 19 10 97 -7 107 -5 3 -10 10 -10 15 0 18
-33 64 -45 64 -7 0 -13 5 -13 11 0 12 -67 42 -80 34 -4 -3 -11 1 -13 7 -4 10
-6 10 -6 -1z"/>
<path d="M6743 7206 c0 -6 -4 -19 -8 -28 -5 -12 -2 -16 12 -14 10 2 21 -2 25
-8 4 -6 10 -4 14 8 4 10 3 26 -2 34 -12 18 -40 24 -41 8z"/>
<path d="M1623 7187 c-14 -22 -11 -37 7 -37 21 0 34 37 14 44 -7 3 -17 0 -21
-7z"/>
<path d="M4704 7172 c4 -7 1 -12 -8 -12 -9 0 -16 -5 -16 -11 0 -5 -4 -8 -9 -5
-4 3 -14 -7 -21 -22 -17 -35 -18 -43 -8 -64 6 -12 5 -18 -2 -18 -14 0 29 -43
55 -55 36 -16 74 -12 100 11 31 27 44 86 24 111 -12 15 -12 16 1 9 8 -4 3 4
-12 17 -15 14 -25 27 -23 29 2 2 -12 5 -32 6 -20 2 -41 6 -46 9 -6 3 -7 1 -3
-5z"/>
<path d="M6313 7154 c-3 -8 -1 -20 4 -25 14 -14 39 -1 40 21 2 24 -35 28 -44
4z"/>
<path d="M7119 7157 c-21 -17 -10 -51 19 -54 12 -2 23 3 24 10 4 35 3 43 -7
49 -13 10 -17 10 -36 -5z"/>
<path d="M2165 7150 c-4 -7 13 -50 21 -50 3 0 4 7 0 15 -3 8 0 14 6 12 7 -1
13 6 16 15 2 12 -3 16 -18 15 -12 -1 -23 -4 -25 -7z"/>
<path d="M5490 7131 c0 -4 -12 -8 -27 -9 -16 -1 -30 -7 -31 -12 -2 -6 -7 -8
-12 -5 -12 7 -80 -61 -80 -81 0 -10 -3 -14 -7 -10 -5 4 -13 -16 -19 -46 -10
-54 -2 -117 18 -129 5 -3 3 -9 -6 -12 -10 -4 -16 -1 -16 9 0 8 -7 17 -15 20
-8 4 -12 10 -9 15 3 5 0 9 -5 9 -6 0 -11 -4 -11 -8 0 -4 -12 -7 -27 -6 -32 1
-85 -24 -78 -37 4 -5 -1 -9 -9 -9 -12 0 -14 -5 -7 -22 4 -13 6 -29 4 -35 -3
-7 -1 -13 5 -13 5 0 9 -7 9 -15 0 -8 -4 -12 -9 -9 -4 3 -8 0 -8 -5 0 -6 4 -11
8 -11 4 0 8 -22 8 -50 0 -33 -4 -50 -13 -50 -8 0 -10 12 -7 41 3 22 1 39 -3
36 -4 -3 -9 18 -10 46 0 28 -6 53 -12 55 -6 2 -11 10 -11 17 0 17 -100 116
-110 110 -4 -3 -13 2 -20 11 -7 8 -19 13 -26 10 -7 -3 -16 -1 -19 4 -3 5 -36
7 -73 5 -88 -7 -92 -7 -92 -16 0 -4 -10 -9 -23 -13 -12 -3 -33 -16 -47 -28
-14 -13 -28 -22 -33 -20 -5 1 -6 -2 -2 -8 3 -5 1 -10 -4 -10 -6 0 -11 -7 -11
-15 0 -8 -4 -15 -10 -15 -5 0 -9 -3 -8 -7 1 -5 -4 -21 -11 -38 -12 -27 -20
-61 -22 -90 -2 -18 12 -77 21 -95 5 -10 6 -20 3 -24 -3 -3 -1 -6 6 -6 7 0 9
-4 6 -10 -3 -5 -1 -10 4 -10 6 0 11 -5 11 -10 0 -13 46 -60 58 -60 4 0 17 -8
28 -17 11 -10 25 -19 31 -20 61 -12 85 -15 128 -18 28 -1 52 -4 55 -5 3 -1 8
-2 13 -1 4 0 7 -5 7 -12 0 -8 4 -7 10 3 9 13 10 13 10 0 0 -13 1 -13 10 0 6 9
10 10 10 3 0 -17 85 15 116 43 12 12 25 20 27 17 3 -2 11 12 18 31 7 20 16 36
20 36 9 0 -1 41 -14 58 -7 9 -7 16 1 24 7 7 12 8 12 2 0 -6 22 -11 48 -13 40
-1 55 4 90 29 38 27 47 40 43 63 0 4 3 7 9 7 6 0 10 7 10 15 0 8 -4 15 -10 15
-5 0 -9 3 -9 8 3 20 -2 32 -16 32 -8 0 -15 7 -15 15 0 8 -5 15 -12 15 -6 0 -8
3 -5 7 4 3 19 -6 33 -20 15 -15 30 -27 35 -27 4 0 14 -7 22 -15 28 -27 153
-38 167 -14 4 6 9 10 11 9 21 -8 113 75 103 92 -3 5 0 8 6 8 6 0 8 5 5 10 -3
6 -2 10 2 10 8 0 14 29 16 80 1 34 -31 100 -62 128 -40 35 -51 43 -51 37 0 -3
-11 2 -25 11 -14 9 -25 14 -25 11 0 -3 -16 -1 -35 3 -19 4 -35 5 -35 1z"/>
<path d="M1009 7090 c0 -3 -2 -13 -4 -22 -2 -10 1 -18 6 -18 6 0 7 -4 4 -10
-9 -15 24 -12 38 3 15 16 21 40 7 32 -5 -3 -10 1 -10 9 0 13 -39 20 -41 6z"/>
<path d="M6078 7062 c-14 -17 1 -34 35 -37 19 -2 24 1 22 13 -2 10 -4 22 -4
29 -1 16 -39 12 -53 -5z"/>
<path d="M7404 7072 c3 -6 2 -13 -4 -17 -5 -3 -10 -11 -10 -16 0 -6 4 -8 9 -5
5 4 11 0 14 -6 3 -10 7 -10 20 1 18 14 23 41 8 41 -5 0 -17 3 -27 7 -11 4 -15
3 -10 -5z"/>
<path d="M7281 6997 c-17 -17 -13 -45 9 -57 16 -9 22 -8 26 5 3 8 11 12 16 9
6 -4 6 1 -1 13 -6 11 -8 23 -5 25 3 3 -4 8 -15 11 -11 2 -24 0 -30 -6z"/>
<path d="M3685 6940 c-4 -6 -10 -8 -15 -5 -5 3 -11 1 -14 -4 -9 -13 3 -38 21
-45 18 -7 48 20 33 29 -6 4 -8 10 -5 15 3 5 1 11 -4 14 -5 4 -12 2 -16 -4z"/>
<path d="M6441 6934 c1 -5 -1 -17 -6 -27 -8 -19 11 -50 26 -41 5 3 9 0 9 -6 0
-7 6 -6 15 3 8 8 12 25 10 38 -5 26 -25 50 -25 30 0 -11 -3 -11 -16 -1 -8 8
-14 9 -13 4z"/>
<path d="M6643 6895 c-9 -10 -9 -16 0 -25 9 -10 9 -11 -3 -5 -12 6 -12 5 -4
-5 16 -17 54 -3 54 20 0 10 -5 22 -12 26 -7 5 -8 3 -3 -7 7 -11 6 -12 -6 -3
-11 9 -17 9 -26 -1z"/>
<path d="M2023 6832 c-31 -5 -38 -32 -13 -56 12 -13 20 -16 20 -8 0 7 4 11 8
8 4 -2 13 4 20 15 7 10 8 19 3 19 -5 0 -11 6 -13 13 -2 6 -13 11 -25 9z"/>
<path d="M5733 6820 c-17 -10 -35 -16 -39 -12 -4 4 -4 1 1 -7 5 -9 2 -19 -10
-27 -27 -20 -24 -98 4 -128 11 -12 18 -26 14 -31 -5 -4 -2 -5 5 -1 6 4 12 3
12 -2 0 -15 72 -29 108 -21 53 11 87 52 97 114 1 6 -4 25 -11 43 -7 17 -10 32
-6 32 4 0 -11 12 -32 26 -50 34 -102 39 -143 14z"/>
<path d="M6544 6828 c6 -20 -10 -25 -17 -5 -3 6 -6 8 -6 2 0 -5 4 -17 9 -25 7
-11 12 -12 21 -3 8 8 8 16 -1 30 -10 16 -11 16 -6 1z"/>
<path d="M4027 6804 c-3 -3 -24 -8 -48 -10 -24 -3 -50 -9 -60 -14 -9 -5 -19
-7 -23 -5 -3 3 -4 3 -2 0 2 -3 -15 -24 -37 -45 -22 -22 -37 -40 -32 -40 4 0 2
-7 -5 -15 -18 -21 -16 -135 3 -135 4 0 6 -4 3 -9 -3 -4 6 -21 19 -37 14 -16
25 -31 25 -34 0 -3 9 -11 21 -18 12 -8 18 -9 15 -3 -4 6 6 3 22 -6 17 -10 28
-23 25 -30 -3 -8 -8 -12 -10 -9 -2 2 -19 0 -36 -5 -32 -10 -49 -14 -97 -24
-14 -3 -26 -9 -28 -15 -2 -6 -8 -7 -13 -4 -6 3 -16 0 -24 -6 -8 -7 -15 -10
-15 -6 0 4 -13 0 -29 -8 -16 -9 -31 -12 -35 -9 -3 4 -6 1 -6 -6 0 -7 -4 -9
-10 -6 -5 3 -10 1 -10 -5 0 -6 -4 -9 -9 -6 -5 4 -11 1 -13 -4 -2 -6 -10 -12
-19 -13 -9 -2 -28 -11 -42 -20 -15 -10 -27 -14 -27 -11 0 4 -8 0 -17 -8 -10
-8 -42 -28 -70 -43 -29 -16 -53 -32 -53 -37 0 -4 -7 -8 -15 -8 -7 0 -18 -6
-22 -14 -4 -8 -10 -14 -13 -13 -7 2 -82 -54 -97 -73 -7 -8 -13 -12 -13 -8 0 4
-15 -7 -34 -25 -19 -17 -57 -52 -84 -76 -28 -25 -50 -47 -48 -50 1 -3 -10 -19
-26 -34 -15 -15 -28 -24 -28 -20 0 4 -9 -5 -19 -22 -11 -16 -33 -45 -50 -64
-17 -18 -31 -38 -31 -43 0 -5 -5 -6 -12 -2 -7 5 -9 2 -6 -8 4 -8 -2 -20 -14
-27 -11 -7 -17 -15 -14 -18 3 -3 -4 -14 -16 -24 -11 -11 -17 -19 -12 -19 5 0
3 -4 -4 -9 -11 -6 -6 -14 20 -32 18 -13 39 -29 46 -36 6 -6 21 -15 32 -18 11
-3 20 -11 20 -17 0 -10 11 2 48 47 4 6 18 27 31 48 12 20 28 37 33 37 6 0 9 3
5 6 -3 4 9 22 29 40 19 19 32 34 29 34 -3 0 5 10 17 22 13 13 26 22 30 21 5
-2 7 1 5 6 -2 8 98 111 109 111 2 0 17 13 32 30 16 16 32 27 35 23 4 -3 7 -1
7 5 0 7 7 12 15 12 8 0 15 4 15 9 0 10 128 96 158 105 12 4 22 12 22 17 0 5 3
8 8 7 10 -2 65 24 73 35 3 5 8 8 10 8 2 -1 18 3 34 9 17 6 34 10 39 9 5 0 12
4 16 11 4 6 17 12 28 13 12 1 22 4 22 7 0 4 6 7 13 8 6 0 39 8 72 17 33 9 66
17 73 17 6 1 12 4 12 8 0 3 8 6 18 6 9 0 37 4 62 8 67 11 108 16 180 20 36 3
66 5 68 6 3 2 71 2 75 0 1 -1 25 -3 52 -6 73 -5 173 -17 210 -24 19 -4 48 0
42 6 -3 3 1 23 8 45 8 21 12 39 8 39 -3 0 -1 6 4 13 6 6 10 27 9 46 -1 31 -4
34 -36 37 -19 2 -46 6 -60 9 -14 4 -59 8 -101 9 -41 1 -81 6 -87 10 -7 4 -12
3 -12 -1 0 -5 -9 -9 -20 -9 -11 0 -20 3 -20 7 0 7 -44 4 -59 -5 -5 -4 -12 -2
-16 4 -4 6 -11 7 -17 3 -7 -3 -41 -8 -77 -9 -36 -2 -78 -5 -92 -7 -23 -3 -21
1 24 44 27 26 46 52 42 58 -3 6 0 14 8 17 22 8 14 104 -14 153 -12 22 -26 38
-31 35 -4 -3 -8 2 -8 10 0 9 -5 16 -10 16 -6 0 -28 11 -49 24 -21 14 -41 23
-44 20z"/>
<path d="M3201 6778 c-8 -13 -8 -24 -1 -38 12 -22 26 -22 50 1 17 16 24 53 8
43 -4 -3 -8 -1 -8 3 0 16 -38 9 -49 -9z"/>
<path d="M6903 6773 c-22 -8 -15 -43 7 -43 11 0 20 2 20 4 0 2 3 11 6 19 6 16
-13 27 -33 20z"/>
<path d="M2495 6743 c-8 -33 9 -52 33 -37 24 15 21 45 -5 55 -18 6 -22 3 -28
-18z"/>
<path d="M3019 6766 c-8 -9 -4 -42 6 -52 12 -12 16 -11 29 7 11 16 12 24 3 34
-9 9 -33 16 -38 11z"/>
<path d="M3507 6723 c-15 -15 -5 -30 19 -30 18 0 24 4 20 14 -3 8 -6 17 -6 19
0 7 -26 5 -33 -3z"/>
<path d="M2361 6651 c-9 -16 -5 -23 18 -42 16 -13 28 -27 25 -30 -8 -14 16
-20 30 -7 11 11 10 15 -6 30 -11 9 -19 20 -19 25 3 40 -31 57 -48 24z"/>
<path d="M6025 6660 c-3 -5 -3 -10 2 -10 4 0 1 -5 -7 -10 -14 -9 -7 -12 16 -9
4 0 10 -5 14 -11 5 -8 9 -4 13 10 4 16 2 20 -9 16 -8 -3 -12 -2 -9 3 3 5 1 12
-4 15 -5 4 -12 2 -16 -4z"/>
<path d="M1835 6618 c-45 -35 -24 -98 34 -98 17 0 31 5 31 10 0 6 6 10 13 10
17 0 15 50 -3 75 -20 26 -44 27 -75 3z"/>
<path d="M1111 6607 c-6 -6 -5 -19 1 -32 9 -20 14 -22 34 -13 15 7 24 20 24
34 0 19 -5 23 -25 22 -14 -1 -29 -6 -34 -11z"/>
<path d="M6149 6609 c-7 -4 -19 -5 -27 -1 -9 3 -13 1 -9 -5 4 -6 -4 -14 -18
-17 -14 -4 -25 -11 -25 -17 0 -6 -5 -7 -12 -3 -6 4 -8 3 -4 -4 3 -6 -2 -15
-11 -21 -10 -6 -14 -11 -9 -11 5 0 3 -7 -4 -15 -21 -26 -21 -114 1 -157 11
-21 24 -38 29 -38 6 0 10 -7 10 -15 0 -13 6 -17 26 -14 4 0 10 -3 13 -8 9 -12
69 -32 75 -25 3 3 21 6 40 8 41 2 101 45 123 88 22 43 23 114 2 153 -10 17
-16 33 -14 35 2 1 -18 17 -43 35 -47 32 -118 48 -143 32z"/>
<path d="M2731 6592 c-7 -7 -16 -10 -22 -7 -5 4 -9 1 -9 -5 0 -6 -4 -8 -10 -5
-5 3 -10 0 -10 -8 0 -8 -7 -18 -16 -21 -8 -3 -13 -10 -10 -15 3 -5 -1 -12 -10
-15 -12 -5 -15 -19 -13 -63 4 -89 40 -138 119 -160 27 -8 93 -2 114 10 12 6
25 10 29 9 5 -1 6 2 2 8 -3 5 -1 10 5 10 6 0 14 8 17 18 4 9 12 22 18 28 6 7
12 34 13 60 3 64 -29 120 -83 148 -45 23 -116 28 -134 8z"/>
<path d="M6630 6572 c0 -7 -4 -10 -10 -7 -11 7 -44 -9 -68 -34 -19 -18 -30
-107 -12 -96 5 3 10 -1 10 -9 0 -22 51 -53 86 -51 48 3 94 56 89 100 -5 42
-32 85 -53 85 -6 0 -13 6 -15 13 -4 8 -6 7 -6 -3 -1 -13 -2 -13 -11 0 -7 11
-10 11 -10 2z"/>
<path d="M7425 6500 c-11 -17 5 -50 25 -50 20 0 32 23 24 45 -7 17 -40 20 -49
5z"/>
<path d="M5726 6468 c-20 -28 -20 -47 -1 -54 8 -4 12 -10 9 -15 -11 -18 47 -8
66 11 19 19 18 40 -3 68 -15 19 -54 14 -71 -10z"/>
<path d="M3220 6460 c-9 -16 -7 -24 10 -42 11 -12 20 -16 20 -10 0 7 6 12 13
12 16 0 19 30 4 48 -14 18 -35 15 -47 -8z"/>
<path d="M2332 6415 c-10 -12 -10 -15 0 -15 10 0 10 -2 0 -9 -10 -6 -9 -10 7
-14 15 -3 25 1 31 14 8 13 7 19 0 19 -6 0 -8 5 -5 10 10 16 -18 11 -33 -5z"/>
<path d="M3631 6377 c-5 -12 -5 -24 0 -25 5 -2 7 -7 5 -11 -3 -4 4 -7 14 -8
23 -2 46 22 30 32 -6 3 -8 10 -5 15 3 4 -4 10 -16 13 -14 4 -23 -1 -28 -16z"/>
<path d="M4783 6382 c-7 -4 -14 -17 -16 -27 -2 -11 -7 -27 -10 -35 -3 -8 -7
-28 -10 -45 -2 -16 -6 -36 -8 -44 -4 -15 46 -45 91 -55 41 -9 102 -31 106 -37
3 -5 14 -9 25 -9 10 0 19 -4 19 -10 0 -5 3 -9 8 -8 13 4 82 -26 82 -35 0 -4 4
-6 9 -2 5 3 12 1 16 -5 3 -6 25 -20 48 -31 22 -12 47 -28 55 -35 7 -8 19 -14
27 -14 7 0 15 -4 17 -8 2 -5 23 -22 48 -39 25 -17 55 -41 67 -52 12 -12 25
-21 28 -21 4 0 20 -13 37 -30 16 -16 34 -30 39 -30 6 0 8 -4 4 -9 -3 -6 5 -15
17 -22 13 -7 26 -17 30 -23 5 -8 8 -7 8 2 0 6 5 12 10 12 6 0 30 21 55 46 25
25 45 43 45 39 0 -9 58 53 70 74 8 16 6 21 -10 26 -11 3 -20 13 -20 21 0 8 -4
14 -8 14 -5 0 -25 15 -45 33 -31 27 -37 40 -42 83 -4 45 -33 135 -35 109 0 -5
-8 5 -16 22 -9 18 -20 30 -25 27 -5 -3 -9 -1 -9 3 0 13 -59 45 -70 38 -6 -3
-10 0 -10 8 0 10 -9 12 -31 9 -25 -4 -30 -2 -24 9 7 11 6 12 -6 2 -8 -6 -18
-11 -24 -12 -37 0 -75 -15 -105 -41 -25 -21 -36 -26 -42 -17 -4 7 -8 8 -8 3 0
-5 -7 -2 -17 5 -9 8 -18 13 -19 12 -2 -1 -25 7 -51 18 -27 12 -59 23 -73 26
-13 2 -30 9 -37 15 -7 6 -13 7 -13 4 0 -4 -10 -2 -21 5 -23 12 -58 20 -101 22
-16 1 -28 5 -28 10 0 9 -12 9 -27 -1z"/>
<path d="M1300 6280 c-12 -8 -12 -10 -1 -10 10 0 11 -3 2 -14 -9 -10 -8 -15 4
-20 22 -8 43 3 41 21 -3 21 -29 34 -46 23z"/>
<path d="M1721 6254 c-6 -15 -7 -24 -1 -24 5 0 8 -10 6 -22 -2 -13 -10 -22
-17 -20 -9 2 -10 0 -1 -11 7 -8 9 -16 6 -19 -2 -3 2 -8 10 -11 17 -7 42 28 38
51 -2 6 2 12 9 12 6 0 8 7 5 16 -3 8 -2 12 4 9 13 -8 13 5 0 25 -15 24 -47 20
-59 -6z"/>
<path d="M2529 6198 c-1 -7 -1 -16 0 -20 0 -5 -3 -8 -9 -8 -5 0 -7 -6 -4 -13
7 -18 49 -14 49 5 0 20 -35 55 -36 36z"/>
<path d="M7614 6192 c-5 -4 -9 -13 -8 -19 1 -7 2 -17 3 -22 2 -18 36 -4 39 16
3 21 -18 36 -34 25z"/>
<path d="M384 6162 c-40 -21 -53 -41 -54 -82 0 -23 8 -45 25 -64 21 -25 33
-30 72 -30 28 -1 48 4 51 12 2 6 10 12 18 12 9 0 12 5 9 10 -3 6 -1 10 5 10 6
0 9 4 6 8 -2 4 -1 14 4 22 11 18 -15 81 -38 95 -33 19 -69 22 -98 7z"/>
<path d="M2037 6163 c-11 -11 -8 -33 6 -48 12 -11 16 -9 30 15 9 15 14 30 10
34 -8 8 -38 8 -46 -1z"/>
<path d="M2998 6146 c-10 -7 -15 -16 -11 -19 3 -4 -4 -4 -16 -2 -12 2 -19 0
-16 -6 4 -5 2 -9 -4 -9 -6 0 -36 -25 -67 -55 -32 -30 -61 -55 -66 -55 -4 0 -8
-4 -8 -9 0 -5 -11 -19 -25 -32 -13 -13 -25 -30 -25 -37 0 -7 -4 -11 -9 -7 -5
3 -12 -4 -16 -15 -3 -11 -10 -20 -14 -20 -4 0 -16 -16 -27 -35 -10 -19 -21
-35 -24 -35 -4 0 -16 -17 -28 -39 -25 -45 -26 -44 61 -90 55 -29 60 -30 83
-14 14 8 22 18 20 21 -3 2 17 32 45 66 28 33 54 66 56 73 3 7 11 13 19 13 8 0
13 3 12 8 -2 4 27 38 64 76 74 76 75 80 21 141 -18 19 -16 52 3 63 12 7 13 11
2 19 -9 8 -18 8 -30 -1z"/>
<path d="M6510 6119 c0 -6 -7 -8 -16 -5 -21 8 -58 -34 -60 -68 0 -17 9 -38 28
-58 25 -26 30 -29 45 -17 12 10 14 10 9 2 -4 -7 -2 -13 3 -13 6 0 11 5 11 12
0 6 3 8 7 5 3 -4 17 3 30 15 25 23 30 57 13 89 -13 23 -70 55 -70 38z"/>
<path d="M875 6103 c-5 -14 16 -43 32 -43 4 0 14 9 20 19 9 15 9 21 0 29 -18
14 -45 11 -52 -5z"/>
<path d="M4196 6113 c-2 -2 -26 -6 -53 -8 -40 -3 -86 -12 -203 -40 -8 -2 -36
-11 -62 -19 -27 -8 -48 -13 -48 -10 0 3 -7 -2 -16 -10 -8 -9 -20 -14 -25 -11
-5 4 -9 1 -9 -5 0 -6 -4 -9 -9 -5 -5 3 -12 1 -16 -5 -4 -6 -10 -8 -15 -5 -4 3
-11 -2 -14 -11 -4 -9 -9 -14 -12 -11 -7 6 -73 -25 -116 -55 -16 -11 -28 -16
-28 -13 0 4 -7 0 -15 -7 -32 -29 -45 -39 -45 -33 0 5 -31 -18 -62 -47 -10 -10
-21 -19 -25 -20 -17 -4 -203 -181 -203 -192 0 -4 -13 -20 -30 -36 -16 -16 -30
-34 -30 -40 0 -6 -6 -13 -14 -16 -8 -3 -19 -19 -25 -35 -5 -16 -15 -29 -20
-29 -6 0 -11 -5 -11 -11 0 -6 -9 -24 -21 -40 -11 -16 -17 -29 -12 -29 4 0 1
-5 -8 -10 -9 -5 -20 -22 -24 -37 -3 -15 -12 -31 -18 -35 -6 -3 -12 -16 -14
-27 -1 -11 -16 -47 -32 -81 -16 -33 -27 -60 -24 -60 3 0 0 -6 -6 -13 -6 -8 -9
-16 -6 -19 3 -3 -1 -21 -10 -40 -12 -30 -12 -38 -1 -47 7 -6 15 -8 18 -5 3 3
21 -1 39 -9 19 -7 40 -12 48 -9 8 2 11 0 8 -5 -3 -5 0 -10 8 -10 8 0 12 4 9 9
-3 4 1 8 9 8 7 0 14 6 15 13 5 47 12 71 22 77 6 4 12 11 11 16 -1 19 13 60 25
79 8 11 14 28 14 38 0 9 7 20 16 24 8 3 13 11 10 18 -2 7 3 21 12 32 9 10 26
35 36 56 11 20 23 37 28 37 5 0 7 4 4 9 -3 5 1 12 10 15 8 3 13 10 10 14 -3 5
3 15 12 24 9 8 31 32 47 53 36 46 165 178 165 169 0 -4 12 5 27 20 32 32 156
116 172 116 6 0 11 3 11 8 0 4 12 13 28 19 54 24 137 60 157 68 11 4 26 7 33
6 6 -1 12 3 12 9 0 5 3 9 8 8 19 -4 82 15 82 26 0 6 5 4 10 -4 5 -8 10 -10 10
-4 0 6 14 10 30 9 17 -1 30 1 30 5 0 3 10 6 23 7 57 3 173 14 185 18 6 2 12
-1 12 -7 0 -7 4 -7 13 -1 6 6 19 9 28 8 8 -2 42 -6 75 -10 93 -11 99 -12 99
-15 0 -9 46 -4 61 7 10 7 15 13 12 13 -3 0 -1 21 6 48 6 26 11 53 10 60 -1 6
-2 16 -3 22 0 5 -8 6 -18 3 -12 -5 -14 -3 -8 8 8 12 6 12 -8 0 -9 -7 -17 -9
-17 -4 0 5 -15 10 -32 11 -84 5 -338 9 -342 5z"/>
<path d="M4695 6066 c-6 -6 -12 -20 -13 -31 -2 -11 -7 -22 -10 -25 -4 -3 -7
-14 -6 -25 0 -11 -3 -30 -8 -43 -5 -15 -4 -21 2 -17 6 3 10 0 10 -9 0 -8 7
-13 18 -11 9 1 22 0 27 -4 6 -3 16 -6 22 -7 18 -3 107 -37 113 -43 3 -4 14 -8
25 -9 11 -2 23 -8 26 -14 3 -5 9 -9 13 -9 8 1 109 -49 116 -58 3 -3 17 -12 33
-20 15 -8 27 -18 27 -23 0 -4 5 -8 12 -8 6 0 18 -7 27 -15 76 -69 91 -83 91
-79 0 3 11 -6 24 -20 23 -26 56 -35 56 -17 0 5 9 13 20 16 11 4 18 10 15 14
-2 5 7 13 20 19 14 7 24 17 23 24 -2 7 4 12 12 10 10 -3 9 3 -5 19 -35 41 -43
49 -51 49 -3 0 -22 16 -40 36 -19 19 -34 33 -34 30 0 -3 -9 2 -19 11 -11 9
-17 21 -14 27 3 6 3 8 -2 4 -4 -4 -15 -2 -23 5 -13 10 -14 9 -8 -3 4 -8 -1 -6
-11 5 -10 12 -30 27 -45 34 -15 8 -25 18 -22 23 3 5 2 8 -3 7 -12 -3 -60 18
-68 31 -3 5 -10 8 -15 5 -5 -3 -13 2 -18 11 -5 9 -12 15 -16 14 -13 -3 -75 24
-71 30 3 4 -6 6 -18 6 -12 -1 -29 4 -39 12 -9 7 -22 14 -30 16 -7 1 -19 5 -25
9 -7 5 -17 6 -22 2 -5 -3 -17 2 -25 11 -9 8 -16 13 -16 10 0 -3 -10 -2 -23 3
-14 6 -26 5 -32 -3z"/>
<path d="M8234 6042 c-13 -9 -12 -28 3 -43 9 -9 15 -8 27 4 9 9 16 18 16 21 0
10 -36 25 -46 18z"/>
<path d="M6185 6023 c-13 -29 -13 -38 -1 -48 19 -17 41 -15 54 5 7 11 8 20 2
20 -5 0 -7 7 -4 15 4 8 2 15 -4 15 -6 0 -17 3 -25 6 -8 3 -18 -3 -22 -13z"/>
<path d="M6167 5964 c-2 -3 -17 -7 -33 -10 -16 -3 -37 -13 -47 -23 -21 -21
-30 -70 -15 -88 6 -7 7 -13 3 -13 -4 0 3 -9 17 -19 25 -20 88 -26 88 -9 0 5 4
7 9 3 13 -8 34 33 36 70 1 19 -6 36 -19 48 -12 10 -15 16 -8 12 18 -9 15 -2
-7 17 -11 9 -21 14 -24 12z"/>
<path d="M2356 5903 c-2 -3 -10 -5 -18 -7 -19 -3 -77 -39 -73 -45 2 -4 -3 -15
-11 -25 -9 -13 -27 -19 -54 -20 -22 0 -40 -5 -40 -11 0 -5 -5 -3 -10 5 -7 11
-10 11 -10 2 0 -7 -4 -11 -9 -8 -5 3 -14 -1 -21 -9 -7 -8 -16 -12 -21 -9 -5 3
-9 1 -9 -4 0 -5 -13 -15 -30 -22 -16 -7 -27 -16 -24 -21 3 -5 0 -9 -6 -9 -6 0
-8 -4 -5 -10 3 -5 2 -10 -3 -10 -6 0 -17 -19 -26 -41 -32 -79 -11 -193 44
-240 11 -9 16 -19 13 -23 -4 -3 1 -6 10 -6 10 0 17 -5 17 -11 0 -5 5 -7 10 -4
6 3 10 1 10 -5 0 -6 5 -8 10 -5 6 3 10 1 10 -4 0 -6 9 -11 20 -11 11 0 20 -6
20 -12 0 -9 4 -8 10 2 5 8 10 10 10 3 0 -14 98 -7 117 8 7 7 13 9 13 5 0 -3
16 3 36 14 19 11 33 16 29 10 -3 -6 0 -7 9 -4 9 3 13 10 10 15 -3 5 2 9 10 9
10 0 13 6 10 15 -4 8 -1 15 6 15 6 0 9 4 5 9 -3 5 -1 12 5 16 6 4 8 11 5 16
-4 5 -2 9 3 9 5 0 8 32 7 72 -2 67 0 73 26 99 16 16 29 33 29 39 0 5 4 10 8
10 9 0 10 104 2 129 -7 21 -55 61 -74 61 -9 0 -16 6 -16 13 0 8 -4 7 -10 -3
-5 -8 -10 -10 -10 -4 0 10 -25 15 -34 7z"/>
<path d="M7149 5893 c-23 -6 -47 -54 -42 -87 4 -28 26 -53 47 -54 5 0 12 -4
15 -9 3 -5 23 -4 46 3 22 7 36 13 31 13 -5 1 -3 8 4 16 21 25 19 65 -5 93 -21
24 -57 34 -96 25z"/>
<path d="M1799 5874 c-7 -9 -9 -18 -3 -22 5 -4 11 -18 12 -31 7 -50 54 -64 65
-20 4 14 -5 31 -28 54 -29 31 -34 33 -46 19z"/>
<path d="M5730 5871 c0 -5 -9 -13 -21 -16 -11 -4 -18 -9 -15 -13 8 -7 -36 -38
-49 -34 -5 2 -7 1 -3 -3 7 -8 -62 -76 -71 -70 -4 2 -7 -8 -7 -21 -1 -13 2 -24
8 -24 5 0 6 -4 3 -10 -3 -5 0 -10 7 -10 7 0 22 -16 32 -35 11 -19 23 -35 28
-35 4 0 8 -5 8 -10 0 -10 8 -22 38 -55 7 -8 11 -15 7 -15 -3 0 3 -10 15 -22
11 -12 20 -25 20 -30 0 -15 4 -23 22 -42 17 -18 19 -25 17 -42 0 -4 5 -10 13
-15 7 -5 13 -12 13 -16 1 -4 6 -18 13 -30 7 -13 9 -23 5 -23 -4 0 -1 -5 7 -10
8 -5 15 -15 15 -22 1 -7 7 -26 15 -43 7 -16 14 -34 16 -40 1 -5 8 -23 15 -40
7 -16 11 -34 10 -39 -1 -4 4 -14 10 -22 6 -8 9 -14 5 -14 -3 0 -1 -12 5 -27
11 -28 18 -57 24 -103 2 -14 4 -25 5 -25 1 0 4 -16 7 -35 2 -19 10 -41 16 -49
9 -11 9 -13 0 -8 -8 5 -11 0 -10 -13 1 -11 4 -20 7 -20 3 0 6 -71 5 -158 0
-133 2 -158 15 -159 8 -1 57 -3 107 -6 105 -4 101 -8 104 82 3 50 5 54 36 67
18 8 33 19 33 26 0 6 3 9 6 5 5 -5 37 25 61 58 12 16 16 35 21 104 3 45 1 62
-7 57 -7 -5 -9 -1 -5 9 4 8 -1 27 -11 41 -22 34 -79 88 -97 92 -56 12 -100 55
-82 83 3 5 1 9 -4 9 -5 0 -8 11 -7 25 2 14 -2 25 -8 25 -5 0 -7 3 -4 6 3 4 2
15 -3 25 -6 10 -11 29 -12 43 -1 15 -7 26 -12 26 -5 0 -7 2 -4 6 3 3 -3 27
-13 55 -10 27 -18 49 -16 50 1 1 20 2 42 3 22 1 49 6 60 11 22 9 72 55 60 55
-4 0 -3 6 3 13 14 17 9 87 -9 115 -8 12 -22 25 -31 28 -10 3 -18 9 -18 13 0 4
-16 8 -35 9 -39 3 -102 -21 -120 -45 -13 -17 -51 -11 -40 7 3 5 1 10 -5 10 -6
0 -8 5 -5 10 3 6 2 10 -4 10 -11 0 -38 48 -37 67 1 6 10 20 21 30 24 22 31
103 9 116 -8 4 -14 15 -14 23 0 8 -4 13 -9 10 -5 -3 -20 4 -35 15 -14 11 -26
16 -26 10 0 -5 -9 -8 -20 -6 -11 2 -22 -1 -26 -6 -3 -6 -12 -5 -22 3 -13 11
-14 11 -7 -2 6 -11 3 -10 -12 3 -21 18 -53 23 -53 8z"/>
<path d="M1447 5831 c-5 -19 9 -41 26 -41 5 0 15 7 24 15 12 12 13 19 3 30
-17 21 -47 19 -53 -4z"/>
<path d="M4287 5823 c-1 -1 -34 -5 -72 -8 -109 -10 -109 -10 -120 -16 -5 -4
-22 -6 -37 -5 -14 1 -24 -2 -22 -6 3 -4 0 -9 -5 -9 -39 -5 -52 -7 -56 -9 -3
-1 -8 -3 -12 -4 -5 -1 -14 -5 -20 -9 -7 -5 -22 -10 -33 -12 -28 -5 -184 -85
-188 -96 -2 -5 -7 -7 -12 -4 -4 2 -19 -6 -33 -19 -14 -13 -28 -22 -31 -19 -2
3 -10 -5 -16 -17 -6 -12 -14 -19 -17 -17 -14 14 -228 -207 -217 -225 3 -4 -2
-8 -10 -8 -9 0 -16 -7 -16 -15 0 -9 -7 -18 -15 -21 -8 -4 -13 -10 -10 -14 3
-4 -4 -19 -15 -32 -30 -39 -101 -187 -95 -198 3 -6 1 -10 -4 -10 -6 0 -11 -9
-11 -20 0 -11 -4 -20 -8 -20 -5 0 -9 -6 -10 -12 -1 -22 -12 -72 -23 -104 -16
-52 -21 -102 -24 -259 -2 -101 1 -155 9 -164 9 -12 8 -13 -3 -6 -11 6 -12 5
-5 -6 5 -8 9 -23 9 -34 0 -11 4 -26 8 -32 5 -7 6 -17 3 -22 -3 -4 5 -7 17 -6
12 1 22 4 22 5 0 1 11 3 25 4 39 3 98 28 95 40 -2 6 -6 31 -9 55 -3 24 -8 46
-11 49 -2 3 0 14 6 25 7 11 7 17 1 13 -6 -3 -9 21 -9 64 0 39 3 70 6 70 3 0 6
19 5 43 0 37 14 119 32 182 3 11 6 26 6 33 1 6 5 12 10 12 5 0 7 3 4 8 -2 4 4
25 14 47 11 22 19 46 20 53 0 6 4 12 9 12 5 0 12 14 16 30 4 17 11 30 16 30 5
0 8 3 7 8 -4 13 39 72 47 64 5 -4 5 -2 1 5 -4 7 2 21 14 33 11 11 18 20 15 20
-2 0 11 16 30 36 19 20 35 40 35 45 0 5 5 9 10 9 14 0 50 37 50 52 0 6 3 8 7
5 3 -4 19 7 35 23 15 16 30 30 33 30 7 0 57 32 73 47 7 7 24 16 38 19 13 3 24
10 24 14 0 10 60 32 60 22 0 -4 4 -2 8 4 9 14 72 35 83 28 5 -3 9 -1 9 5 0 5
12 12 28 15 58 12 88 17 117 22 17 2 44 6 60 8 17 2 30 5 30 6 0 1 10 3 23 4
12 2 22 -1 22 -5 0 -5 11 -4 24 1 13 5 26 6 29 3 3 -3 27 -7 54 -9 26 -2 55
-6 63 -7 8 -2 38 -8 65 -12 57 -10 63 -12 70 -15 3 -1 10 -4 15 -5 6 -1 11 -3
13 -5 1 -1 10 -3 20 -6 35 -8 43 -11 72 -25 17 -7 33 -17 36 -22 3 -5 8 -8 10
-6 9 5 49 -13 49 -22 0 -5 3 -8 8 -7 8 3 58 -28 86 -54 24 -22 45 -23 52 -3 4
8 10 12 15 9 5 -3 9 0 9 6 0 17 26 40 35 32 5 -4 5 -2 2 4 -4 7 0 17 8 24 22
18 18 35 -10 48 -14 6 -25 16 -25 22 0 6 -4 8 -10 5 -5 -3 -10 -3 -10 2 0 18
-235 137 -291 147 -13 3 -24 5 -24 6 0 1 -7 3 -15 5 -8 2 -24 6 -35 9 -67 18
-95 23 -99 19 -2 -3 -11 -1 -18 3 -7 5 -38 9 -68 11 -30 1 -77 4 -103 6 -27 1
-49 1 -50 0z"/>
<path d="M6766 5799 c-22 -10 -48 -26 -58 -35 -10 -10 -18 -14 -18 -9 0 4 -11
-9 -25 -29 -14 -20 -25 -41 -25 -46 0 -6 -4 -10 -8 -10 -4 0 -9 -12 -10 -26
-1 -14 -5 -31 -9 -37 -10 -16 -10 -46 0 -82 5 -16 10 -40 13 -53 3 -13 13 -33
24 -45 11 -11 22 -29 26 -39 3 -10 11 -18 17 -18 7 0 19 -9 27 -20 8 -11 22
-20 32 -20 10 0 18 -5 18 -11 0 -5 5 -7 10 -4 6 3 10 1 10 -5 0 -7 6 -10 13
-7 6 2 20 0 31 -5 14 -8 17 -7 10 4 -6 10 -4 11 7 3 13 -9 32 -11 52 -5 4 1
15 3 25 5 9 1 26 5 37 9 39 15 43 14 49 -7 8 -31 7 -39 -3 -33 -5 4 -4 -5 2
-18 7 -13 15 -22 18 -20 4 2 6 -4 5 -14 0 -9 5 -16 12 -14 6 1 11 -1 10 -5 -4
-21 15 -41 38 -38 13 1 24 -1 24 -5 0 -5 6 -7 13 -6 52 10 76 19 81 32 3 9 11
12 18 8 7 -4 10 -4 6 1 -4 4 -3 14 3 22 9 10 8 17 -1 28 -11 13 -10 14 3 9 12
-4 14 -1 10 15 -3 12 -1 21 5 21 5 0 13 12 16 28 19 78 23 102 15 102 -5 0 -8
3 -7 8 2 4 -7 23 -18 43 -24 40 -79 76 -112 74 -20 -2 -28 14 -23 47 0 4 -6
22 -14 41 -8 19 -11 37 -8 41 4 3 1 6 -5 6 -7 0 -12 6 -12 13 0 13 -90 103
-90 90 0 -4 -6 -1 -13 7 -7 9 -19 15 -27 15 -8 -1 -19 2 -25 6 -21 14 -131 7
-169 -12z"/>
<path d="M1966 5781 c-15 -16 -15 -19 2 -34 15 -14 21 -15 36 -4 10 7 15 19
11 29 -10 25 -31 29 -49 9z"/>
<path d="M1461 5677 c-15 -15 -14 -44 2 -50 18 -6 43 6 41 21 -1 6 -2 16 -3
21 -2 15 -28 20 -40 8z"/>
<path d="M5428 5613 c-10 -3 -18 -9 -18 -14 0 -6 -4 -7 -10 -4 -5 3 -10 0 -10
-8 0 -7 -11 -20 -25 -27 -13 -7 -23 -18 -22 -24 1 -6 -3 -10 -10 -9 -19 4 -4
-26 29 -57 15 -15 28 -31 28 -36 0 -5 9 -15 20 -22 11 -7 20 -19 20 -27 0 -8
3 -15 8 -15 4 0 16 -17 27 -37 11 -21 26 -44 32 -51 12 -13 17 -27 14 -44 0
-5 3 -8 7 -8 12 0 80 -154 88 -200 3 -14 11 -37 19 -52 7 -16 9 -28 4 -28 -6
0 -5 -8 1 -20 6 -11 8 -25 5 -30 -3 -6 -1 -10 4 -10 6 0 11 -10 10 -22 -1 -32
7 -77 14 -85 4 -3 2 -13 -3 -23 -5 -10 -6 -21 -2 -25 8 -8 10 -245 2 -245 -3
0 -6 -23 -8 -52 -1 -29 -7 -55 -14 -60 -11 -6 -11 -8 0 -8 10 0 10 -5 2 -21
-7 -11 -9 -23 -7 -25 3 -3 -4 -28 -14 -56 -10 -28 -16 -54 -14 -59 3 -4 1 -10
-5 -14 -6 -4 -8 -11 -5 -16 4 -5 2 -9 -3 -9 -6 0 -13 -11 -16 -25 -10 -39 -57
-139 -70 -147 -6 -4 -7 -8 -3 -8 5 0 -1 -13 -12 -29 -12 -16 -21 -34 -21 -40
0 -5 -7 -14 -16 -19 -9 -5 -15 -12 -14 -16 2 -9 -27 -50 -62 -87 -15 -16 -24
-29 -21 -29 4 0 -16 -22 -44 -50 -28 -27 -49 -50 -46 -50 3 0 -7 -10 -23 -22
-16 -13 -42 -35 -59 -50 -16 -16 -38 -31 -48 -34 -9 -3 -15 -10 -12 -15 4 -5
1 -9 -5 -9 -11 0 -91 -50 -101 -63 -3 -5 -9 -8 -13 -7 -9 3 -79 -32 -87 -43
-3 -4 -14 -9 -25 -11 -10 -3 -34 -12 -51 -21 -18 -9 -42 -17 -53 -18 -11 -1
-20 -6 -20 -11 0 -5 -3 -6 -6 -3 -4 3 -15 2 -25 -3 -9 -6 -35 -13 -56 -16 -47
-8 -68 -12 -68 -14 0 -2 -38 -11 -65 -14 -62 -8 -67 -12 -60 -64 3 -27 5 -60
5 -74 -2 -23 1 -25 29 -21 17 3 42 6 56 7 14 1 30 4 35 7 6 3 22 5 38 4 15 -1
27 2 27 7 0 4 14 8 30 8 17 0 30 3 30 8 0 4 14 8 31 9 17 1 37 8 45 14 8 6 14
8 14 4 0 -4 7 -2 15 5 8 7 15 10 15 6 0 -4 17 2 39 13 21 11 41 17 45 14 3 -4
6 -1 6 5 0 7 3 11 8 10 16 -4 168 78 210 112 6 6 12 8 12 5 0 -4 6 0 14 7 7 7
24 20 36 28 13 8 30 23 38 32 9 9 19 15 23 12 5 -2 13 5 19 16 6 11 15 18 21
15 5 -4 9 1 9 9 0 8 9 18 20 21 11 4 18 11 15 16 -4 5 -2 9 4 9 20 0 158 154
153 172 -1 5 2 7 7 4 8 -5 20 13 21 29 0 3 11 18 25 33 14 15 25 32 25 39 0 7
8 17 18 22 9 6 14 11 9 11 -4 0 4 18 17 39 14 21 23 41 20 43 -2 3 2 11 11 18
8 7 15 21 15 31 0 9 7 24 15 33 9 8 16 18 16 21 -1 21 13 65 21 65 5 0 6 5 3
10 -3 6 -1 10 5 10 6 0 9 4 6 9 -3 5 2 33 11 62 20 66 23 77 27 109 2 14 7 45
12 70 4 25 8 57 8 73 0 15 3 27 6 27 3 0 5 59 5 130 0 80 -4 130 -10 130 -5 0
-3 5 5 10 8 5 11 10 5 10 -5 0 -10 10 -11 23 -1 12 -6 49 -12 82 -7 33 -14 69
-16 80 -6 33 -28 109 -38 130 -5 12 -10 27 -12 35 -1 8 -11 35 -21 60 -11 25
-18 47 -16 49 1 2 -1 7 -6 10 -4 3 -20 31 -36 61 -37 74 -60 114 -69 118 -5 2
-8 10 -8 18 0 8 -4 14 -10 14 -5 0 -10 7 -10 15 0 8 -4 15 -10 15 -5 0 -10 5
-10 10 0 6 -7 18 -16 28 -9 9 -32 35 -52 58 -24 26 -43 39 -54 37z"/>
<path d="M1279 5576 c-7 -7 -5 -42 4 -50 18 -16 47 -19 48 -4 1 7 3 22 4 34 2
16 -4 20 -26 20 -16 0 -29 0 -30 0z"/>
<path d="M2759 5490 c-13 -28 -28 -50 -32 -50 -5 0 -6 -4 -2 -9 3 -5 -1 -16
-9 -24 -8 -8 -12 -17 -9 -21 4 -3 1 -6 -5 -6 -6 0 -9 -9 -7 -20 2 -11 0 -20
-5 -20 -8 0 -23 -33 -25 -53 0 -4 -7 -12 -15 -17 -8 -5 -10 -10 -5 -10 6 0 3
-5 -5 -10 -12 -8 -12 -10 -1 -10 9 0 10 -4 4 -12 -15 -19 -42 -106 -35 -112 3
-3 1 -6 -4 -6 -5 0 -11 -12 -12 -27 -1 -15 -6 -31 -11 -36 -5 -5 -7 -16 -4
-25 4 -9 2 -13 -4 -9 -5 3 -9 -3 -8 -16 1 -12 -2 -33 -6 -47 -5 -14 -10 -38
-13 -55 -2 -16 -5 -30 -6 -30 -2 0 -7 -39 -11 -90 -3 -51 -18 -71 -49 -69 -28
2 -73 -19 -103 -47 -12 -10 -25 -19 -31 -19 -5 0 -6 -3 -3 -7 4 -3 1 -13 -5
-21 -7 -8 -13 -19 -14 -26 -2 -6 -7 -25 -12 -41 -15 -48 17 -133 65 -179 32
-29 45 -36 88 -47 25 -6 49 -19 53 -28 5 -9 8 -44 8 -78 -1 -35 3 -63 7 -63 5
0 6 -3 4 -8 -3 -4 3 -25 14 -46 10 -21 16 -42 14 -46 -3 -5 -1 -10 5 -12 5 -1
11 -14 14 -28 2 -14 5 -25 6 -25 1 0 3 -10 6 -22 2 -12 5 -28 6 -34 2 -6 13
-23 26 -37 12 -14 22 -33 22 -43 0 -11 5 -19 10 -19 6 0 10 -9 10 -20 0 -11 4
-20 8 -20 4 0 16 -20 26 -45 10 -24 27 -52 37 -61 10 -9 16 -21 13 -25 -3 -5
0 -9 6 -9 6 0 9 -4 6 -9 -3 -5 1 -11 9 -15 8 -3 15 -10 15 -16 0 -5 9 -20 19
-32 11 -13 28 -34 39 -47 l19 -24 34 23 c19 13 41 30 49 37 38 34 64 53 73 53
6 0 7 3 4 7 -4 3 1 12 11 19 10 8 12 13 5 14 -7 0 -13 4 -13 10 0 9 -19 36
-48 66 -7 8 -11 14 -7 14 3 0 -5 15 -17 33 -13 17 -31 46 -38 62 -8 17 -17 32
-20 35 -3 3 -10 16 -16 30 -7 14 -24 50 -38 81 -14 31 -26 61 -26 67 0 7 -4
12 -9 12 -4 0 -7 11 -6 25 2 14 -1 25 -6 25 -5 0 -9 8 -9 18 0 10 -3 22 -7 26
-4 3 -8 14 -9 24 -4 28 -15 75 -19 83 -6 9 -18 78 -19 112 -1 15 -4 27 -8 27
-4 0 -5 12 -4 28 2 15 0 37 -5 48 -4 13 -3 26 4 33 8 8 8 11 -1 11 -8 0 -10
33 -7 118 7 159 9 192 15 192 3 0 6 12 7 28 2 40 13 105 20 122 3 8 5 19 4 24
-1 4 3 14 9 20 5 7 8 15 5 18 -3 3 2 21 10 41 8 21 13 37 11 37 -3 0 1 12 9
27 8 15 12 30 9 35 -3 4 0 8 5 8 6 0 10 3 9 8 -3 12 25 82 34 82 4 0 7 3 7 8
-1 4 0 10 1 15 1 4 3 10 4 15 1 4 14 30 28 57 22 42 24 53 13 68 -7 9 -20 17
-29 17 -10 0 -14 5 -11 10 3 6 -1 10 -9 10 -9 0 -16 5 -16 11 0 5 -4 8 -9 4
-5 -3 -12 -1 -16 5 -3 5 -14 14 -24 19 -15 8 -21 2 -42 -39z"/>
<path d="M5104 5533 c4 -7 2 -13 -4 -13 -6 0 -9 -3 -7 -7 3 -5 -1 -14 -9 -21
-8 -7 -14 -9 -14 -5 0 4 -10 -9 -23 -30 -13 -21 -26 -35 -30 -31 -4 4 -7 1 -7
-7 0 -12 30 -46 90 -103 22 -20 51 -56 45 -56 -2 0 6 -11 18 -24 35 -38 48
-56 42 -56 -4 0 1 -7 9 -16 9 -8 16 -22 16 -30 0 -8 5 -14 10 -14 6 0 10 -9
10 -21 0 -11 5 -17 10 -14 9 5 15 -15 11 -37 0 -5 3 -8 8 -8 9 0 24 -38 22
-54 -1 -4 3 -14 8 -20 6 -7 13 -23 15 -37 3 -13 5 -24 7 -24 1 0 3 -9 4 -20 2
-11 8 -35 14 -52 5 -18 7 -33 4 -33 -3 0 0 -7 7 -15 9 -11 9 -15 1 -15 -8 0
-9 -6 -3 -17 10 -21 8 -251 -2 -275 -4 -9 -5 -21 -2 -26 3 -5 -1 -20 -9 -35
-9 -17 -10 -27 -3 -27 7 0 7 -4 -1 -13 -6 -8 -8 -17 -4 -20 3 -4 1 -7 -6 -7
-7 0 -10 -4 -6 -9 6 -10 -14 -62 -29 -72 -5 -4 -6 -11 -2 -17 3 -6 0 -16 -7
-24 -8 -7 -12 -19 -9 -26 2 -6 -1 -12 -8 -12 -6 0 -9 -4 -5 -9 3 -6 -1 -13 -9
-18 -8 -4 -15 -12 -16 -18 -6 -27 -21 -55 -30 -55 -6 0 -9 -4 -6 -9 3 -4 -2
-18 -12 -29 -9 -11 -26 -33 -37 -49 -30 -42 -172 -182 -179 -176 -3 3 -8 -2
-12 -11 -3 -9 -10 -16 -14 -16 -5 0 -38 -20 -74 -45 -36 -25 -66 -43 -66 -40
0 3 -10 -1 -23 -10 -13 -8 -27 -12 -30 -8 -4 3 -7 1 -7 -5 0 -8 -100 -46 -152
-58 -5 -1 -9 -2 -10 -4 -9 -6 -89 -19 -153 -23 -22 -2 -46 -6 -53 -11 -6 -4
-12 -4 -12 1 0 4 -37 9 -83 9 -95 2 -180 13 -193 26 -3 4 -12 4 -20 1 -8 -3
-14 -1 -14 3 0 5 -15 10 -32 11 -18 2 -34 7 -36 13 -2 6 -8 8 -13 4 -5 -3 -9
0 -9 6 0 6 -4 8 -10 5 -5 -3 -20 1 -33 10 -13 8 -27 12 -30 8 -4 -3 -7 -1 -7
5 0 7 -6 12 -13 12 -7 0 -22 8 -33 18 -11 9 -26 18 -34 20 -8 2 -16 8 -18 13
-2 5 -9 9 -16 9 -7 0 -21 9 -31 20 -10 11 -22 17 -26 14 -5 -3 -9 3 -9 12 0
10 -2 15 -6 12 -3 -3 -21 10 -41 28 -20 19 -42 34 -50 34 -7 0 -29 -16 -49
-35 -19 -19 -39 -35 -45 -35 -6 0 -7 -4 -4 -10 3 -5 0 -10 -8 -10 -7 0 -14 -7
-14 -15 0 -8 2 -13 5 -11 5 6 52 -44 52 -56 0 -5 4 -7 9 -3 6 3 14 -2 19 -11
5 -9 13 -16 18 -17 5 -1 19 -11 32 -22 13 -11 26 -19 29 -17 2 2 13 -7 24 -19
10 -12 19 -18 19 -13 0 5 4 5 8 -1 8 -12 40 -30 107 -62 28 -13 58 -28 67 -34
10 -5 27 -9 38 -9 11 0 20 -5 20 -11 0 -6 7 -8 15 -5 9 3 18 0 21 -7 2 -6 17
-13 32 -14 28 -3 67 -10 67 -13 0 -3 51 -12 73 -13 12 -1 22 -3 22 -6 0 -9
287 -7 296 2 11 11 26 8 18 -4 -4 -7 1 -7 16 1 12 6 30 10 41 7 10 -3 20 0 22
6 2 6 21 12 43 13 21 1 39 3 39 4 0 1 8 3 18 5 10 2 29 11 43 19 13 9 24 12
24 7 0 -5 12 -3 28 4 43 22 86 38 95 37 4 -1 7 2 7 7 0 8 37 24 53 22 4 -1 7
3 7 9 0 5 7 10 15 10 7 0 19 8 24 18 6 9 11 14 11 9 0 -10 80 44 80 54 0 5 4
8 9 7 5 -2 27 14 49 35 22 20 45 37 51 37 6 0 11 6 11 14 0 8 9 18 21 21 11 4
18 9 16 11 -2 3 10 20 27 38 54 57 75 84 69 90 -4 3 -1 6 5 6 7 0 12 7 12 16
0 8 4 13 9 9 5 -3 15 10 22 29 7 19 16 33 21 30 4 -3 8 1 8 10 0 18 32 76 42
76 4 0 5 7 2 15 -4 8 -1 15 5 15 7 0 11 6 10 13 -1 6 4 26 11 42 7 17 13 33
12 38 -1 4 2 7 6 7 4 0 8 10 9 22 1 11 6 24 10 27 4 3 9 15 10 26 8 61 16 101
22 110 4 6 6 20 5 33 0 12 1 22 5 22 9 0 7 233 -2 248 -5 7 -3 12 4 12 9 0 9
3 0 14 -9 11 -9 15 1 19 10 4 10 6 -1 6 -11 1 -11 4 0 18 8 9 9 14 2 10 -7 -5
-14 10 -19 45 -4 29 -7 56 -6 61 1 4 -2 7 -6 7 -4 0 -9 8 -10 18 -4 34 -8 52
-15 58 -4 4 -7 18 -7 30 0 13 -5 26 -10 29 -6 4 -8 10 -5 15 3 5 -2 13 -11 18
-9 5 -15 12 -15 15 3 24 -1 38 -16 53 -10 10 -16 18 -13 19 8 2 -33 77 -58
105 -12 14 -25 33 -28 43 -3 9 -10 17 -15 17 -5 0 -9 4 -9 9 0 11 -61 82 -102
119 -15 14 -25 30 -21 36 3 6 2 8 -2 3 -5 -4 -22 5 -38 20 -17 16 -27 22 -23
16z"/>
<path d="M4307 5524 c-1 -1 -29 -5 -62 -7 -33 -3 -61 -6 -62 -7 -2 -2 -11 -3
-20 -4 -10 -1 -24 -5 -30 -9 -7 -5 -13 -6 -13 -2 0 3 -15 -1 -32 -8 -18 -8
-36 -15 -41 -15 -35 -7 -57 -16 -57 -24 0 -5 -4 -7 -9 -3 -5 3 -12 1 -16 -5
-4 -6 -10 -8 -15 -5 -4 3 -13 -2 -20 -10 -7 -8 -16 -12 -21 -9 -5 3 -9 0 -9
-5 0 -6 -7 -11 -15 -11 -8 0 -15 -4 -15 -10 0 -5 -7 -10 -15 -10 -8 0 -15 -5
-15 -12 0 -6 -3 -9 -6 -5 -6 6 -12 1 -81 -63 -23 -21 -44 -36 -47 -33 -3 4 -6
1 -6 -5 0 -7 -17 -29 -37 -50 -21 -21 -39 -45 -41 -53 -2 -8 -8 -15 -13 -17
-5 -2 -9 -8 -9 -13 0 -5 -8 -18 -17 -29 -10 -11 -18 -24 -19 -28 -1 -14 -27
-62 -33 -62 -4 0 -7 -10 -8 -21 -1 -12 -10 -30 -19 -40 -12 -13 -13 -19 -4
-19 10 0 10 -3 0 -15 -7 -9 -10 -18 -7 -21 3 -4 -1 -13 -9 -21 -8 -8 -12 -19
-9 -24 4 -5 3 -9 -2 -9 -4 0 -9 -12 -10 -27 -1 -16 -4 -46 -7 -68 -10 -81 -6
-235 9 -287 7 -26 35 -40 35 -19 0 6 8 8 19 6 10 -2 30 3 44 10 14 7 28 10 31
7 9 -8 35 31 29 42 -3 4 -7 27 -9 50 -1 22 -3 43 -4 46 -3 9 2 92 6 114 4 22
14 73 18 91 1 6 5 16 9 23 5 7 3 12 -5 12 -10 0 -10 2 1 9 8 5 16 15 17 23 1
7 11 34 23 61 11 26 20 50 20 53 0 3 8 12 18 19 10 7 18 17 18 22 0 15 62 93
68 86 4 -3 7 -1 7 6 0 6 18 30 40 52 22 22 40 37 40 33 0 -5 7 2 16 14 8 12
20 20 25 17 5 -4 12 1 15 9 3 9 13 16 21 16 8 0 11 5 7 12 -4 6 -3 8 3 5 6 -4
33 5 62 19 28 14 59 27 68 29 10 2 18 4 18 5 0 2 29 9 60 15 11 2 34 7 50 11
64 15 291 2 280 -16 -2 -4 5 -8 18 -8 48 -2 137 -41 214 -93 47 -32 183 -165
183 -179 0 -4 11 -20 24 -35 14 -16 23 -32 20 -37 -3 -4 -2 -8 3 -8 4 0 13
-11 20 -25 8 -19 8 -23 0 -18 -7 3 -4 -3 6 -14 9 -11 17 -27 17 -37 0 -9 4
-14 10 -11 5 3 7 0 4 -9 -3 -8 -2 -21 2 -28 5 -7 10 -20 11 -28 12 -59 15 -81
17 -126 2 -28 6 -56 10 -62 4 -7 3 -12 -2 -12 -5 0 -9 -19 -9 -42 -1 -49 -9
-97 -25 -148 -7 -19 -13 -41 -14 -49 -2 -8 -8 -17 -15 -21 -6 -4 -9 -12 -6
-17 4 -6 -4 -21 -16 -34 -12 -13 -21 -26 -21 -29 2 -10 -19 -50 -28 -50 -4 0
-8 -5 -8 -11 0 -7 -10 -20 -22 -30 -11 -11 -18 -19 -15 -19 3 0 -13 -20 -36
-44 -23 -24 -45 -42 -49 -39 -5 2 -8 -3 -8 -12 0 -9 -4 -13 -10 -10 -5 3 -10
1 -10 -4 0 -6 -6 -11 -14 -11 -8 0 -16 -3 -18 -7 -7 -18 -104 -72 -138 -78 -3
0 -16 -7 -30 -15 -14 -7 -25 -12 -25 -11 0 2 -19 -2 -43 -8 -23 -7 -47 -9 -52
-6 -6 3 -10 2 -10 -3 0 -5 -20 -8 -45 -8 -25 1 -45 -3 -45 -8 0 -5 -5 -5 -12
0 -7 5 -41 9 -75 9 -35 0 -63 2 -63 5 0 3 -10 6 -22 6 -31 3 -56 9 -64 16 -3
4 -12 4 -20 1 -8 -3 -14 0 -14 6 0 6 -3 10 -7 10 -19 -3 -33 2 -47 17 -10 9
-16 11 -16 4 0 -7 -6 -5 -16 4 -8 9 -22 16 -30 16 -8 0 -12 5 -9 10 3 6 -3 10
-14 10 -12 0 -21 4 -21 8 0 4 -14 16 -30 26 -57 33 -187 176 -173 190 4 3 2 6
-4 6 -12 0 -53 73 -53 94 0 8 -5 16 -10 18 -6 2 -12 13 -13 25 0 12 -4 20 -8
17 -4 -2 -10 2 -12 8 -4 10 -8 10 -15 -1 -5 -7 -15 -10 -21 -7 -6 4 -11 2 -11
-5 0 -7 -3 -9 -6 -6 -4 3 -15 2 -25 -4 -13 -7 -19 -6 -19 1 0 6 -10 2 -21 -9
-15 -14 -19 -25 -14 -38 5 -10 9 -24 11 -32 1 -7 7 -18 13 -24 6 -6 11 -17 11
-25 0 -7 7 -20 15 -29 8 -8 13 -19 10 -24 -4 -5 -1 -9 4 -9 6 0 11 -6 11 -14
0 -7 7 -19 15 -26 9 -7 14 -15 11 -17 -12 -12 201 -223 226 -223 6 0 8 -3 5
-7 -4 -3 11 -14 34 -24 22 -10 38 -23 35 -28 -3 -5 3 -7 14 -4 11 3 20 1 20
-4 0 -11 106 -58 123 -55 4 1 7 -2 7 -6 0 -4 11 -9 26 -10 14 -1 34 -7 45 -12
14 -8 19 -7 19 2 0 10 2 10 8 1 4 -7 28 -14 52 -17 25 -2 45 -5 45 -6 0 -1 37
-3 83 -4 49 0 82 3 82 9 0 5 5 3 10 -5 7 -11 10 -11 10 -2 0 7 4 11 8 8 5 -3
35 1 67 9 33 7 63 11 67 9 5 -3 8 0 8 6 0 6 6 10 13 8 6 -1 21 3 32 9 11 6 24
11 28 11 16 0 67 25 67 33 0 5 7 6 15 3 8 -4 15 -2 15 4 0 6 14 13 30 17 17 4
30 11 30 16 0 4 12 15 28 23 15 8 40 26 55 41 15 15 27 24 27 19 0 -5 9 5 20
21 11 17 20 26 20 22 0 -5 7 -2 15 7 8 8 15 20 15 27 0 7 3 9 6 6 6 -6 44 35
44 47 0 7 13 24 43 57 9 10 14 19 10 19 -3 0 1 8 9 18 17 19 32 53 30 65 -1 4
3 7 8 7 6 0 10 5 10 10 0 6 7 27 17 48 9 20 17 39 17 42 1 3 5 11 10 19 7 10
6 12 -4 6 -10 -6 -11 -4 -4 6 5 8 9 17 10 22 1 4 2 8 4 10 24 29 32 379 8 397
-4 3 -8 17 -10 30 -2 14 -7 31 -11 38 -5 6 -6 12 -2 12 3 0 -1 13 -10 30 -8
16 -16 32 -16 35 0 6 -36 82 -54 115 -18 32 -37 59 -52 76 -7 7 -13 15 -13 18
0 4 -13 20 -30 38 -16 17 -30 35 -30 40 0 5 -4 6 -10 3 -5 -3 -10 1 -10 9 0 8
-9 18 -20 21 -11 3 -20 14 -20 22 0 9 -3 13 -7 10 -3 -4 -19 7 -35 23 -15 16
-28 27 -28 24 0 -3 -20 9 -44 26 -25 16 -50 30 -56 30 -6 0 -9 4 -6 8 3 5 0 9
-7 10 -7 0 -19 3 -27 5 -49 15 -60 20 -60 27 0 8 -58 24 -79 21 -8 -2 -10 2
-5 10 4 8 3 10 -4 5 -7 -4 -18 -4 -24 1 -7 4 -22 8 -33 9 -11 1 -42 5 -70 9
-56 8 -134 13 -138 9z"/>
<path d="M857 5466 c-4 -10 -12 -14 -19 -10 -10 6 -11 5 -1 -8 7 -8 10 -17 7
-20 -2 -3 2 -8 10 -11 20 -8 47 19 40 38 -4 8 -10 13 -14 10 -5 -3 -10 0 -12
7 -3 7 -7 5 -11 -6z"/>
<path d="M1073 5333 c-12 -3 -28 -18 -37 -37 -44 -94 39 -183 130 -140 34 16
48 42 48 91 0 63 -61 100 -141 86z"/>
<path d="M1680 5272 c0 -7 -4 -10 -10 -7 -5 3 -10 3 -11 -2 0 -4 -2 -16 -4
-25 -2 -10 1 -18 6 -18 5 0 8 -5 7 -12 -2 -6 6 -14 17 -16 23 -5 38 -24 25
-32 -4 -3 -10 -12 -12 -20 -2 -8 -8 -20 -15 -27 -6 -7 -9 -27 -6 -45 13 -89
98 -146 166 -111 15 7 27 10 27 6 0 -3 13 11 28 32 34 44 37 105 10 147 -11
17 -14 29 -8 33 14 9 12 28 -4 51 -14 19 -15 19 -33 -1 -24 -26 -43 -29 -57
-10 -6 8 -28 17 -48 18 -24 2 -44 11 -57 28 -11 13 -20 18 -21 11z"/>
<path d="M6625 5264 c-8 -9 -15 -21 -15 -28 0 -17 25 -38 33 -29 4 3 7 1 7 -6
0 -9 3 -9 14 1 11 11 13 29 7 59 -3 15 -32 17 -46 3z"/>
<path d="M554 5260 c-12 -5 -25 -13 -29 -19 -3 -6 -10 -9 -15 -6 -14 8 -17
-65 -3 -84 7 -10 10 -21 8 -25 -3 -3 -2 -4 2 -1 3 3 13 -1 21 -8 34 -27 111
-3 118 38 1 5 5 18 9 28 5 11 3 17 -6 17 -7 0 -9 3 -6 6 10 10 -12 44 -28 44
-8 0 -15 4 -15 8 0 11 -30 12 -56 2z"/>
<path d="M2046 5165 c-3 -8 2 -19 10 -25 11 -10 14 -10 14 -1 0 7 5 9 11 5 7
-4 10 0 7 11 -4 22 -35 29 -42 10z"/>
<path d="M2315 5071 c-3 -2 -5 -15 -5 -28 0 -16 5 -22 18 -20 28 4 40 16 35
35 -4 16 -37 25 -48 13z"/>
<path d="M4350 5054 c0 -14 -4 -23 -8 -20 -4 2 -7 -11 -7 -29 1 -19 -2 -32 -7
-29 -4 3 -8 -2 -8 -11 0 -9 -7 -23 -15 -32 -8 -8 -13 -19 -10 -24 4 -5 2 -9
-3 -9 -5 0 -20 -15 -33 -34 -13 -19 -32 -37 -42 -40 -11 -2 -16 -9 -13 -14 3
-5 -8 -15 -24 -22 -17 -7 -30 -17 -30 -22 0 -5 -4 -7 -9 -3 -5 3 -17 -2 -26
-11 -15 -16 -14 -18 12 -35 15 -10 40 -24 55 -30 16 -6 28 -16 28 -21 0 -5 5
-6 10 -3 6 3 10 2 10 -3 0 -4 16 -14 35 -22 19 -8 35 -18 35 -22 0 -5 5 -6 10
-3 6 3 10 1 10 -4 0 -6 7 -11 16 -11 9 0 12 5 8 13 -5 9 -4 9 6 0 16 -15 21
-132 7 -150 -5 -8 -6 -13 0 -13 5 0 8 -57 8 -126 0 -118 6 -158 19 -117 3 10
6 22 5 26 0 5 10 17 22 28 12 10 19 19 15 19 -5 0 20 28 55 63 35 34 67 61 71
59 4 -1 8 2 8 8 0 5 7 10 15 10 8 0 15 5 15 11 0 6 7 8 16 5 8 -3 12 -2 9 4
-3 6 -1 10 6 10 17 0 0 17 -21 22 -8 2 -19 8 -25 15 -5 6 -34 23 -62 38 -29
15 -53 32 -53 37 0 6 -6 8 -14 5 -8 -3 -17 1 -20 9 -3 8 -12 14 -21 14 -8 0
-15 5 -15 10 0 6 -6 10 -13 10 -10 0 -13 15 -11 58 1 31 3 62 4 67 1 6 1 13 0
18 -6 19 -5 33 5 39 6 5 6 8 0 8 -6 0 -10 53 -10 140 0 77 -3 140 -7 140 -5 0
-8 -12 -8 -26z"/>
<path d="M7639 5048 c-9 -30 -5 -39 13 -36 27 4 33 38 7 38 -10 0 -19 -1 -20
-2z"/>
<path d="M2099 4968 c-7 -26 -5 -44 9 -54 20 -14 42 4 42 35 0 16 -6 21 -25
21 -14 0 -25 -1 -26 -2z"/>
<path d="M8516 4955 c-8 -8 -12 -23 -9 -33 4 -17 14 -19 53 -13 13 2 4 40 -12
50 -13 8 -21 7 -32 -4z"/>
<path d="M6910 4950 c-18 -11 -21 -37 -5 -50 18 -15 42 -2 48 26 2 14 2 22 -1
19 -3 -2 -10 -1 -16 5 -7 5 -18 5 -26 0z"/>
<path d="M2891 4926 c-11 -13 -14 -27 -27 -121 -9 -65 -11 -277 -3 -312 5 -22
3 -33 -5 -33 -7 0 -7 -3 -1 -8 6 -4 11 -18 12 -32 1 -29 8 -61 22 -108 5 -18
7 -40 4 -48 -3 -8 -1 -14 4 -14 5 0 9 -9 10 -20 1 -11 8 -33 16 -48 7 -16 13
-36 11 -45 -1 -9 2 -17 7 -17 5 0 9 -8 9 -18 0 -10 3 -22 8 -26 4 -4 7 -11 8
-14 3 -21 48 -112 55 -112 5 0 9 -8 9 -19 0 -10 7 -24 15 -31 8 -7 12 -16 9
-21 -3 -5 0 -9 5 -9 6 0 11 -7 11 -15 0 -7 8 -18 17 -24 10 -5 15 -12 11 -16
-3 -3 5 -18 18 -32 13 -14 24 -32 24 -39 0 -8 7 -14 15 -14 8 0 15 -6 15 -13
0 -7 9 -19 20 -27 11 -8 20 -18 20 -23 0 -5 36 -45 80 -89 44 -44 80 -76 80
-73 0 4 13 -7 29 -24 15 -16 31 -27 35 -24 3 3 6 1 6 -5 0 -7 7 -12 15 -12 8
0 15 -8 15 -17 0 -9 3 -14 6 -11 3 4 22 -5 41 -18 20 -13 42 -24 50 -24 8 0
12 -4 8 -9 -5 -9 32 -27 48 -23 4 1 7 -2 7 -7 0 -5 10 -13 23 -17 12 -3 35
-16 51 -27 16 -12 27 -16 23 -10 -5 8 0 8 18 0 14 -7 25 -15 25 -19 0 -5 10
-8 23 -8 13 0 27 -4 32 -8 12 -10 90 -35 110 -35 8 0 15 -3 15 -6 0 -4 12 -8
26 -9 14 -1 31 -5 37 -9 7 -4 18 -8 27 -9 8 -1 31 -4 50 -7 19 -3 55 -9 80
-13 25 -4 57 -7 73 -7 15 -1 27 -5 27 -11 0 -7 3 -8 8 -1 10 14 32 17 32 4 0
-8 5 -8 15 1 8 7 15 8 15 3 0 -15 80 -6 92 11 4 6 5 36 3 68 -4 62 -23 96 -44
75 -8 -8 -11 -8 -11 2 0 10 -3 11 -14 2 -9 -7 -17 -8 -20 -2 -7 10 -25 9 -43
-2 -7 -5 -13 -5 -13 0 0 4 -28 9 -63 10 -82 2 -141 8 -154 16 -6 4 -24 8 -42
9 -17 1 -31 7 -31 12 0 5 -3 7 -6 4 -3 -4 -20 -2 -37 4 -18 5 -39 11 -47 13
-8 2 -16 4 -17 5 -2 2 -6 3 -10 5 -5 1 -21 8 -38 15 -16 7 -36 14 -44 16 -7 1
-18 7 -24 13 -6 6 -19 11 -29 11 -10 0 -18 5 -18 10 0 6 -7 10 -15 10 -8 0
-15 4 -15 10 0 5 -3 9 -7 8 -15 -3 -62 25 -57 34 3 5 2 7 -3 6 -12 -3 -55 22
-74 43 -9 10 -18 17 -20 14 -3 -2 -26 15 -51 39 -26 24 -50 41 -53 38 -3 -3
-5 2 -5 11 0 10 -4 17 -8 17 -10 0 -52 35 -52 43 0 3 -15 21 -32 40 -48 50
-68 76 -68 87 0 6 -5 10 -11 10 -5 0 -7 5 -4 10 3 6 -1 10 -9 10 -9 0 -16 9
-16 20 0 11 -4 20 -9 20 -5 0 -14 14 -21 30 -7 17 -16 30 -21 30 -5 0 -8 3 -7
8 2 7 -23 63 -32 72 -7 7 -32 73 -33 88 0 6 -5 12 -10 12 -5 0 -7 7 -3 15 3 8
1 15 -4 15 -6 0 -9 3 -8 8 0 4 -2 14 -5 22 -4 8 -8 26 -10 40 -2 14 -8 33 -12
43 -4 10 -9 28 -10 40 -1 12 -3 22 -5 22 -1 0 -3 11 -5 25 -5 56 -16 124 -21
131 -2 4 0 11 6 14 8 5 8 11 0 20 -7 8 -10 33 -9 57 2 24 -1 49 -5 56 -4 7 -3
12 3 12 5 0 8 16 7 35 -2 19 -1 35 3 35 3 0 7 17 7 38 1 20 4 56 7 80 4 45 0
52 -36 57 -37 6 -80 16 -88 20 -4 3 -12 -1 -18 -9z"/>
<path d="M1114 4896 c-12 -13 -7 -37 9 -48 14 -9 20 -51 6 -43 -6 5 -6 0 1
-12 13 -19 53 -27 47 -8 -2 5 3 16 12 23 9 8 12 12 6 9 -5 -2 -18 4 -27 15
-10 10 -14 18 -8 18 5 0 9 11 8 24 -1 14 -6 22 -10 20 -4 -3 -8 -1 -8 4 0 12
-24 11 -36 -2z"/>
<path d="M2333 4854 c-9 -24 5 -44 32 -44 21 0 25 5 25 29 0 24 -4 29 -26 29
-14 0 -28 -7 -31 -14z"/>
<path d="M6482 4863 c-6 -2 -10 -9 -6 -14 3 -5 0 -9 -6 -9 -7 0 -10 -6 -7 -12
2 -7 0 -21 -4 -30 -7 -13 -2 -22 21 -38 17 -12 30 -18 30 -14 0 5 5 3 12 -4
10 -10 17 -6 35 14 53 62 0 137 -75 107z"/>
<path d="M7026 4843 c-4 -4 -13 -8 -19 -8 -7 -1 -11 -6 -9 -13 1 -7 -2 -12 -7
-12 -13 0 -5 -56 12 -80 8 -11 17 -17 20 -13 4 3 7 1 7 -4 0 -6 8 -10 18 -8 9
2 23 4 30 4 18 1 45 37 49 63 6 44 -73 99 -101 71z"/>
<path d="M1748 4809 c-14 -8 -15 -14 -6 -34 10 -23 12 -23 25 -7 8 9 12 11 8
5 -3 -7 -1 -13 4 -13 6 0 11 3 12 8 0 4 2 15 4 25 2 11 1 16 -2 13 -4 -3 -11
-2 -17 3 -7 6 -18 6 -28 0z"/>
<path d="M862 4794 c-15 -17 -15 -29 1 -42 16 -14 36 -2 41 25 5 25 -23 36
-42 17z"/>
<path d="M1856 4768 c3 -4 0 -8 -6 -8 -6 0 -8 -4 -5 -10 3 -5 1 -10 -5 -10 -6
0 -8 -4 -5 -10 3 -5 2 -10 -4 -10 -12 0 -2 -32 12 -42 15 -9 47 14 47 34 0 10
4 18 10 18 5 0 8 10 7 22 -3 16 -11 22 -30 23 -14 1 -24 -2 -21 -7z"/>
<path d="M6803 4725 c0 -8 5 -11 11 -8 7 5 7 2 0 -8 -16 -19 -4 -44 21 -44 27
0 44 16 39 39 -5 25 -6 26 -41 30 -20 3 -30 0 -30 -9z"/>
<path d="M1732 4661 c-18 -11 -4 -40 18 -38 12 1 16 5 11 12 -5 5 -10 15 -12
22 -2 7 -9 9 -17 4z"/>
<path d="M1393 4643 c-9 -3 -10 -10 -3 -22 5 -10 6 -21 3 -25 -3 -3 -1 -6 5
-6 6 0 14 5 17 10 4 6 10 8 15 5 13 -8 20 21 7 34 -12 12 -24 13 -44 4z"/>
<path d="M6737 4630 c-3 -13 1 -21 15 -26 25 -7 41 7 32 29 -9 23 -41 21 -47
-3z"/>
<path d="M1563 4633 c-7 -2 -13 -11 -13 -19 0 -9 -5 -12 -12 -9 -7 4 -2 -3 11
-14 13 -12 27 -21 31 -21 9 0 28 21 30 33 1 8 -25 38 -32 36 -2 0 -9 -3 -15
-6z"/>
<path d="M6574 4557 c-9 -5 -22 -6 -30 -3 -8 3 -14 1 -14 -5 0 -6 -4 -7 -10
-4 -5 3 -10 1 -10 -5 0 -6 -4 -8 -10 -5 -15 9 -100 -82 -106 -115 -4 -16 -10
-30 -13 -30 -10 0 -6 -80 5 -110 5 -14 9 -32 8 -40 -1 -8 -2 -21 -3 -28 0 -7
-5 -10 -11 -7 -5 3 -10 0 -10 -9 0 -21 -20 -25 -62 -10 -21 7 -38 11 -38 7 0
-3 -7 0 -15 7 -9 7 -18 10 -22 7 -3 -4 -12 -2 -20 5 -7 6 -16 8 -19 5 -3 -3
-18 -1 -33 4 -14 6 -37 12 -51 14 -75 12 -96 16 -110 22 -8 3 -27 7 -41 9 -24
3 -28 -1 -40 -44 -7 -26 -12 -50 -11 -54 1 -5 -3 -8 -9 -8 -5 0 -7 -4 -4 -10
3 -5 -1 -23 -10 -40 -9 -17 -13 -35 -10 -39 3 -5 0 -11 -5 -13 -6 -2 -12 -10
-14 -18 -4 -21 -24 -69 -46 -112 -10 -20 -16 -39 -13 -42 4 -3 1 -6 -5 -6 -7
0 -12 -4 -12 -9 0 -16 -81 -151 -91 -151 -5 0 -8 -3 -8 -7 3 -20 -2 -34 -11
-28 -5 3 -10 2 -10 -4 0 -5 6 -12 13 -14 9 -4 9 -6 0 -6 -14 -1 -6 -31 9 -31
5 0 6 6 3 13 -4 6 2 3 12 -8 10 -11 30 -26 45 -34 15 -8 24 -19 21 -25 -3 -6
-3 -8 1 -4 5 4 19 3 33 -3 16 -6 22 -6 18 1 -3 6 1 13 9 16 9 3 16 13 16 21 0
8 5 11 10 8 6 -3 10 0 10 8 0 8 7 20 15 27 8 7 13 16 10 20 -3 4 2 11 11 14 8
3 13 10 10 15 -4 5 -2 11 3 13 5 1 11 9 13 17 2 8 10 22 18 31 14 15 17 15 42
-4 15 -10 25 -23 22 -27 -3 -5 2 -6 11 -3 8 4 26 -1 40 -10 14 -9 30 -14 34
-11 5 3 11 1 13 -3 4 -12 58 -25 58 -15 0 5 11 21 25 37 28 32 31 41 13 30
-14 -9 10 26 27 38 6 5 6 8 1 8 -6 0 -1 7 10 16 10 8 13 12 6 9 -8 -4 -2 15
13 41 15 27 26 50 25 52 -5 6 57 162 64 162 1 0 3 -7 3 -15 0 -21 45 -115 55
-115 4 0 8 -7 8 -17 0 -9 3 -13 6 -10 4 4 14 -1 23 -11 25 -27 73 -48 109 -47
17 0 32 -3 32 -6 0 -20 141 18 155 41 3 5 11 8 16 5 5 -4 9 2 9 11 0 10 3 14
7 11 7 -8 39 34 35 46 -1 4 5 7 13 7 8 0 14 3 14 8 -3 20 2 43 9 39 10 -7 9
125 -1 141 -5 6 -5 12 -1 12 3 0 0 10 -8 23 -19 29 -29 67 -16 67 5 0 7 4 3 9
-3 5 -1 12 3 15 12 7 7 88 -7 113 -5 11 -7 23 -4 27 3 3 1 6 -6 6 -7 0 -9 5
-6 10 3 6 -1 10 -10 10 -9 0 -14 4 -11 9 7 11 -64 72 -75 65 -5 -3 -9 0 -9 5
0 6 -12 11 -26 11 -14 0 -23 3 -21 8 7 10 -51 9 -69 -1z"/>
<path d="M7303 4563 c-15 -6 -16 -22 -4 -42 8 -12 13 -11 29 10 14 17 17 26 9
31 -13 9 -17 9 -34 1z"/>
<path d="M6198 4450 c-9 -10 -12 -25 -7 -42 4 -15 4 -29 1 -32 -3 -3 1 -6 9
-7 8 -1 26 -2 40 -3 20 -2 31 4 43 26 17 27 17 29 -7 50 -30 26 -61 30 -79 8z"/>
<path d="M7560 4421 c-24 -20 -32 -35 -35 -66 -3 -51 24 -105 54 -105 6 0 11
-4 11 -8 0 -15 63 -12 97 5 18 8 33 22 33 29 0 8 5 14 10 14 7 0 10 20 9 50
-2 40 -8 55 -31 77 -41 39 -104 41 -148 4z"/>
<path d="M2033 4432 c-21 -14 -20 -62 2 -62 8 0 15 -8 14 -17 0 -11 -3 -13 -6
-6 -6 15 -24 0 -38 -32 -13 -31 -11 -48 8 -75 9 -13 17 -21 17 -16 0 5 6 4 13
-1 24 -18 77 1 77 28 0 10 4 19 8 19 5 0 9 7 9 15 0 8 -5 15 -10 15 -6 0 -8 3
-4 6 8 8 -23 39 -48 48 -11 4 -15 10 -9 14 9 6 10 15 6 48 -2 15 -26 24 -39
16z"/>
<path d="M7321 4412 c-6 -12 -5 -23 5 -37 18 -24 17 -24 38 -6 25 21 12 60
-21 61 -7 0 -17 -8 -22 -18z"/>
<path d="M1179 4413 c0 -5 -2 -18 -3 -30 -1 -12 1 -20 6 -17 4 3 8 0 8 -6 0
-6 12 -4 31 5 25 14 28 19 18 31 -7 9 -21 13 -31 11 -10 -3 -16 -1 -12 4 3 5
0 9 -5 9 -6 0 -11 -3 -12 -7z"/>
<path d="M1265 4400 c-3 -11 -3 -24 0 -30 9 -15 32 -12 39 5 8 21 6 31 -5 28
-5 -2 -9 2 -9 7 0 18 -18 11 -25 -10z"/>
<path d="M891 4378 c-19 -7 -21 -11 -11 -23 7 -9 14 -25 15 -38 4 -37 5 -38
15 -32 6 3 10 1 10 -6 0 -7 3 -9 7 -6 3 4 7 31 9 60 3 57 -2 61 -45 45z"/>
<path d="M1692 4318 c-19 -10 -31 -14 -27 -8 3 5 2 10 -2 10 -14 0 -30 -34
-28 -62 1 -16 -1 -28 -6 -28 -4 0 -6 -8 -4 -17 2 -10 4 -23 4 -29 1 -16 63
-78 81 -83 36 -8 46 -8 58 2 6 5 12 7 12 3 0 -4 11 1 25 10 13 8 29 13 34 9 7
-4 8 1 4 11 -4 11 -2 15 4 11 16 -10 34 43 30 88 -3 34 -10 45 -44 69 -49 34
-97 39 -141 14z"/>
<path d="M3340 4333 c0 -5 -11 -10 -26 -11 -14 -1 -34 -7 -45 -12 -10 -6 -19
-7 -19 -3 0 4 -5 1 -10 -7 -8 -12 -10 -12 -10 -1 0 11 -4 10 -19 -3 -18 -17
-18 -18 1 -57 11 -23 20 -49 21 -60 1 -10 4 -19 8 -19 3 0 12 -18 19 -40 7
-22 17 -40 22 -40 4 0 8 -7 8 -15 0 -20 96 -161 134 -198 30 -29 33 -28 76 13
8 8 29 25 45 38 17 13 23 20 15 16 -12 -6 -13 -5 -3 7 10 12 8 18 -7 29 -11 8
-20 19 -20 24 0 5 -10 17 -22 27 -11 11 -18 19 -15 19 3 0 -10 24 -29 52 -19
29 -34 58 -34 64 0 7 -3 14 -7 16 -9 4 -56 116 -56 133 0 6 -6 16 -14 23 -7 7
-13 9 -13 5z"/>
<path d="M926 4265 c-17 -13 -17 -15 -3 -30 10 -9 18 -11 22 -5 4 6 11 7 17 4
7 -5 -3 24 -16 43 -1 1 -9 -5 -20 -12z"/>
<path d="M265 4233 c-8 -7 -18 -14 -22 -14 -4 -1 -7 -5 -5 -10 1 -5 -3 -9 -9
-9 -5 0 -7 -4 -4 -10 3 -5 1 -10 -6 -10 -8 0 -10 -12 -5 -41 6 -40 44 -88 72
-90 8 -1 20 -2 27 -3 6 -1 17 0 22 3 6 3 12 6 15 6 13 1 49 33 43 38 -3 4 -2
7 3 7 6 0 11 19 12 43 2 33 -3 48 -23 70 -14 15 -31 27 -38 28 -7 1 -25 2 -40
3 -16 2 -35 -3 -42 -11z"/>
<path d="M1340 4160 c-13 -9 -13 -10 0 -10 13 0 13 -1 0 -10 -10 -6 -11 -10
-2 -10 6 0 12 -6 12 -14 0 -20 37 -8 43 14 8 32 -22 50 -53 30z"/>
<path d="M1864 4126 c-21 -12 -41 -23 -44 -26 -3 -3 -19 -16 -37 -28 -17 -12
-40 -40 -49 -62 -10 -22 -21 -40 -24 -40 -4 0 -6 -31 -6 -69 1 -38 -2 -67 -6
-65 -3 2 3 -15 15 -38 12 -24 25 -44 30 -46 4 -2 7 -8 7 -14 0 -11 70 -82 70
-70 0 4 5 0 10 -8 5 -8 13 -15 17 -16 4 0 15 -3 23 -6 49 -19 81 -25 125 -23
55 2 132 32 154 58 7 10 20 17 28 17 8 0 11 5 7 12 -4 6 -3 8 3 5 6 -4 9 -19
7 -35 -3 -29 32 -82 55 -82 6 0 11 -4 11 -9 0 -5 11 -8 25 -6 14 1 25 -2 25
-6 0 -11 70 21 90 41 30 29 40 70 31 135 -2 17 -59 75 -63 64 -2 -5 -13 -1
-25 10 -13 13 -24 17 -28 11 -4 -6 -10 -8 -14 -5 -5 2 -17 -2 -27 -10 -24 -18
-48 -20 -37 -2 9 15 13 108 4 122 -3 6 -6 17 -8 25 -4 28 -28 66 -70 109 -24
24 -43 40 -43 35 0 -5 -4 -4 -8 1 -32 44 -181 57 -248 21z m386 -346 c0 -5 -2
-10 -4 -10 -3 0 -8 5 -11 10 -3 6 -1 10 4 10 6 0 11 -4 11 -10z m-17 -24 c4
-10 1 -13 -8 -9 -8 3 -12 9 -9 14 7 12 11 11 17 -5z m-13 -37 c0 -5 -4 -9 -8
-9 -5 0 -9 7 -9 15 0 8 4 12 9 9 4 -3 8 -9 8 -15z"/>
<path d="M2324 4108 c3 -13 5 -28 5 -33 1 -13 41 -17 42 -4 1 5 2 15 3 22 3
19 -14 37 -35 37 -14 0 -18 -6 -15 -22z"/>
<path d="M1500 4080 c-8 -5 -18 -6 -22 -4 -4 3 -8 -6 -8 -19 0 -28 28 -40 52
-23 22 16 1 60 -22 46z"/>
<path d="M7085 4052 c-35 -18 -65 -49 -65 -69 0 -7 -5 -13 -11 -13 -6 0 -9 -6
-6 -13 3 -8 1 -20 -3 -27 -5 -8 -6 -19 -2 -25 3 -5 7 -21 8 -34 0 -13 9 -30
19 -38 11 -7 15 -13 11 -13 -11 0 14 -23 49 -46 21 -14 27 -15 20 -4 -8 13 -6
13 8 2 18 -15 85 -14 106 2 8 6 16 10 18 8 5 -4 64 46 63 53 -3 15 7 25 29 27
29 3 60 31 57 50 -7 38 -19 58 -36 58 -10 0 -22 5 -25 10 -4 6 -10 8 -15 5 -5
-3 -17 6 -27 19 -46 58 -136 80 -198 48z"/>
<path d="M7629 3948 c-7 -15 -6 -58 2 -59 5 -1 15 -2 22 -3 6 -1 18 7 25 17
11 14 11 21 2 32 -10 13 -47 21 -51 13z"/>
<path d="M2399 3914 c-5 -16 -3 -30 6 -36 16 -12 22 -9 28 11 3 13 -1 21 -14
24 -11 3 -20 3 -20 1z"/>
<path d="M6333 3870 c-13 -5 -23 -7 -23 -4 0 9 -26 -20 -37 -41 -16 -30 -6
-85 19 -106 11 -11 24 -19 27 -20 3 0 17 -2 30 -5 13 -2 30 1 37 7 8 6 14 9
14 5 0 -3 10 4 22 16 33 33 29 93 -10 129 -23 21 -32 25 -42 16 -10 -9 -11 -9
-6 1 8 14 0 14 -31 2z"/>
<path d="M7740 3811 c0 -7 -5 -9 -11 -5 -8 5 -10 -1 -7 -19 3 -15 2 -24 -3
-22 -14 9 -37 -6 -34 -23 3 -18 25 -18 36 0 4 6 13 8 20 6 21 -8 48 10 45 29
-3 20 -46 52 -46 34z"/>
<path d="M513 3699 c-17 -17 -3 -49 22 -49 28 0 40 26 21 46 -17 17 -28 18
-43 3z"/>
<path d="M5931 3679 c-10 -16 -21 -26 -25 -21 -4 4 -6 3 -5 -3 4 -15 -11 -55
-22 -55 -5 0 -9 -4 -9 -10 0 -10 -15 -31 -57 -78 -13 -13 -20 -28 -17 -33 3
-5 -2 -9 -10 -9 -8 0 -18 -5 -22 -12 -5 -7 -3 -8 6 -3 9 6 11 4 6 -4 -5 -7
-14 -10 -22 -7 -8 3 -11 0 -8 -8 6 -15 -13 -32 -23 -22 -6 6 21 51 45 76 10
10 11 15 3 18 -6 2 -9 8 -5 13 3 5 0 9 -6 9 -6 0 -8 5 -4 12 4 7 3 8 -5 4 -6
-4 -14 0 -17 8 -3 9 -10 13 -15 10 -5 -3 -9 3 -10 13 0 10 -3 13 -5 6 -4 -8
-11 -7 -24 4 -10 9 -17 20 -15 23 8 13 -56 3 -68 -10 -10 -10 -9 -11 3 -5 8 5
3 -3 -12 -18 -16 -14 -28 -31 -28 -37 0 -6 -3 -9 -7 -7 -5 2 -18 -7 -30 -20
-12 -13 -20 -23 -18 -23 2 0 -7 -11 -21 -25 -14 -14 -28 -25 -32 -25 -4 0 -14
-9 -22 -20 -8 -11 -19 -20 -24 -20 -5 0 -16 -8 -25 -18 -9 -10 -32 -29 -51
-42 -19 -13 -41 -31 -48 -40 -11 -13 -12 -13 -6 0 4 8 -4 5 -18 -7 -13 -13
-27 -23 -31 -23 -4 0 -16 -8 -27 -17 -11 -10 -24 -18 -28 -18 -4 0 -18 -8 -32
-17 -14 -9 -32 -18 -40 -20 -8 -2 -21 -9 -28 -16 -8 -7 -18 -10 -23 -7 -5 4
-9 2 -9 -3 0 -5 -10 -13 -22 -17 -13 -4 -25 -8 -28 -9 -3 -2 -18 -8 -35 -15
-16 -6 -37 -14 -45 -18 -8 -3 -19 -7 -25 -8 -5 0 -19 -5 -30 -9 -11 -4 -29
-11 -40 -15 -11 -5 -28 -7 -37 -5 -10 1 -18 -2 -18 -6 0 -5 -9 -7 -20 -5 -11
2 -22 0 -25 -6 -4 -5 -26 -9 -51 -9 -24 0 -44 -3 -44 -8 0 -4 -19 -7 -42 -7
-64 0 -77 -19 -72 -108 2 -39 5 -98 6 -129 1 -32 6 -58 11 -58 4 0 5 -5 2 -11
-9 -14 145 1 269 26 40 8 48 14 42 31 -3 8 -1 14 5 14 6 0 7 5 3 12 -4 6 -8
22 -10 35 -2 24 17 38 70 48 11 2 22 4 24 6 3 2 11 4 54 13 21 5 36 11 34 15
-3 4 4 8 15 9 43 4 48 6 53 19 3 8 10 11 16 8 6 -4 25 3 44 14 18 12 41 21 50
21 9 0 16 4 16 8 0 5 20 17 45 28 25 10 45 21 45 25 0 6 32 21 50 24 5 0 42
30 66 53 8 7 14 10 14 6 0 -4 8 0 18 9 10 10 22 14 27 10 4 -5 5 -3 1 4 -11
20 30 36 48 18 8 -8 19 -15 24 -15 5 0 27 -12 48 -27 39 -26 95 -33 119 -13 5
4 15 9 20 9 20 1 43 61 38 99 -5 38 -29 75 -43 67 -5 -3 -10 -2 -13 2 -2 5 -2
2 -1 -4 2 -7 -4 -13 -12 -13 -9 0 -12 -5 -8 -12 4 -7 3 -8 -5 -4 -9 6 -9 11
-1 21 10 12 7 12 -14 2 -16 -8 -21 -14 -13 -19 9 -6 9 -8 0 -8 -6 0 -15 5 -18
10 -5 8 -11 8 -20 0 -22 -19 -24 13 -2 33 25 21 27 21 27 1 0 -8 -4 -13 -9 -9
-5 3 -12 1 -15 -4 -4 -5 2 -8 11 -7 9 2 19 8 21 14 2 7 7 10 11 7 5 -2 17 3
27 11 10 9 13 13 7 9 -7 -3 -13 -1 -13 4 0 6 -8 11 -17 11 -14 0 -15 2 -5 9 8
4 13 11 13 15 -3 19 0 27 8 22 5 -4 11 0 14 6 4 10 7 11 18 1 11 -11 11 -13 0
-13 -7 0 -11 -6 -8 -14 4 -11 1 -13 -10 -9 -11 4 -14 2 -9 -5 4 -7 16 -12 27
-12 11 0 17 -4 14 -10 -3 -5 1 -10 10 -10 9 0 13 -4 10 -10 -3 -5 -1 -10 5
-10 6 0 8 -4 5 -10 -4 -6 12 -10 39 -10 30 0 46 4 46 13 0 9 3 8 9 -2 7 -10
27 5 84 62 82 82 117 135 97 147 -9 5 -9 9 -1 11 6 2 12 16 13 32 1 15 6 27
11 27 5 0 7 6 4 14 -3 8 -1 16 5 18 10 4 -37 60 -54 66 -29 10 -37 15 -34 21
3 4 -4 8 -15 8 -12 1 -27 -9 -38 -28z m-186 -388 c3 -5 1 -12 -5 -16 -5 -3
-10 1 -10 9 0 18 6 21 15 7z"/>
<path d="M3060 3587 c0 -13 -60 -52 -73 -49 -5 2 -6 -1 -3 -6 6 -9 -21 -35
-47 -45 -9 -3 -17 -11 -17 -17 0 -6 -6 -8 -12 -4 -7 4 -10 4 -6 -1 4 -4 3 -14
-2 -21 -8 -9 -1 -22 25 -51 19 -21 35 -41 35 -45 0 -4 5 -19 12 -35 6 -15 11
-31 10 -35 -1 -3 12 -12 28 -19 15 -7 26 -17 24 -21 -3 -4 6 -8 19 -8 30 0 87
-28 94 -46 3 -8 11 -14 17 -14 7 0 22 -9 34 -20 12 -12 22 -18 22 -15 0 3 9
-2 19 -12 11 -10 37 -27 58 -38 21 -11 42 -26 46 -33 5 -7 12 -10 18 -7 5 4 9
3 9 -2 0 -4 12 -14 28 -20 15 -7 33 -22 40 -33 12 -19 10 -20 -28 -16 -22 2
-38 1 -36 -3 3 -4 -2 -20 -9 -36 -18 -37 -38 -88 -39 -97 -1 -3 -4 -10 -8 -14
-24 -23 8 -65 65 -85 20 -7 37 -17 37 -21 0 -4 3 -7 8 -6 12 3 82 -25 82 -34
0 -4 6 -8 14 -8 8 0 14 -8 13 -19 -1 -15 -9 -19 -42 -19 -53 0 -98 -10 -107
-25 -4 -7 -8 -8 -8 -2 0 5 -13 -5 -30 -23 -16 -18 -30 -37 -30 -42 0 -4 -6
-10 -12 -12 -16 -6 -22 -178 -7 -178 6 0 8 -4 5 -9 -3 -5 1 -14 9 -21 8 -7 15
-18 15 -24 0 -7 24 -26 54 -44 39 -24 68 -34 105 -36 28 -1 51 1 51 4 0 3 9 6
21 7 24 2 109 64 102 76 -2 4 1 7 6 7 6 0 11 7 11 15 0 9 7 29 15 45 9 17 11
31 6 35 -6 3 -8 15 -6 27 7 32 -28 102 -71 144 -21 20 -39 42 -40 49 -2 15 33
27 42 14 3 -5 16 -9 30 -9 14 0 33 -4 42 -9 9 -5 35 -12 57 -15 22 -4 56 -9
76 -12 39 -7 45 -2 53 37 3 13 7 34 10 47 4 12 8 31 10 42 8 33 16 42 30 31 7
-6 16 -8 19 -5 3 3 11 2 19 -2 7 -4 28 -9 48 -10 19 -1 76 -5 126 -9 107 -9
102 -14 105 105 2 41 5 79 8 85 7 14 7 94 0 89 -4 -2 -10 4 -13 13 -5 11 -10
13 -17 6 -7 -7 -24 -8 -47 -2 -20 4 -40 6 -44 3 -4 -3 -8 -1 -8 3 0 5 -12 8
-27 7 -16 -1 -32 1 -38 4 -5 3 -27 8 -49 10 -22 2 -48 8 -58 13 -10 6 -23 7
-28 4 -5 -3 -11 -1 -15 4 -3 5 -14 8 -25 6 -11 -2 -20 -1 -20 3 0 4 -10 8 -22
9 -11 1 -24 6 -27 10 -3 4 -16 9 -28 9 -18 1 -23 -4 -23 -21 0 -31 -10 -56
-21 -50 -4 3 -6 -4 -4 -15 2 -11 -2 -20 -8 -20 -7 0 -6 -4 3 -10 12 -8 12 -10
1 -10 -8 0 -11 -3 -8 -7 4 -3 2 -12 -3 -19 -6 -6 -10 -16 -9 -20 1 -5 1 -18 0
-29 -1 -17 -3 -18 -11 -5 -8 12 -10 11 -10 -7 0 -12 -5 -25 -12 -29 -7 -5 -8
-3 -3 6 6 10 3 12 -13 8 -24 -7 -39 19 -22 36 8 8 9 5 4 -9 -4 -11 -4 -17 0
-14 4 4 9 19 12 35 3 16 9 33 14 39 5 7 11 20 14 31 12 62 19 83 26 79 3 -2 7
11 7 30 0 19 -3 33 -6 32 -12 -3 -57 16 -75 32 -10 9 -19 14 -20 12 -2 -7 -96
43 -96 52 0 4 -4 5 -10 2 -5 -3 -10 -1 -10 6 0 7 -3 10 -6 6 -3 -3 -14 2 -25
11 -11 9 -22 16 -25 14 -3 -2 -14 6 -24 18 -10 12 -22 22 -27 22 -15 1 -43 25
-36 31 3 4 -2 7 -12 7 -10 0 -31 14 -47 30 -15 17 -31 30 -34 30 -11 0 -33 28
-27 34 4 3 0 6 -7 6 -8 0 -45 32 -83 72 -68 70 -97 89 -97 65z m410 -608 c0
-5 8 -9 18 -9 10 0 22 -3 26 -7 4 -5 11 -8 14 -8 11 -1 52 -29 52 -37 0 -5
-23 -4 -40 2 -3 1 -9 2 -13 1 -5 -1 -5 4 -1 10 5 9 2 10 -10 6 -14 -5 -17 -3
-12 8 3 8 1 15 -4 15 -6 0 -10 -5 -10 -11 0 -8 -4 -9 -13 0 -8 6 -18 7 -22 3
-5 -4 -6 0 -2 9 3 9 0 22 -6 28 -9 9 -8 11 6 6 9 -4 17 -11 17 -16z m152 -64
c2 3 5 -2 5 -10 0 -8 -4 -15 -9 -15 -4 0 -8 5 -8 11 0 5 -4 8 -8 5 -5 -3 -9 1
-9 9 0 10 4 12 12 5 7 -5 14 -8 17 -5z"/>
<path d="M3530 2946 c0 -2 8 -10 18 -17 15 -13 16 -12 3 4 -13 16 -21 21 -21
13z"/>
<path d="M6422 3538 c-17 -17 -15 -39 7 -67 36 -47 95 0 76 60 -7 22 -63 27
-83 7z"/>
<path d="M6926 3542 c-8 -13 5 -52 18 -52 21 0 35 15 32 35 -3 21 -40 33 -50
17z"/>
<path d="M1415 3530 c-16 -4 -43 -14 -60 -23 -16 -9 -38 -19 -47 -23 -10 -3
-20 -15 -23 -25 -4 -10 -10 -19 -15 -19 -5 0 -17 -17 -27 -37 -26 -55 -22
-166 7 -218 28 -50 84 -103 116 -111 13 -3 24 -9 24 -13 0 -9 6 -9 70 -10 62
-1 80 1 80 9 0 3 10 6 21 7 12 1 31 11 44 23 12 11 25 17 28 13 4 -3 7 -1 7 6
0 6 9 21 20 33 10 12 17 25 14 29 -2 4 3 12 12 17 9 5 15 12 15 15 -1 4 -1 8
0 10 7 16 4 135 -4 145 -5 6 -7 12 -3 12 9 0 -27 65 -45 81 -49 45 -71 62 -65
49 4 -8 1 -7 -7 3 -9 10 -18 18 -21 18 -3 -1 -7 -1 -8 0 -43 13 -97 16 -133 9z"/>
<path d="M8649 3521 c-9 -3 -15 -16 -14 -28 2 -24 15 -45 15 -24 0 7 5 9 10 6
15 -9 40 14 34 30 -7 17 -25 24 -45 16z"/>
<path d="M2747 3504 c2 -7 12 -11 21 -10 21 3 13 20 -10 21 -9 1 -14 -4 -11
-11z"/>
<path d="M6083 3495 c-7 -8 -13 -19 -13 -25 0 -6 -6 -8 -12 -4 -10 6 -10 5 -1
-8 7 -8 10 -18 6 -21 -3 -4 0 -13 7 -22 14 -17 73 -49 65 -34 -4 5 -1 9 5 9
16 0 35 21 42 47 7 28 -38 79 -57 63 -7 -5 -15 -6 -21 -1 -5 6 -14 4 -21 -4z"/>
<path d="M2732 3471 c6 -11 22 -21 35 -24 13 -2 21 -2 19 1 -3 2 0 14 6 26 10
19 10 20 -5 7 -10 -7 -17 -9 -17 -4 0 5 -11 10 -25 11 -22 2 -24 0 -13 -17z"/>
<path d="M1164 3462 c-14 -8 3 -28 23 -27 11 0 42 24 33 26 -3 0 -14 2 -25 4
-11 2 -25 1 -31 -3z m40 -14 c-3 -4 -11 -5 -19 -1 -21 7 -19 12 4 10 11 0 18
-5 15 -9z"/>
<path d="M1835 3411 c-3 -6 -3 -11 2 -10 4 1 10 0 13 -1 21 -8 37 -6 37 6 0 9
-4 11 -12 4 -7 -6 -15 -6 -22 1 -8 8 -13 7 -18 0z"/>
<path d="M8210 3411 c0 -6 -6 -10 -12 -8 -7 1 -14 -8 -16 -20 -2 -13 2 -23 8
-23 6 0 8 -5 5 -10 -4 -6 2 -6 17 1 27 12 33 42 12 60 -10 8 -14 8 -14 0z"/>
<path d="M1800 3406 c0 -2 8 -10 18 -17 15 -13 16 -12 3 4 -13 16 -21 21 -21
13z"/>
<path d="M1910 3393 c5 -2 8 -9 5 -13 -3 -5 -1 -11 4 -14 5 -4 8 2 7 11 -2 9
-8 18 -15 19 -6 1 -7 0 -1 -3z"/>
<path d="M1785 3380 c-3 -5 -1 -10 5 -10 6 0 8 -5 4 -12 -4 -7 -3 -8 4 -4 6 4
9 13 5 21 -6 18 -10 19 -18 5z"/>
<path d="M2630 3371 c0 -7 -4 -9 -10 -6 -16 10 -12 -11 5 -25 12 -10 16 -9 21
5 4 9 2 21 -5 28 -8 8 -11 8 -11 -2z"/>
<path d="M1798 3323 c7 -3 16 -2 19 1 4 3 -2 6 -13 5 -11 0 -14 -3 -6 -6z"/>
<path d="M2334 3312 c-15 -11 -16 -35 -2 -43 18 -12 40 -11 33 1 -3 6 -2 10 4
10 14 0 3 27 -13 33 -7 3 -17 2 -22 -1z"/>
<path d="M6424 3309 c-3 -5 -9 -7 -13 -5 -4 3 -26 -12 -48 -32 -38 -36 -39
-39 -39 -102 1 -72 18 -104 71 -136 33 -20 109 -21 132 -2 7 6 13 7 13 3 0 -5
8 2 19 13 10 12 21 18 25 14 4 -4 7 -2 5 3 -1 6 3 23 10 40 7 16 11 50 10 75
-2 39 -8 51 -47 88 -25 23 -47 40 -50 37 -3 -3 -11 0 -19 6 -10 9 -13 8 -13
-2 0 -9 -3 -10 -8 -4 -9 13 -41 15 -48 4z"/>
<path d="M7301 3301 c-14 -26 -14 -26 9 -28 11 -1 20 4 20 13 0 8 0 17 1 21 1
17 -20 13 -30 -6z"/>
<path d="M1786 3298 c3 -5 10 -6 15 -3 13 9 11 12 -6 12 -8 0 -12 -4 -9 -9z"/>
<path d="M710 3292 c0 -7 -5 -11 -12 -9 -11 2 -13 -10 -9 -43 2 -14 50 -8 56
8 2 7 -4 23 -15 34 -11 12 -20 16 -20 10z"/>
<path d="M6858 3282 c-10 -12 -10 -14 0 -8 7 4 12 2 12 -6 0 -9 3 -9 8 -2 4 6
14 13 22 16 10 3 8 6 -7 10 -14 4 -27 0 -35 -10z"/>
<path d="M1874 3238 c-3 -5 -10 -6 -15 -3 -5 4 -9 1 -9 -4 0 -6 -3 -10 -7 -8
-5 1 -9 -2 -10 -6 -1 -4 -9 -15 -18 -23 -8 -9 -13 -20 -10 -25 4 -5 2 -9 -2
-9 -5 0 -9 -9 -9 -20 0 -11 4 -20 8 -20 4 0 5 -6 2 -14 -3 -8 8 -28 24 -45 23
-24 40 -32 75 -35 34 -3 47 0 51 11 3 8 9 12 13 10 19 -9 38 31 40 81 1 47 -3
56 -34 87 -26 26 -43 35 -65 33 -16 -1 -32 -6 -34 -10z"/>
<path d="M7770 3192 c0 -7 -4 -11 -9 -8 -5 3 -23 -7 -40 -23 -26 -25 -30 -35
-27 -65 5 -34 38 -80 50 -68 3 3 6 1 6 -5 0 -20 72 -2 95 23 22 24 25 55 10
101 -6 19 -30 34 -60 37 -5 1 -13 6 -17 11 -5 6 -8 5 -8 -3z"/>
<path d="M2613 3177 c-3 -5 -11 -6 -17 -4 -7 3 -24 -13 -38 -34 -23 -35 -25
-45 -16 -81 8 -40 53 -92 69 -82 4 2 10 0 13 -5 9 -14 75 5 102 30 13 12 21
26 18 30 -3 5 -1 9 5 9 6 0 7 7 4 17 -5 12 -3 14 7 8 10 -6 11 -4 4 6 -4 8 -9
21 -11 29 -4 27 -26 60 -45 66 -10 3 -18 11 -18 17 0 7 -4 6 -10 -3 -6 -10
-10 -11 -10 -3 0 14 -48 14 -57 0z"/>
<path d="M2998 3092 c-9 -44 -4 -58 22 -60 47 -4 47 58 1 65 -12 1 -22 0 -23
-5z"/>
<path d="M1064 3053 c-10 -8 -25 -18 -32 -22 -15 -8 -25 -91 -11 -91 4 0 6 -6
3 -13 -2 -7 7 -19 20 -27 14 -7 23 -16 21 -20 -4 -6 45 -5 75 2 21 5 50 31 44
40 -3 4 0 8 7 8 6 0 9 8 6 20 -3 11 -1 22 4 25 8 6 -5 38 -26 60 -26 29 -84
38 -111 18z"/>
<path d="M2236 3027 c-16 -11 -17 -17 -6 -36 11 -21 13 -22 30 -6 10 9 16 24
13 36 -6 22 -13 24 -37 6z"/>
<path d="M6178 3033 c-23 -6 -28 -25 -13 -46 10 -14 17 -16 41 -7 20 8 25 13
15 19 -7 5 -12 11 -12 15 4 27 2 28 -31 19z"/>
<path d="M5292 3014 c-12 -8 -27 -12 -32 -9 -6 3 -10 2 -10 -2 0 -5 -13 -17
-30 -26 -16 -10 -30 -15 -30 -11 0 4 -8 0 -18 -9 -10 -10 -22 -14 -25 -10 -4
3 -7 1 -7 -6 0 -7 -4 -9 -10 -6 -5 3 -10 0 -10 -7 0 -9 -3 -9 -10 2 -8 13 -10
13 -10 -2 0 -11 -6 -16 -17 -14 -21 4 -58 -39 -43 -49 5 -3 10 -17 10 -31 0
-13 5 -24 11 -24 5 0 7 -4 4 -10 -3 -5 -1 -10 5 -10 7 0 10 -7 7 -14 -4 -9 2
-17 14 -21 10 -4 19 -11 19 -16 0 -5 5 -9 11 -9 6 0 17 -7 26 -15 8 -8 19 -13
24 -10 5 4 9 3 9 -2 0 -4 11 -8 25 -8 14 0 25 2 25 5 0 3 14 6 32 7 18 0 34 6
36 12 2 6 10 11 18 11 8 0 14 5 14 11 0 5 4 8 9 4 5 -3 12 4 16 15 3 11 10 20
15 20 8 0 22 30 26 55 1 6 3 12 4 15 6 16 4 60 -2 60 -4 0 -7 3 -6 8 5 15 -43
84 -62 89 -11 3 -17 9 -14 14 8 13 2 11 -24 -7z"/>
<path d="M1408 2988 c-33 -9 -45 -23 -52 -63 -1 -5 6 -23 14 -40 13 -24 24
-31 53 -33 23 -2 37 1 37 8 0 6 5 8 10 5 6 -3 10 -1 10 5 0 6 4 9 9 5 6 -3 8
4 6 15 -2 11 1 20 7 20 6 0 7 7 3 18 -4 9 -8 23 -8 30 0 6 -3 10 -5 7 -3 -3
-15 3 -26 13 -17 16 -28 17 -58 10z"/>
<path d="M6476 2943 c-13 -13 -5 -41 12 -45 20 -6 47 17 32 27 -6 4 -8 10 -6
14 6 8 -30 12 -38 4z"/>
<path d="M6053 2877 c-18 -6 -33 -14 -33 -18 0 -5 -7 -9 -17 -9 -9 0 -14 -3
-11 -6 4 -3 0 -17 -7 -31 -27 -52 1 -120 59 -143 50 -19 136 5 136 38 0 7 4
11 8 8 8 -4 11 6 14 49 4 53 -59 126 -97 111 -7 -2 -15 -1 -17 3 -2 4 -18 3
-35 -2z"/>
<path d="M2011 2841 c-26 -17 -23 -51 8 -82 17 -17 32 -25 36 -19 4 6 10 8 15
5 4 -3 10 2 14 10 3 8 1 15 -3 15 -5 0 -8 8 -7 18 2 9 -8 27 -21 40 -28 25
-24 24 -42 13z"/>
<path d="M2512 2833 c2 -13 13 -18 38 -18 19 0 38 -4 41 -8 3 -5 9 -2 12 7 4
9 2 16 -4 16 -6 0 -7 4 -4 10 3 6 -1 7 -9 4 -9 -3 -16 -11 -16 -16 0 -6 -11
-3 -25 6 -31 20 -37 20 -33 -1z"/>
<path d="M2780 2815 c0 -8 7 -15 16 -15 9 0 12 -5 8 -12 -4 -7 -3 -10 1 -5 5
4 10 16 12 27 2 14 -3 20 -17 20 -11 0 -20 -7 -20 -15z"/>
<path d="M5577 2786 c-15 -12 -27 -29 -27 -39 0 -9 -4 -17 -9 -17 -15 0 -4
-67 16 -94 23 -32 38 -38 90 -41 33 -2 48 3 70 24 32 29 56 75 45 86 -4 4 -8
11 -8 16 -1 5 -2 13 -3 18 0 4 -13 21 -28 37 -35 38 -105 43 -146 10z"/>
<path d="M2345 2780 c-3 -5 -2 -10 4 -10 5 0 13 5 16 10 3 6 2 10 -4 10 -5 0
-13 -4 -16 -10z"/>
<path d="M2780 2782 c0 -5 -16 -8 -35 -7 -19 1 -35 -2 -35 -7 0 -5 -6 -8 -12
-6 -22 8 -65 -53 -53 -72 3 -6 0 -10 -7 -10 -9 0 -9 -3 -2 -8 12 -8 28 -43 26
-54 -1 -5 3 -8 10 -8 6 0 8 -3 5 -7 -13 -12 44 -53 74 -53 16 0 29 -5 29 -12
0 -10 2 -10 9 0 4 8 11 13 15 12 4 -1 12 1 19 3 9 4 9 6 -1 6 -9 1 -8 9 5 34
18 34 25 78 18 113 -4 20 -65 91 -65 76z"/>
<path d="M650 2739 c0 -5 -5 -7 -11 -3 -6 3 -3 -5 6 -20 13 -20 21 -24 35 -16
10 5 20 17 24 25 3 9 2 13 -4 10 -6 -3 -10 -1 -10 4 0 6 -9 11 -20 11 -11 0
-20 -5 -20 -11z"/>
<path d="M2221 2744 c-1 -6 -13 -10 -27 -8 -15 1 -33 -5 -45 -17 -10 -10 -19
-16 -19 -11 -1 4 -7 -6 -14 -23 -17 -39 -11 -83 14 -105 11 -9 18 -19 16 -21
-3 -2 6 -9 20 -16 18 -8 22 -8 17 0 -5 9 -3 9 8 1 28 -22 93 8 109 51 11 29
10 95 -1 95 -4 0 -10 9 -14 19 -4 12 -12 18 -21 14 -7 -3 -14 0 -14 7 0 6 -4
9 -9 6 -5 -4 -12 0 -14 6 -3 8 -6 9 -6 2z"/>
<path d="M1242 2723 c-6 -3 -10 -9 -6 -14 3 -5 0 -9 -5 -9 -20 0 -11 -20 14
-32 27 -12 58 3 49 25 -6 18 -37 35 -52 30z"/>
<path d="M7608 2692 c-3 -9 -3 -23 -1 -29 6 -16 33 -17 33 -2 0 5 5 7 10 4 6
-4 9 3 7 16 -5 28 -43 36 -49 11z"/>
<path d="M1876 2653 c-8 -20 -8 -38 1 -30 3 4 12 2 20 -4 7 -6 13 -10 14 -8
10 45 8 55 -10 56 -11 1 -22 -5 -25 -14z"/>
<path d="M3311 2638 c-6 -15 -5 -24 3 -27 6 -2 14 -9 18 -15 5 -7 14 -4 28 9
19 20 19 21 2 35 -28 23 -42 22 -51 -2z"/>
<path d="M2427 2631 c-5 -19 7 -22 32 -7 11 7 11 10 0 17 -21 13 -26 11 -32
-10z"/>
<path d="M4236 2638 c4 -7 3 -8 -4 -4 -7 4 -32 -2 -56 -13 -25 -10 -48 -16
-52 -13 -4 4 -5 2 -1 -4 3 -5 -7 -23 -23 -38 -16 -15 -35 -46 -42 -69 -7 -23
-17 -45 -23 -49 -6 -5 -6 -8 2 -8 9 0 10 -7 3 -25 -5 -14 -6 -25 -2 -25 4 0 8
-10 9 -22 1 -11 8 -25 15 -29 10 -7 10 -9 0 -9 -8 0 -4 -12 10 -34 13 -19 26
-32 30 -30 5 3 8 -2 8 -10 0 -9 4 -16 9 -16 5 0 16 -6 23 -12 23 -23 75 -36
130 -33 68 3 96 14 144 61 21 21 42 37 46 36 3 -1 5 10 3 23 -1 14 2 25 6 25
5 0 9 10 9 23 0 12 1 38 1 57 2 65 -21 119 -70 162 -28 26 -101 63 -101 52 0
-3 -8 0 -18 5 -13 7 -23 6 -30 -1 -9 -9 -12 -9 -12 0 0 7 -5 12 -11 12 -5 0
-7 -5 -3 -12z"/>
<path d="M4966 2643 c-4 -5 -12 -9 -17 -9 -5 -1 -13 -2 -18 -3 -14 -2 -32 -61
-19 -61 6 0 9 -3 5 -6 -12 -12 21 -33 51 -32 20 1 34 8 41 22 12 24 11 66 -2
66 -4 0 -5 5 -1 12 5 7 3 8 -6 3 -7 -4 -15 -2 -19 4 -4 6 -11 8 -15 4z"/>
<path d="M6522 2612 c-28 -4 -63 -32 -56 -44 3 -4 1 -8 -5 -8 -11 0 -9 -13 7
-52 13 -31 22 -38 54 -38 47 0 57 4 69 29 19 40 19 52 -2 74 -10 11 -19 25
-19 29 0 5 -4 7 -9 4 -5 -4 -11 -3 -13 1 -1 5 -13 7 -26 5z"/>
<path d="M6745 2610 c3 -5 1 -10 -6 -10 -8 0 -7 -5 2 -17 12 -15 12 -16 -1 -8
-10 5 -12 5 -5 -3 13 -14 65 -26 66 -16 0 5 2 17 4 26 3 16 -13 28 -48 35 -10
2 -16 -1 -12 -7z"/>
<path d="M1725 2600 c-4 -6 -11 -8 -16 -5 -10 7 -12 -15 -3 -38 8 -21 44 -9
44 14 0 11 -5 19 -11 19 -5 0 -7 5 -4 10 3 6 4 10 1 10 -3 0 -8 -5 -11 -10z"/>
<path d="M1856 2575 c-14 -14 -14 -18 2 -34 9 -9 22 -16 29 -14 16 6 23 39 10
52 -15 15 -23 14 -41 -4z"/>
<path d="M2593 2575 c0 -8 4 -15 9 -15 4 0 8 4 8 9 0 6 -4 12 -8 15 -5 3 -9
-1 -9 -9z"/>
<path d="M7133 2571 c0 -30 29 -44 55 -28 9 6 9 13 2 27 -13 23 -57 24 -57 1z"/>
<path d="M5133 2555 c-6 -7 -7 -18 -3 -26 5 -7 6 -17 3 -22 -3 -5 4 -4 15 2
30 16 33 26 13 42 -13 12 -20 13 -28 4z"/>
<path d="M8423 2553 c-7 -2 -13 -16 -13 -29 0 -14 4 -22 10 -19 6 3 10 1 10
-4 0 -7 7 -7 20 1 24 15 26 43 4 52 -9 3 -16 6 -17 5 -1 0 -8 -3 -14 -6z"/>
<path d="M3030 2540 c0 -5 -6 -9 -12 -7 -7 1 -11 -5 -9 -13 2 -8 4 -20 4 -27
0 -7 4 -10 9 -7 5 3 5 11 1 17 -4 7 0 6 10 -2 15 -12 21 -9 18 12 0 4 4 7 10
7 6 0 4 7 -5 15 -17 17 -26 19 -26 5z"/>
<path d="M4616 2534 c-11 -11 -13 -20 -7 -33 13 -24 41 -46 41 -33 0 6 8 9 18
7 22 -4 26 19 10 53 -13 26 -40 29 -62 6z"/>
<path d="M6314 2535 c-9 -22 3 -45 21 -45 9 0 23 7 31 15 14 13 14 17 0 30 -8
8 -22 15 -31 15 -8 0 -18 -7 -21 -15z"/>
<path d="M7240 2504 c0 -8 -6 -14 -12 -14 -9 0 -8 -4 2 -10 8 -5 11 -10 5 -10
-5 0 -3 -4 5 -10 9 -6 20 -5 29 3 12 9 13 9 7 0 -4 -9 -2 -11 7 -7 23 8 9 51
-19 57 -16 3 -24 0 -24 -9z"/>
<path d="M7567 2495 c-16 -22 -16 -25 -2 -25 9 0 13 -4 10 -10 -9 -15 14 -12
31 4 12 12 11 17 -4 35 l-17 20 -18 -24z"/>
<path d="M5599 2497 c-19 -15 -11 -51 14 -55 9 -2 18 1 18 5 6 34 5 52 -2 48
-4 -3 -9 -1 -11 4 -2 6 -10 4 -19 -2z"/>
<path d="M4769 2486 c-19 -7 -36 -12 -39 -12 -25 -1 -109 -79 -110 -102 0 -8
-5 -10 -12 -6 -7 4 -10 4 -6 0 4 -5 3 -19 -2 -31 -8 -21 -10 -57 -10 -142 0
-13 5 -23 10 -23 6 0 9 -3 8 -7 -4 -14 24 -57 59 -90 18 -17 33 -30 33 -28 0
3 19 -4 43 -14 27 -11 60 -16 92 -14 70 4 75 5 75 15 0 5 4 7 8 4 5 -3 19 4
30 15 12 11 22 17 22 13 0 -15 49 44 71 86 27 52 33 140 13 181 -7 15 -10 29
-7 33 4 3 0 6 -7 6 -7 0 -11 3 -7 6 6 6 -38 55 -49 54 -3 -1 -13 7 -22 17 -32
36 -139 57 -193 39z"/>
<path d="M2940 2467 c0 -5 -4 -6 -9 -2 -5 3 -12 1 -16 -5 -4 -6 -11 -8 -16 -5
-5 4 -9 0 -9 -8 0 -8 -6 -17 -14 -20 -15 -6 -18 -87 -3 -87 4 0 6 -4 3 -8 -5
-9 30 -43 48 -46 6 -1 16 -5 22 -9 18 -11 71 12 89 39 15 23 20 48 16 84 -1
20 -46 71 -55 63 -3 -3 -6 -2 -6 3 0 5 -11 9 -25 9 -14 0 -25 -4 -25 -8z"/>
<path d="M7024 2458 c-5 -7 -2 -8 7 -3 11 6 12 5 2 -6 -18 -18 -16 -36 4 -43
11 -5 22 -1 30 10 11 15 10 21 -4 36 -19 21 -29 23 -39 6z"/>
<path d="M2385 2420 c-3 -5 3 -10 15 -10 12 0 18 5 15 10 -3 6 -10 10 -15 10
-5 0 -12 -4 -15 -10z"/>
<path d="M3913 2402 c-6 -4 -14 -18 -18 -31 -5 -15 -4 -21 3 -17 6 3 14 1 17
-5 5 -7 12 -3 22 10 12 18 12 23 0 35 -7 8 -18 11 -24 8z"/>
<path d="M6755 2380 c-3 -6 -10 -8 -14 -5 -13 8 -7 -39 6 -48 18 -12 41 2 46
29 2 14 2 22 -1 19 -3 -2 -11 0 -18 6 -8 7 -14 7 -19 -1z"/>
<path d="M1172 2311 c-4 -3 -8 -17 -7 -31 0 -18 6 -25 19 -25 23 0 47 35 28
42 -6 3 -10 8 -8 12 6 9 -19 10 -32 2z"/>
<path d="M3717 2307 c-3 -8 -1 -20 4 -28 5 -8 9 -10 9 -5 0 5 8 2 17 -5 11
-10 14 -10 9 -1 -4 7 -2 12 5 12 8 0 8 4 -1 15 -11 13 -10 15 6 9 16 -5 16 -4
4 5 -21 15 -47 14 -53 -2z"/>
<path d="M5634 2300 c-12 -5 -25 -13 -29 -19 -3 -6 -11 -9 -16 -6 -5 4 -9 1
-9 -5 0 -6 -4 -8 -10 -5 -5 3 -10 -1 -10 -9 0 -9 -4 -16 -10 -16 -5 0 -10 -7
-10 -15 0 -8 -5 -15 -11 -15 -6 0 -9 -6 -6 -14 3 -7 1 -18 -4 -23 -14 -14 -18
-95 -6 -110 5 -7 7 -13 3 -13 -3 0 5 -19 19 -42 13 -24 29 -42 34 -41 6 2 11
-1 11 -6 0 -5 7 -17 15 -25 11 -11 13 -21 7 -33 -25 -48 3 -108 64 -134 24
-11 44 -24 44 -30 0 -6 5 -7 10 -4 6 3 10 1 10 -5 0 -6 5 -8 10 -5 6 3 16 3
23 -2 18 -11 37 -13 37 -3 0 5 9 7 20 5 11 -2 20 0 20 5 0 5 9 12 20 15 11 4
26 18 34 33 15 30 19 135 5 126 -5 -3 -9 3 -9 12 0 10 -3 14 -7 11 -3 -4 -11
1 -18 9 -10 14 -15 15 -36 4 -21 -12 -22 -11 -12 2 7 8 9 19 5 23 -4 5 -2 5 4
2 7 -4 21 13 35 41 13 26 26 49 29 52 11 10 2 96 -12 130 -32 73 -89 112 -168
116 -30 1 -65 -2 -76 -6z"/>
<path d="M6730 2250 c0 -5 -7 -10 -15 -10 -20 0 -8 -28 17 -41 15 -8 19 -8 14
0 -4 6 -3 11 2 11 20 0 21 30 2 40 -14 7 -20 7 -20 0z"/>
<path d="M2375 2210 c3 -5 2 -10 -3 -10 -15 0 -9 -29 10 -47 12 -10 18 -12 18
-4 0 7 5 9 10 6 15 -9 30 37 18 53 -12 14 -62 17 -53 2z"/>
<path d="M4098 2196 c-25 -18 -13 -53 18 -53 13 0 24 2 25 6 5 38 4 49 -3 45
-4 -3 -8 0 -8 5 0 14 -11 13 -32 -3z"/>
<path d="M2276 2172 c-4 -7 -11 -10 -16 -7 -5 3 -16 -2 -24 -11 -9 -8 -16 -12
-16 -7 0 4 -7 -3 -16 -15 -8 -12 -12 -27 -8 -34 4 -7 3 -8 -5 -4 -9 6 -11 -3
-10 -32 4 -59 42 -100 100 -108 40 -6 49 -3 71 19 14 14 29 23 32 20 3 -4 7 0
8 8 3 30 4 34 9 44 6 11 5 19 -6 52 -4 13 -12 20 -18 16 -6 -4 -7 -1 -2 6 8
13 -28 54 -39 44 -3 -3 -13 0 -23 8 -11 9 -14 10 -9 2 4 -7 3 -13 -3 -13 -5 0
-11 5 -13 12 -3 9 -6 9 -12 0z"/>
<path d="M2107 2158 c-21 -11 -22 -44 -2 -52 22 -8 44 3 42 23 -2 26 -21 40
-40 29z"/>
<path d="M4432 2154 c-23 -16 -32 -74 -11 -74 5 0 8 -4 5 -9 -4 -5 5 -8 19 -6
14 1 25 -2 25 -8 0 -6 9 -2 20 8 30 27 27 79 -5 93 -32 15 -26 15 -53 -4z"/>
<path d="M3546 2152 c-11 -18 5 -41 26 -37 11 3 23 7 27 11 3 4 -3 4 -14 1
-20 -7 -20 -7 -1 8 11 8 15 15 9 15 -6 0 -18 3 -26 6 -8 3 -18 1 -21 -4z"/>
<path d="M7494 2098 c1 -15 7 -23 19 -23 9 0 17 3 17 8 0 4 0 14 0 22 0 8 -8
15 -19 15 -13 0 -18 -7 -17 -22z"/>
<path d="M5336 2093 c-11 -28 -6 -41 19 -46 29 -5 49 20 35 44 -12 19 -47 20
-54 2z"/>
<path d="M3939 2058 c-1 -2 -3 -12 -4 -24 -1 -15 3 -21 17 -20 10 1 18 4 18 9
0 4 0 14 0 23 0 14 -2 15 -17 3 -11 -10 -14 -10 -9 -1 4 6 5 12 2 12 -3 0 -7
-1 -7 -2z"/>
<path d="M1140 2039 c0 -6 -4 -7 -10 -4 -14 9 -13 -28 2 -43 17 -17 47 3 41
27 -5 21 -33 37 -33 20z"/>
<path d="M3035 2020 c-4 -6 -10 -8 -15 -5 -9 6 -23 -12 -26 -32 -1 -7 2 -13 7
-13 5 0 9 -7 9 -16 0 -8 5 -12 10 -9 6 3 10 1 10 -5 0 -11 54 13 65 29 3 5 -6
21 -20 35 -29 29 -31 30 -40 16z"/>
<path d="M4151 1971 c-1 -8 -4 -12 -7 -8 -9 8 -64 -21 -64 -34 0 -6 -6 -7 -12
-3 -7 4 -10 4 -6 -1 4 -4 3 -14 -3 -22 -6 -7 -7 -13 -2 -13 5 0 8 -13 5 -28
-3 -20 4 -37 22 -59 62 -74 179 -32 181 66 0 28 -7 43 -33 69 -22 22 -41 32
-53 29 -10 -3 -20 0 -23 7 -3 7 -5 5 -5 -3z"/>
<path d="M2497 1956 c-8 -19 15 -37 33 -26 7 5 15 16 16 24 3 20 -42 22 -49 2z"/>
<path d="M2749 1955 c0 0 -2 -10 -5 -21 -2 -15 2 -23 16 -27 24 -6 30 0 30 29
0 17 -5 22 -20 21 -11 -1 -20 -1 -21 -2z"/>
<path d="M3500 1940 c-8 -5 -10 -10 -5 -10 6 0 3 -5 -5 -10 -10 -6 -11 -10 -2
-10 6 0 11 -6 10 -12 -2 -7 4 -11 12 -9 8 2 20 4 26 4 12 0 12 10 -1 40 -8 19
-14 21 -35 7z"/>
<path d="M3729 1948 c-7 -24 -5 -38 7 -38 8 0 14 -5 14 -10 0 -6 6 -6 13 2 19
17 9 48 -14 48 -11 0 -19 -1 -20 -2z"/>
<path d="M7190 1925 c-1 -5 -2 -13 -1 -17 0 -5 -4 -8 -10 -8 -6 0 -3 -7 6 -16
16 -16 51 -12 41 5 -4 5 -2 11 4 13 6 2 6 8 0 18 -8 12 -11 13 -19 1 -7 -11
-9 -11 -14 0 -3 8 -6 10 -7 4z"/>
<path d="M5073 1905 c-16 -18 16 -56 42 -49 20 5 34 52 17 55 -33 6 -49 4 -59
-6z"/>
<path d="M4325 1839 c2 -29 23 -46 31 -26 3 9 9 15 13 12 4 -2 8 2 8 10 0 8
-4 12 -9 9 -4 -3 -8 -1 -8 3 0 5 -8 9 -18 10 -13 1 -18 -5 -17 -18z"/>
<path d="M3667 1827 c-12 -8 -14 -16 -7 -27 6 -10 10 -11 10 -2 0 6 7 12 15
12 8 0 15 4 15 9 0 17 -17 21 -33 8z"/>
<path d="M1980 1800 c0 -6 -5 -8 -10 -5 -16 10 -23 -21 -11 -44 7 -12 17 -18
26 -15 22 9 28 42 11 60 -9 9 -16 11 -16 4z"/>
<path d="M6715 1766 c4 -15 3 -17 -9 -7 -21 17 -30 -4 -10 -24 24 -23 42 -4
25 27 -7 15 -10 16 -6 4z"/>
<path d="M6941 1758 c-10 -16 -10 -19 1 -13 10 6 11 5 1 -6 -13 -13 -19 -38
-7 -26 4 3 15 2 25 -4 16 -8 21 -6 28 13 10 29 5 45 -18 51 -11 2 -23 -4 -30
-15z"/>
<path d="M1527 1725 c-20 -15 -22 -29 -4 -43 28 -22 60 17 34 42 -10 11 -17
11 -30 1z"/>
<path d="M2351 1726 c-17 -20 -5 -55 17 -51 9 2 19 4 22 4 3 1 6 10 6 21 0 10
-2 17 -5 15 -2 -3 -9 2 -16 11 -10 14 -12 14 -24 0z"/>
<path d="M5410 1725 c-8 -9 -6 -17 5 -29 19 -19 40 -12 42 13 2 23 -32 34 -47
16z"/>
<path d="M5513 1722 c-17 -11 -9 -45 13 -52 26 -10 51 24 34 45 -14 17 -29 19
-47 7z"/>
<path d="M3073 1714 c4 -4 0 -16 -10 -26 -9 -10 -14 -18 -12 -19 2 -1 17 -2
32 -3 25 -3 28 0 25 23 -2 17 -10 27 -23 29 -11 3 -17 1 -12 -4z"/>
<path d="M3633 1682 c1 -20 34 -25 34 -5 0 7 -4 10 -9 7 -4 -3 -8 0 -8 5 0 6
-4 11 -9 11 -6 0 -9 -8 -8 -18z"/>
<path d="M2548 1669 c-14 -8 -15 -14 -6 -34 12 -27 40 -33 55 -12 6 8 6 20 -2
34 -9 18 -14 20 -25 10 -10 -9 -11 -9 -6 1 9 14 6 15 -16 1z"/>
<path d="M4489 1659 c-5 -36 -2 -44 15 -44 27 0 32 41 6 48 -11 3 -21 1 -21
-4z"/>
<path d="M2885 1622 c-17 -12 -16 -39 1 -53 14 -11 18 -11 21 -1 3 6 12 12 21
12 14 0 14 2 3 9 -11 7 -11 9 0 14 10 4 9 6 -3 6 -10 1 -18 6 -18 11 0 12 -11
13 -25 2z"/>
<path d="M3189 1583 c-7 -10 -10 -15 -5 -11 5 4 17 3 28 -3 18 -9 18 -8 8 10
-13 25 -14 26 -31 4z"/>
<path d="M5814 1496 c-49 -26 -81 -71 -75 -106 5 -32 34 -80 47 -80 8 0 14 -4
14 -8 0 -17 85 -9 109 9 13 11 20 19 15 19 -5 0 -1 5 9 11 12 7 17 23 17 54 0
25 -4 45 -10 45 -5 0 -9 5 -7 11 2 9 -67 53 -88 55 -6 1 -20 -4 -31 -10z"/>
<path d="M7437 1456 c-11 -28 0 -50 25 -53 23 -3 26 0 24 27 -2 29 -16 56 -16
30 0 -9 -3 -10 -14 -1 -10 9 -15 8 -19 -3z"/>
<path d="M1615 1450 c3 -5 1 -10 -4 -12 -5 -2 -5 -13 0 -27 8 -20 11 -22 26
-10 14 12 16 12 8 -1 -8 -13 -6 -13 7 -2 18 14 20 52 3 53 -5 0 -18 2 -28 4
-9 2 -15 0 -12 -5z"/>
<path d="M4937 1448 c-16 -12 -16 -15 -2 -36 13 -18 20 -20 36 -11 13 6 19 18
17 32 -4 26 -27 33 -51 15z"/>
<path d="M2106 1404 c-20 -19 -12 -34 18 -34 28 0 42 35 19 44 -20 8 -19 8
-37 -10z"/>
<path d="M4262 1412 c-45 -7 -52 -79 -10 -100 31 -15 47 -9 72 25 11 14 13 23
6 18 -10 -6 -12 -4 -7 9 4 10 1 19 -8 22 -8 4 -13 10 -10 14 7 11 -15 17 -43
12z"/>
<path d="M4680 1322 c-18 -8 -20 -44 -2 -50 6 -2 12 1 12 8 0 6 3 9 8 7 4 -3
8 6 8 19 2 25 -1 27 -26 16z"/>
<path d="M3782 1294 c-42 -17 -58 -34 -57 -59 0 -11 -3 -27 -7 -36 -5 -11 -2
-22 7 -29 9 -7 13 -15 10 -18 -8 -9 37 -42 59 -43 12 0 31 -2 43 -3 12 -1 20
1 17 6 -3 4 -1 8 4 8 20 0 50 37 55 67 7 45 -26 102 -60 104 -5 1 -15 5 -23 9
-9 5 -29 2 -48 -6z"/>
<path d="M5425 1259 c-6 -18 9 -49 24 -49 20 1 32 19 26 41 -8 31 -42 36 -50
8z"/>
<path d="M6285 1242 c-16 -11 -16 -30 -1 -35 8 -3 17 1 21 10 7 19 -6 35 -20
25z"/>
<path d="M2659 1218 c-1 -2 -3 -13 -4 -25 -2 -24 16 -36 40 -27 20 8 19 40 -1
48 -16 6 -33 8 -35 4z"/>
<path d="M5068 1033 c-15 -14 -15 -17 1 -34 21 -23 58 -15 56 12 -1 11 -7 25
-15 32 -10 10 -11 9 -5 -3 7 -12 6 -13 -6 -3 -12 10 -19 9 -31 -4z"/>
<path d="M3205 1021 c-3 -6 -11 -9 -16 -6 -5 4 -7 -4 -6 -17 4 -21 11 -24 46
-19 12 1 8 28 -6 42 -8 8 -13 8 -18 0z"/>
<path d="M6355 1004 c-22 -7 -35 -13 -30 -14 6 0 1 -7 -9 -15 -11 -8 -16 -15
-12 -15 5 0 3 -7 -4 -15 -7 -8 -8 -15 -3 -15 5 0 9 -9 10 -20 3 -42 89 -81
108 -50 4 6 10 8 14 6 4 -3 15 8 24 23 21 36 6 90 -32 112 -22 12 -33 13 -66
3z"/>
<path d="M6821 947 c-14 -14 -14 -26 2 -41 11 -11 17 -11 30 -1 9 7 17 19 17
27 0 19 -35 29 -49 15z"/>
<path d="M5658 830 c-9 -6 -15 -18 -13 -28 2 -9 4 -19 4 -22 1 -9 51 -7 52 2
1 4 2 14 3 21 2 13 -13 37 -23 37 -3 0 -13 -5 -23 -10z"/>
<path d="M5785 740 c-4 -6 -10 -8 -15 -5 -4 3 -3 -6 3 -20 21 -44 71 -29 59
18 -5 18 -37 23 -47 7z"/>
<path d="M3426 658 c3 -4 -5 -8 -16 -8 -16 0 -20 -5 -16 -15 3 -9 0 -15 -8
-15 -10 0 -13 -11 -11 -37 3 -52 14 -73 37 -73 10 0 17 -4 14 -9 -3 -5 8 -11
24 -13 17 -3 30 -1 30 4 0 5 5 6 11 3 5 -4 21 5 33 18 13 14 26 24 28 22 2 -2
2 15 1 37 -1 23 -7 44 -13 48 -7 4 -10 9 -8 12 1 2 -4 11 -12 19 -16 15 -103
21 -94 7z"/>
<path d="M4647 572 c-11 -13 -12 -20 -4 -27 17 -15 39 -13 45 4 3 9 0 11 -9 5
-12 -6 -12 -5 -1 8 18 23 -11 32 -31 10z"/>
<path d="M5092 328 c-15 -15 -3 -38 19 -38 12 0 19 7 19 19 0 22 -23 34 -38
19z m27 -21 c0 -9 -2 -8 -6 1 -2 6 -10 9 -15 6 -7 -4 -8 -2 -4 5 9 13 26 5 25
-12z"/>
<path d="M3850 297 c-21 -17 -19 -41 4 -45 23 -5 47 23 39 44 -6 17 -23 18
-43 1z"/>
<path d="M4417 67 c-3 -8 -1 -20 3 -27 10 -16 40 -22 40 -9 0 6 4 8 9 5 5 -4
8 2 6 11 -2 10 -4 21 -4 26 -2 13 -49 8 -54 -6z"/>
</g>
</svg>
