<svg width="165" height="20" viewBox="0 0 165 20" fill="none" xmlns="http://www.w3.org/2000/svg">
<path d="M141.437 19.6619C141.559 19.7892 141.469 20 141.293 20H136.907C136.852 20 136.799 19.9773 136.762 19.9374L130.932 13.7706L125.038 19.9381C125.001 19.9776 124.948 20 124.894 20H120.507C120.331 20 120.241 19.7892 120.363 19.6619L128.399 11.2406L120.635 3.05763C120.514 2.9302 120.604 2.71997 120.78 2.71997H125.167C125.222 2.71997 125.275 2.74275 125.313 2.78293L130.889 8.71069L136.487 2.78266C136.525 2.74265 136.578 2.71997 136.633 2.71997H141.02C141.196 2.71997 141.286 2.9302 141.165 3.05763L133.401 11.2406L141.437 19.6619Z" fill="#172D3E"/>
<path d="M99.8561 19.9997C99.7027 19.9997 99.5784 19.8754 99.5784 19.7221V2.99823C99.5784 2.84491 99.7027 2.72061 99.8561 2.72061H116.427C116.58 2.72061 116.704 2.84491 116.704 2.99823V5.38982C116.704 5.54314 116.58 5.66743 116.427 5.66743H103.597V9.5184H111.289C111.442 9.5184 111.567 9.64269 111.567 9.79601V12.1876C111.567 12.3409 111.442 12.4652 111.289 12.4652H103.597V16.7515H116.594C116.747 16.7515 116.872 16.8758 116.872 17.0291V19.7221C116.872 19.8754 116.747 19.9997 116.594 19.9997H99.8561Z" fill="#172D3E"/>
<path d="M70.5142 19.9997C70.3609 19.9997 70.2366 19.8754 70.2366 19.7221V2.99823C70.2366 2.84491 70.3609 2.72061 70.5142 2.72061H73.9773C74.1307 2.72061 74.255 2.84491 74.255 2.99823V19.7221C74.255 19.8754 74.1307 19.9997 73.9773 19.9997H70.5142Z" fill="#172D3E"/>
<path d="M50.8132 19.9997C50.6599 19.9997 50.5356 19.8754 50.5356 19.7221V2.99823C50.5356 2.84491 50.6599 2.72061 50.8132 2.72061H67.1828C67.3361 2.72061 67.4604 2.84491 67.4604 2.99823V5.45679C67.4604 5.61011 67.3361 5.73441 67.1828 5.73441H54.554V10.2886H61.543C61.6963 10.2886 61.8206 10.4129 61.8206 10.5662V13.1587C61.8206 13.312 61.6963 13.4363 61.543 13.4363H54.554V19.7221C54.554 19.8754 54.4297 19.9997 54.2764 19.9997H50.8132Z" fill="#172D3E"/>
<path d="M40.0672 5.80138V19.7221C40.0672 19.8754 39.943 19.9997 39.7896 19.9997H36.3265C36.1732 19.9997 36.0489 19.8754 36.0489 19.7221V5.80138H28.6678C28.5144 5.80138 28.3902 5.67709 28.3902 5.52376V2.99823C28.3902 2.84491 28.5144 2.72061 28.6678 2.72061H47.4818C47.6351 2.72061 47.7594 2.84491 47.7594 2.99823V5.52376C47.7594 5.67709 47.6351 5.80138 47.4818 5.80138H40.0672Z" fill="#172D3E"/>
<path d="M21.8732 19.9997C21.7199 19.9997 21.5956 19.8754 21.5956 19.7221V2.99823C21.5956 2.84491 21.7199 2.72061 21.8732 2.72061H25.3364C25.4897 2.72061 25.614 2.84491 25.614 2.99823V19.7221C25.614 19.8754 25.4897 19.9997 25.3364 19.9997H21.8732Z" fill="#172D3E"/>
<path fill-rule="evenodd" clip-rule="evenodd" d="M0 2.99823C0 2.84491 0.124294 2.72061 0.277617 2.72061H15.0755C17.0687 2.72061 18.6845 4.33643 18.6845 6.32964V7.48309C18.6845 9.4763 17.0687 11.0921 15.0755 11.0921H15.2104C17.2036 11.0921 18.8194 12.7079 18.8194 14.7011V16.3909C18.8194 18.3842 17.2036 20 15.2104 20H0.277618C0.124294 20 0 19.8757 0 19.7224V2.99823ZM3.94894 5.53411H13.302C14.2219 5.53411 14.9677 6.27987 14.9677 7.19982V7.98672C14.9677 8.90667 14.2219 9.65243 13.302 9.65243H3.94894V5.53411ZM3.94894 12.4973H13.4024C14.3223 12.4973 15.0681 13.2431 15.0681 14.163V15.2197C15.0681 16.1396 14.3223 16.8854 13.4024 16.8854H3.94894V12.4973Z" fill="#172D3E"/>
<path d="M77.0311 19.7221V2.99823C77.0311 2.84491 77.1554 2.72061 77.3087 2.72061H79.6718C79.7396 2.72061 79.8051 2.74542 79.8558 2.79035L93.1857 14.5888L93.1857 2.99823C93.1857 2.8449 93.31 2.72061 93.4633 2.72061H96.5247C96.678 2.72061 96.8023 2.84491 96.8023 2.99823V19.7221C96.8023 19.8754 96.678 19.9997 96.5247 19.9997H94.1618C94.0939 19.9997 94.0283 19.9748 93.9775 19.9297L80.6477 8.10053L80.6477 19.7221C80.6477 19.8754 80.5234 19.9997 80.3701 19.9997H77.3087C77.1554 19.9997 77.0311 19.8754 77.0311 19.7221Z" fill="#172D3E"/>
<path d="M144.777 13.0418C144.602 10.2103 145.792 7.06285 148.241 4.61336C153.567 -0.712801 164.659 0.0337534 164.722 0.0380434C164.692 0.0819984 156.583 11.8386 146.974 12.9382C146.232 13.0232 145.498 13.0567 144.777 13.0418Z" fill="#03CA9B"/>
<path d="M145.902 16.6621C146.177 17.0996 146.501 17.5092 146.876 17.8843C150.164 21.1721 156.106 20.5611 160.147 16.5195C165.489 11.1782 164.722 0.0380434 164.722 0.0380434C164.693 0.104053 158.88 13.1333 149.642 15.9753C148.388 16.3611 147.131 16.5858 145.902 16.6621Z" fill="#03CA9B"/>
</svg>
